<svg xmlns="http://www.w3.org/2000/svg" xmlns:xlink="http://www.w3.org/1999/xlink" width="295" height="451" viewBox="0 0 295 451">
  <defs>
    <clipPath id="clip-path">
      <rect id="Rectángulo_338983" data-name="Rectángulo 338983" width="295" height="428" transform="translate(0 0.475)" fill="#fff" stroke="#707070" stroke-width="1"/>
    </clipPath>
  </defs>
  <g id="Grupo_984401" data-name="Grupo 984401" transform="translate(-390 -2848)">
    <g id="Grupo_983733" data-name="Grupo 983733" transform="translate(390 2870.524)">
      <path id="Rectángulo_338981" data-name="Rectángulo 338981" d="M21,0H189a0,0,0,0,1,0,0V430a21,21,0,0,1-21,21H21A21,21,0,0,1,0,430V21A21,21,0,0,1,21,0Z" transform="translate(106 -22.525)" fill="#6b8dfc"/>
      <rect id="Rectángulo_338982" data-name="Rectángulo 338982" width="171" height="417" rx="21" transform="translate(0 11.475)" fill="#3c3fa7"/>
      <g id="Enmascarar_grupo_559" data-name="Enmascarar grupo 559" transform="translate(0 0)" clip-path="url(#clip-path)">
        <path id="Unión_142" data-name="Unión 142" d="M185.956,71.373c-19.77-23.946-49.3-39.484-82.058-40.033C45.548,30.361-.963,77.3.015,136.192s49.073,107.42,107.423,108.4a101.314,101.314,0,0,0,83.989-41.464c24.109,40.7,67.952,68.491,117.607,69.323a129.439,129.439,0,0,0,105.217-50.207c17.7,35.891,54.268,61.041,96.111,61.743,58.35.978,104.86-45.964,103.883-104.853S565.173,71.714,506.823,70.735a101.393,101.393,0,0,0-71.694,27.545C417.236,42.348,365.218,1.037,304.512.019A129.5,129.5,0,0,0,185.956,71.373Z" transform="matrix(-0.809, -0.588, 0.588, -0.809, 251.382, 642.639)" fill="#1d206f"/>
      </g>
      <g id="Grupo_983732" data-name="Grupo 983732" transform="translate(33.412 4.433)">
        <g id="Grupo_983728" data-name="Grupo 983728" transform="translate(8.233 374.944)">
          <path id="Trazado_209719" data-name="Trazado 209719" d="M335.308,2225.555l-6.907,36.6-20.4-14.883,4.543-23.384Z" transform="translate(-270.639 -2223.464)" fill="#fff"/>
          <path id="Trazado_209720" data-name="Trazado 209720" d="M325.325,2259.5a.423.423,0,0,1-.25-.081l-20.4-14.884a.423.423,0,0,1-.166-.424l4.543-23.384a.422.422,0,0,1,.448-.342l22.759,1.666a.424.424,0,0,1,.386.5l-6.907,36.6a.424.424,0,0,1-.261.316.428.428,0,0,1-.156.03M305.4,2244.011l19.634,14.328,6.694-35.474-21.909-1.6Z" transform="translate(-267.563 -2220.385)"/>
          <path id="Trazado_209778" data-name="Trazado 209778" d="M63.963,2355.252l1.838,24.8-62.108.506s-1.687-16.453,4.77-17.6,23.95-3.87,23.95-3.87l13.9-11.11,6.495,14.356Z" transform="translate(-3.071 -2332.501)"/>
          <path id="Trazado_209779" data-name="Trazado 209779" d="M1.506,2378.668a.3.3,0,0,1-.3-.272,50.293,50.293,0,0,1-.037-8.428c.525-5.8,2.226-9,5.055-9.5,6.163-1.1,22.582-3.657,23.876-3.859l13.84-11.06a.3.3,0,0,1,.466.113l6.351,14.038,10.857-6.9a.3.3,0,0,1,.465.233l1.838,24.8a.3.3,0,0,1-.3.326l-62.108.506Zm42.507-32.4-13.6,10.867a.3.3,0,0,1-.143.063c-.175.028-17.564,2.734-23.943,3.869-5.663,1.008-4.725,14.862-4.546,17l61.5-.5-1.777-23.976L50.786,2360.4a.3.3,0,0,1-.439-.131Z" transform="translate(-0.884 -2330.304)" fill="#fff"/>
          <path id="Trazado_209780" data-name="Trazado 209780" d="M241.046,2321.852s5.588-12.3,8.655-15.026c3.8-3.375,7.2,1.258,3.141,5.838s-11.8,9.187-11.8,9.187" transform="translate(-211.803 -2295.323)"/>
          <path id="Trazado_209781" data-name="Trazado 209781" d="M238.849,2319.955a.3.3,0,0,1-.276-.428c.014-.031,1.421-3.121,3.185-6.505,2.38-4.566,4.246-7.467,5.545-8.622,1.983-1.763,3.71-1.365,4.586-.49,1.311,1.31,1.383,4.051-1.017,6.757-4.048,4.563-11.79,9.2-11.868,9.247a.311.311,0,0,1-.155.042m11.232-16.18a3.724,3.724,0,0,0-2.375,1.078c-2.5,2.222-6.8,11.114-8.156,14.009,2.121-1.338,7.675-5,10.868-8.6,1.588-1.79,2.493-4.475,1.042-5.925a1.9,1.9,0,0,0-1.38-.563" transform="translate(-209.606 -2293.122)" fill="#fff"/>
          <path id="Trazado_209782" data-name="Trazado 209782" d="M65.8,2475.586l-.465-6.275H19.263V2456.7c-4.15.667-8.3,1.346-10.8,1.791-3.634.646-4.688,6.14-4.915,10.821h0a50.571,50.571,0,0,0,.146,6.781l15.568-.127Z" transform="translate(-3.072 -2428.031)" fill="#fff"/>
          <path id="Trazado_209783" data-name="Trazado 209783" d="M.623,2473.441a.424.424,0,0,1-.422-.381,51.449,51.449,0,0,1-.148-6.845c.33-6.785,2.15-10.664,5.265-11.218,2.165-.385,5.8-.988,10.805-1.792a.425.425,0,0,1,.492.419v12.187h45.65a.424.424,0,0,1,.423.393l.465,6.274a.425.425,0,0,1-.42.456l-62.108.506Zm15.143-19.319c-4.747.764-8.21,1.339-10.3,1.711-1.868.332-4.176,2.41-4.566,10.423a51.414,51.414,0,0,0,.11,6.332l61.262-.5-.4-5.429H16.19a.425.425,0,0,1-.425-.425Z" transform="translate(0 -2424.955)"/>
          <path id="Trazado_209784" data-name="Trazado 209784" d="M168.737,2345.725a.3.3,0,0,1-.3-.3v-6.973a.3.3,0,0,1,.487-.241l6.889,5.258V2335.7a.3.3,0,0,1,.452-.264l7.328,4.129-3.232-12.662a.3.3,0,0,1,.5-.294l8.322,7.941a.3.3,0,1,1-.419.439l-7.557-7.211,3.146,12.325a.3.3,0,0,1-.443.339l-7.494-4.223v7.856a.3.3,0,0,1-.487.241l-6.889-5.258v6.36a.3.3,0,0,1-.3.3" transform="translate(-148 -2313.652)" fill="#fff"/>
        </g>
        <path id="Trazado_209723" data-name="Trazado 209723" d="M484.671,705.058l-1.5-8.753,10.682,1.257V712.18l-5.8-1.062Z" transform="translate(-416.097 -580.769)"/>
        <g id="Grupo_983730" data-name="Grupo 983730" transform="translate(177.13 35.375)">
          <path id="Trazado_209724" data-name="Trazado 209724" d="M1213.149,315.685l-.75-10.453a13.736,13.736,0,0,0,.881-4.691c.021-2.632-.7-13.29-.7-13.29l-19.143,1.51s2.864,14.7,4.575,17.812,1.376,9.962,1.376,9.962Z" transform="translate(-1183.5 -268.503)" fill="#efa466"/>
          <path id="Trazado_209725" data-name="Trazado 209725" d="M1138.647,312.828s-9.779-4.077-12.812-8.33c-2.586-3.626-4.012-6.7-5.306-8.534a1.092,1.092,0,0,1,.369-1.555,3.094,3.094,0,0,1,3.557.02,19.575,19.575,0,0,1,4.134,4.273c1.038,1.626,6.807,2.572,6.807,2.572Z" transform="translate(-1120.339 -274.212)" fill="#efa466"/>
          <path id="Trazado_209726" data-name="Trazado 209726" d="M1167.732,183.779l-4.174-16.454a2.1,2.1,0,0,1,1.831-2.483,2.3,2.3,0,0,1,2.715,1.445l4.635,16.574Z" transform="translate(-1157.631 -162.692)" fill="#efa466"/>
          <path id="Trazado_209727" data-name="Trazado 209727" d="M1215.946,169.674l-2.465-17.845a2.345,2.345,0,0,1,4.631-.64l2.712,18.275Z" transform="translate(-1200.803 -149.341)" fill="#efa466"/>
          <path id="Trazado_209728" data-name="Trazado 209728" d="M1257.2,179.64l-1.661-15.726a2.2,2.2,0,0,1,2.2-2.176,2.112,2.112,0,0,1,2.432,1.62l1.888,16.1Z" transform="translate(-1237.154 -160.043)" fill="#efa466"/>
          <path id="Trazado_209729" data-name="Trazado 209729" d="M1304.7,210.929l2.257-11.9a1.831,1.831,0,0,1,2.166-1.2h0c.973.15,1.633.876,1.5,1.646l-2.169,12.223Z" transform="translate(-1279.634 -191.214)" fill="#efa466"/>
          <path id="Trazado_209730" data-name="Trazado 209730" d="M1244.865,351.8a.407.407,0,0,1-.405-.369c-.566-5.955-6.752-8.814-6.814-8.842a.408.408,0,0,1,.335-.744c.273.122,6.68,3.075,7.291,9.508a.408.408,0,0,1-.367.445l-.039,0" transform="translate(-1221.491 -315.647)"/>
        </g>
        <g id="Grupo_983729" data-name="Grupo 983729" transform="translate(113.262 379.377)">
          <path id="Trazado_209721" data-name="Trazado 209721" d="M736.829,2263.592l-1.47,26.457,18.707-2.405,2.539-26.19Z" transform="translate(-729.094 -2261.029)" fill="#fff"/>
          <path id="Trazado_209722" data-name="Trazado 209722" d="M732.283,2287.4a.424.424,0,0,1-.424-.448l1.47-26.457a.425.425,0,0,1,.378-.4l19.776-2.138a.425.425,0,0,1,.468.463l-2.539,26.19a.425.425,0,0,1-.368.38l-18.707,2.4a.369.369,0,0,1-.054,0m1.874-26.5-1.421,25.588,17.865-2.3,2.456-25.334Z" transform="translate(-726.018 -2257.955)"/>
          <path id="Trazado_209731" data-name="Trazado 209731" d="M693.651,2376.9l-6.433,26.859,48.821.1s.866-11.846-3.645-14.548-13.187-5.561-13.187-5.561l-6.139-9-6.442-.082-10.08,9Z" transform="translate(-686.793 -2360.519)"/>
          <path id="Trazado_209732" data-name="Trazado 209732" d="M733.843,2401.974h0l-48.821-.1a.3.3,0,0,1-.294-.374l6.433-26.859a.3.3,0,0,1,.574-.048l2.728,6.382,9.765-8.714a.3.3,0,0,1,.206-.077l6.442.082a.305.305,0,0,1,.247.132l6.081,8.912c.974.325,8.921,3.022,13.151,5.556,4.618,2.766,3.828,14.338,3.792,14.83a.3.3,0,0,1-.3.281m-48.437-.707,48.151.1c.092-1.8.407-11.634-3.515-13.983-4.431-2.655-13.04-5.505-13.126-5.534a.306.306,0,0,1-.156-.117l-6.05-8.866-6.167-.078-9.992,8.917a.3.3,0,0,1-.481-.107l-2.534-5.928Z" transform="translate(-684.597 -2358.322)" fill="#fff"/>
          <path id="Trazado_209733" data-name="Trazado 209733" d="M847.707,2349.562s-.913-7.833-5.252-8.024-6.186,1.8-4.833,5.767,10.355,11.578,10.355,11.578l5.214-3.153Z" transform="translate(-818.567 -2331.387)"/>
          <path id="Trazado_209734" data-name="Trazado 209734" d="M736.013,2467.511c-.021-.454-.049-.9-.085-1.322H735.9c-.356-3.27-1.271-6.843-3.5-8.18a77.381,77.381,0,0,0-12-5.155c-2.041.232-4.831,1.294-7.278,4.827a18.378,18.378,0,0,0-2.66,8.508H688.719l-1.5,6.267,23.255.048.006.053h25.561a39.727,39.727,0,0,0-.026-5.047" transform="translate(-686.793 -2429.211)" fill="#fff"/>
          <path id="Trazado_209735" data-name="Trazado 209735" d="M732.965,2469.907H707.4a.417.417,0,0,1-.206-.053l-23.055-.048a.424.424,0,0,1-.412-.523l1.5-6.267a.424.424,0,0,1,.413-.325H707a18.689,18.689,0,0,1,2.694-8.325c2.575-3.719,5.543-4.776,7.579-5.008a.434.434,0,0,1,.188.021,78.184,78.184,0,0,1,12.076,5.192c1.951,1.169,3.192,3.975,3.689,8.341a.421.421,0,0,1,.05.166c.035.4.064.849.086,1.334a39.751,39.751,0,0,1,.025,5.1.424.424,0,0,1-.423.393m0-.424h0Zm-25.361-.425h24.96a40.957,40.957,0,0,0-.048-4.593s0-.007,0-.01c-.019-.413-.043-.8-.071-1.147a.427.427,0,0,1-.044-.147c-.448-4.119-1.589-6.837-3.3-7.862a76.9,76.9,0,0,0-11.827-5.086c-1.858.235-4.529,1.237-6.882,4.636a18.274,18.274,0,0,0-2.587,8.307.425.425,0,0,1-.423.384h-21.4l-1.3,5.418,22.718.048a.426.426,0,0,1,.2.052" transform="translate(-683.719 -2426.135)"/>
          <path id="Trazado_209736" data-name="Trazado 209736" d="M835.171,2392.182h-11.6a.3.3,0,0,1-.108-.587l9.8-3.737H818.143a.3.3,0,0,1-.081-.6l13.735-3.791a.3.3,0,0,1,.161.585l-11.577,3.2h14.534a.3.3,0,0,1,.108.587l-9.8,3.738h9.949a.3.3,0,1,1,0,.606" transform="translate(-801.568 -2368.234)" fill="#fff"/>
        </g>
        <path id="Trazado_209737" data-name="Trazado 209737" d="M179.3,323.25l.023,7.214s-25.579,2.377-37.872,8.567-55.312,42.821-59.42,55.959,13.513,29.049,24.367,37.474,40.389,23.677,40.389,23.677l9.433-16L123.8,405.349l26.04-15.211s8.612,23.247,15.66,32.353,68.44-1,68.44-1l8.37-18.518s26,26.024,33.465,29.344c8.267,3.676,22.979-.418,22.979-11.515s-6.579-76.368-6.579-76.368l-23.509.717.721,37.124s-26.1-36.756-32.334-40.793-31.445-9.546-31.445-9.546l-.126-7.343Z" transform="translate(-81.009 -269.614)" fill="#fff"/>
        <path id="Trazado_209738" data-name="Trazado 209738" d="M144.706,454.469a.414.414,0,0,1-.19-.046c-.3-.153-29.693-15.365-40.453-23.717A103.621,103.621,0,0,1,86.2,413.664c-6.254-7.952-8.489-14.979-6.642-20.885,2.59-8.283,19.576-24.277,26.758-30.769,12.861-11.624,26.685-22.322,32.871-25.437,11.407-5.743,34.415-8.244,37.642-8.572l-.021-6.837a.415.415,0,0,1,.129-.3.41.41,0,0,1,.307-.114l26.185,1.339a.415.415,0,0,1,.394.407l.121,7.016c3.081.682,25.346,5.7,31.262,9.532,5.694,3.688,27.2,33.562,31.667,39.808l-.695-35.783a.415.415,0,0,1,.4-.423l23.509-.717h.013a.415.415,0,0,1,.412.373c.066.653,6.581,65.418,6.581,76.409a11.9,11.9,0,0,1-5.813,10.2c-5.076,3.3-12.541,4.01-17.75,1.694-7.015-3.119-29.654-25.509-33.165-29.006L232.24,419.57a.415.415,0,0,1-.311.238c-.153.025-15.55,2.546-31.609,3.921-21.687,1.857-34.212.823-37.226-3.072-6.454-8.34-14.288-28.673-15.547-32l-25.168,14.7,32.064,34.408a.415.415,0,0,1,.054.493l-9.433,16a.415.415,0,0,1-.358.2M177.635,321.6l.021,6.776a.415.415,0,0,1-.376.414c-.255.024-25.642,2.441-37.724,8.524-6.128,3.086-19.875,13.73-32.688,25.311-15.075,13.626-24.742,24.706-26.523,30.4-1.76,5.629.428,12.4,6.5,20.124a102.811,102.811,0,0,0,17.723,16.9c10.067,7.814,36.622,21.71,39.977,23.455l9.076-15.4-32.206-34.56a.415.415,0,0,1,.094-.641l26.04-15.211a.415.415,0,0,1,.6.214c.086.232,8.671,23.292,15.6,32.243,1.946,2.514,9.858,5.034,36.495,2.753,14.986-1.283,29.4-3.566,31.331-3.878l8.278-18.315a.415.415,0,0,1,.672-.122c.259.26,26.029,26.007,33.34,29.258,4.971,2.21,12.1,1.524,16.961-1.632a11.1,11.1,0,0,0,5.436-9.5c0-10.507-6-70.531-6.538-75.941l-22.712.693.713,36.714a.415.415,0,0,1-.753.248c-.26-.367-26.125-36.737-32.221-40.685s-31.057-9.434-31.308-9.489a.414.414,0,0,1-.326-.4L203,322.9Z" transform="translate(-78.927 -267.527)"/>
        <path id="Trazado_209739" data-name="Trazado 209739" d="M713.524,261.4H698.359a.581.581,0,0,1-.581-.581v-24.1a.581.581,0,0,1,.581-.581h15.165a.581.581,0,0,1,.581.581v24.1a.581.581,0,0,1-.581.581m-14.585-1.161h14V237.3h-14Z" transform="translate(-595.094 -196.958)"/>
        <path id="Trazado_209740" data-name="Trazado 209740" d="M285.125,1136.666S311.556,956.081,319.3,942.907s16.219-26.645,16.219-26.645l71.537,2.9s18.826,44.728,18.826,74.144-20.274,151.763-20.274,151.763l-46.629,1.738,6.372-154.659L330.6,1145.064Z" transform="translate(-250.911 -764.229)" fill="#ffb6c8"/>
        <path id="Trazado_209741" data-name="Trazado 209741" d="M723.762,927.219l-11.275,61.592-47.473,10.7,16.769-74Z" transform="translate(-567.766 -771.947)" fill="#ffb6c8"/>
        <path id="Trazado_209742" data-name="Trazado 209742" d="M319.3,942.907c-7.745,13.174-34.176,193.758-34.176,193.758l45.471,8.4,34.755-152.921L358.979,1146.8l46.629-1.738s20.274-122.346,20.274-151.763-18.826-74.144-18.826-74.144l-71.537-2.9s-8.474,13.472-16.219,26.645" transform="translate(-250.911 -764.229)" fill="none"/>
        <path id="Trazado_209743" data-name="Trazado 209743" d="M579.628,462.428s7.922-20.347,5.953-37.768-7.152-46.239-11.214-48.578l-9.219-2.9s4.067,9.384,2.831,32.742l-43.943-2.216-9.6-35.45L501.756,370.6s9.737,25.229,9.108,41.112-7.329,24.278-10.34,25.849-8.319-6.115-8.319-6.115,4.891,22.246,15.921,28.438Z" transform="translate(-423.632 -307.156)" fill="#ffb6c8"/>
        <path id="Trazado_209744" data-name="Trazado 209744" d="M485,701.758a.415.415,0,0,1-.2-.776l9.381-5.3a.415.415,0,1,1,.408.722l-9.381,5.3a.413.413,0,0,1-.2.054" transform="translate(-417.279 -580.203)" fill="#fff"/>
        <path id="Trazado_209745" data-name="Trazado 209745" d="M252.6,750.915a.414.414,0,0,1-.309-.138c-.1-.113-10.149-11.279-16.452-12.946a.415.415,0,1,1,.212-.8c6.543,1.73,16.44,12.727,16.858,13.194a.415.415,0,0,1-.309.692" transform="translate(-209.549 -614.724)" fill="#fff"/>
        <path id="Trazado_209746" data-name="Trazado 209746" d="M444.956,479.82a.581.581,0,0,1-.515-.31L430.4,452.847a.581.581,0,0,1,1.028-.541l14.041,26.663a.581.581,0,0,1-.513.851" transform="translate(-372.026 -376.998)"/>
        <path id="Trazado_209747" data-name="Trazado 209747" d="M1211.746,693.829a.58.58,0,0,1-.58-.569l-.569-27.592a.582.582,0,0,1,.569-.593.576.576,0,0,1,.592.569l.569,27.593a.58.58,0,0,1-.569.592h-.012" transform="translate(-1022.822 -554.721)"/>
        <path id="Trazado_209748" data-name="Trazado 209748" d="M1176.109,754.182a.581.581,0,0,1-.466-.926l5.775-7.8a.581.581,0,1,1,.933.691l-5.775,7.8a.58.58,0,0,1-.468.235" transform="translate(-993.573 -621.565)"/>
        <path id="Trazado_209749" data-name="Trazado 209749" d="M611.2,592.128h9.735a1.53,1.53,0,0,0,1.5-1.854l-3.823-17.664a1.53,1.53,0,0,0-1.5-1.207H607.38a1.53,1.53,0,0,0-1.5,1.854l3.823,17.664a1.53,1.53,0,0,0,1.5,1.207" transform="translate(-518.418 -476.592)" fill="#ffb6c8"/>
        <path id="Trazado_209750" data-name="Trazado 209750" d="M961.144,596.551h9.719a1.72,1.72,0,0,0,1.679-2.094l-4.15-18.631H955.149l4.317,19.379a1.72,1.72,0,0,0,1.679,1.346" transform="translate(-809.76 -480.281)" fill="#ffb6c8"/>
        <path id="Trazado_209751" data-name="Trazado 209751" d="M944.306,540.106c.051,0,.1,0,.152-.006l11.925-.874a2.041,2.041,0,0,0,1.885-2.183l-.432-5.9a2.04,2.04,0,0,0-2.183-1.885l-11.926.874a2.042,2.042,0,0,0-1.885,2.183l.433,5.9a2.04,2.04,0,0,0,2.031,1.891m11.5-9.524a.712.712,0,0,1,.709.66l.433,5.9a.713.713,0,0,1-.658.763l-11.926.874a.713.713,0,0,1-.762-.658l-.432-5.9a.713.713,0,0,1,.658-.763l11.925-.874.053,0m1.8,6.51h0Z" transform="translate(-798.657 -441.436)" fill="#fff"/>
        <path id="Trazado_209752" data-name="Trazado 209752" d="M590.428,534.223a2.111,2.111,0,0,0,.241-.014l12.116-1.41a2.055,2.055,0,0,0,1.8-2.276l-.681-5.849a2.052,2.052,0,0,0-2.276-1.8l-12.116,1.41a2.052,2.052,0,0,0-1.8,2.276l.681,5.849a2.053,2.053,0,0,0,2.034,1.815m12.84-3.546h0a.725.725,0,0,1-.636.8l-12.116,1.41a.725.725,0,0,1-.8-.636l-.681-5.85a.724.724,0,0,1,.636-.8l12.116-1.41a.725.725,0,0,1,.8.636Z" transform="translate(-503.28 -436.102)" fill="#fff"/>
        <path id="Trazado_209753" data-name="Trazado 209753" d="M657.564,67.187,647.035,54.022,648.82,43.99s7.063-9.616,5.486-21.185S642.882,1.452,631.676.147s-24.2,6.227-26.943,17.818.251,21.456,5.281,25.2L609.4,53.954l-10.93,7.6Z" transform="translate(-512.26 0)" fill="#ffd4de"/>
        <path id="Trazado_209754" data-name="Trazado 209754" d="M696.1,35.384c-1.086,13.084-13.291,25.944-25.085,23.631S651.712,44.382,654.239,31.5,671.856,10,679.276,10.862c5.359.624,17.916,11.389,16.826,24.522" transform="translate(-558.371 -9.01)"/>
        <path id="Trazado_209755" data-name="Trazado 209755" d="M653.644,67.187,643.115,54.022,644.9,43.99s7.062-9.616,5.486-21.185S638.962,1.452,627.756.147s-24.2,6.227-26.943,17.818.251,21.456,5.281,25.2l-.62,10.791L593.765,62.1s6.835.014,13.586,9.674c7.01,10.032,22.327,23.718,31.2,23.894,14.2.281,15.091-28.477,15.091-28.477" transform="translate(-508.339 0)" fill="#5774cd"/>
        <path id="Trazado_209756" data-name="Trazado 209756" d="M739.522,274.983a.245.245,0,0,1-.092-.457l28.326-16.011a.245.245,0,0,1,.241.427l-28.326,16.011a.243.243,0,0,1-.149.03" transform="translate(-629.731 -215.594)" fill="#fff"/>
        <path id="Trazado_209757" data-name="Trazado 209757" d="M738.718,274.317l-.048,0a.411.411,0,0,1-.155-.766l28.326-16.011a.411.411,0,0,1,.4.716L738.92,274.264a.411.411,0,0,1-.2.053m28.325-16.5a.08.08,0,0,0-.039.01l-28.326,16.011a.079.079,0,0,0-.03.108.079.079,0,0,0,.06.039h0a.076.076,0,0,0,.048-.01l28.326-16.011a.08.08,0,0,0,.03-.108.079.079,0,0,0-.069-.04" transform="translate(-628.898 -214.761)" fill="#fff"/>
        <path id="Trazado_209758" data-name="Trazado 209758" d="M681.951,264.879a.253.253,0,0,1-.059-.014l-15.139-5.733a.245.245,0,0,1,.173-.458l15.139,5.733a.245.245,0,0,1-.115.473" transform="translate(-569.085 -215.74)" fill="#fff"/>
        <path id="Trazado_209759" data-name="Trazado 209759" d="M677.15,329.849a.237.237,0,0,1-.067-.018l-21.3-9.027a.245.245,0,1,1,.191-.451l21.3,9.027a.245.245,0,0,1-.124.469" transform="translate(-559.941 -267.182)" fill="#fff"/>
        <path id="Trazado_209760" data-name="Trazado 209760" d="M676.343,329.182a.386.386,0,0,1-.047,0,.409.409,0,0,1-.112-.03l-21.3-9.028a.411.411,0,0,1-.218-.538.413.413,0,0,1,.538-.218l21.3,9.028a.41.41,0,0,1,.218.539.414.414,0,0,1-.379.25m-21.3-9.517a.078.078,0,0,0-.073.049.077.077,0,0,0,0,.06.078.078,0,0,0,.042.043l21.3,9.027a.082.082,0,0,0,.021.006h0a.08.08,0,0,0,.082-.048.079.079,0,0,0-.042-.1l-21.3-9.027a.08.08,0,0,0-.031-.006" transform="translate(-559.107 -266.348)" fill="#fff"/>
        <path id="Trazado_209761" data-name="Trazado 209761" d="M617.445,344.9a.245.245,0,0,1-.078-.464l46.1-22.2a.245.245,0,1,1,.213.441l-46.1,22.2a.243.243,0,0,1-.134.023" transform="translate(-527.91 -268.743)" fill="#fff"/>
        <path id="Trazado_209762" data-name="Trazado 209762" d="M616.639,344.235l-.047,0h0a.411.411,0,0,1-.131-.778l46.1-22.2a.411.411,0,0,1,.566.506.409.409,0,0,1-.21.234l-46.1,22.2a.409.409,0,0,1-.179.041m-.009-.333a.077.077,0,0,0,.043-.007l46.1-22.2a.076.076,0,0,0,.04-.045.077.077,0,0,0,0-.06.079.079,0,0,0-.106-.036l-46.1,22.2a.077.077,0,0,0-.04.045.079.079,0,0,0,.066.1" transform="translate(-527.075 -267.912)" fill="#fff"/>
        <path id="Trazado_209763" data-name="Trazado 209763" d="M600.813,17.964c-2.743,11.591.251,21.456,5.281,25.2l-.62,10.791L593.765,62.1s6.835.014,13.586,9.674c7.01,10.031,22.327,23.717,31.2,23.893,14.2.281,15.091-28.477,15.091-28.477L643.115,54.022,644.9,43.989s7.062-9.616,5.486-21.185S638.962,1.452,627.756.147A22.13,22.13,0,0,0,625.2,0c-10.547,0-21.846,7.247-24.383,17.964" transform="translate(-508.339 0)" fill="none"/>
        <path id="Trazado_209764" data-name="Trazado 209764" d="M651.442,46.248c-.384,13.124,9.043,24.047,21.056,24.4s22.063-10,22.448-23.125-9.043-24.047-21.056-24.4-22.063,10-22.448,23.125" transform="translate(-556.437 -19.278)" fill="#efa466"/>
        <path id="Trazado_209765" data-name="Trazado 209765" d="M672.636,138.144s-5.753-10.707-15.147-3.153c0,0,5.023,11.445,15.147,3.153" transform="translate(-561.49 -110.342)" fill="#fff"/>
        <path id="Trazado_209766" data-name="Trazado 209766" d="M767.775,182.779a.231.231,0,0,0,.184-.379l-2.474-2.95a.232.232,0,0,0-.163-.082.23.23,0,0,0-.171.061l-2.666,2.473a.231.231,0,1,0,.314.338l2.488-2.308,2.318,2.765a.231.231,0,0,0,.17.082" transform="translate(-649.003 -149.606)"/>
        <path id="Trazado_209767" data-name="Trazado 209767" d="M766.948,182.111h-.012a.4.4,0,0,1-.292-.141l-2.206-2.631-2.36,2.189a.4.4,0,1,1-.539-.582l2.666-2.472a.392.392,0,0,1,.293-.105.4.4,0,0,1,.28.14l2.475,2.951a.4.4,0,0,1-.3.652m0-.332a.065.065,0,0,0,.052-.107l-2.474-2.95a.066.066,0,0,0-.046-.023.064.064,0,0,0-.048.017l-2.666,2.473a.065.065,0,0,0,0,.092.062.062,0,0,0,.045.021.069.069,0,0,0,.047-.018l2.488-2.307a.166.166,0,0,1,.24.015l2.318,2.764a.065.065,0,0,0,.048.023" transform="translate(-648.168 -148.772)"/>
        <path id="Trazado_209768" data-name="Trazado 209768" d="M680.1,107.593a.231.231,0,0,0,.1-.019,9.122,9.122,0,0,1,8.328.231.231.231,0,0,0,.256-.384,9.418,9.418,0,0,0-8.769-.27.231.231,0,0,0,.086.442" transform="translate(-580.166 -88.6)"/>
        <path id="Trazado_209769" data-name="Trazado 209769" d="M687.823,107.172a.392.392,0,0,1-.218-.066,8.983,8.983,0,0,0-8.17-.217.377.377,0,0,1-.17.033.4.4,0,0,1-.352-.238.4.4,0,0,1,.2-.522,9.574,9.574,0,0,1,8.928.284.4.4,0,0,1-.222.726m-4.418-1.478a8.519,8.519,0,0,1,4.384,1.136.065.065,0,0,0,.071-.109,9.227,9.227,0,0,0-8.61-.256.066.066,0,0,0-.034.036.064.064,0,0,0,0,.049.065.065,0,0,0,.058.039h0a.068.068,0,0,0,.028-.005,10.182,10.182,0,0,1,4.1-.89" transform="translate(-579.331 -87.763)"/>
        <path id="Trazado_209770" data-name="Trazado 209770" d="M823.672,111.2a.231.231,0,0,0,.132-.037,9.369,9.369,0,0,1,8.449-.206.231.231,0,0,0,.183-.424,9.656,9.656,0,0,0-8.885.243.231.231,0,0,0,.12.424" transform="translate(-699.911 -91.414)"/>
        <path id="Trazado_209771" data-name="Trazado 209771" d="M822.846,110.541h-.012a.4.4,0,0,1-.207-.728,9.833,9.833,0,0,1,9.042-.256.4.4,0,0,1,.206.522.4.4,0,0,1-.521.206,9.234,9.234,0,0,0-8.293.192.4.4,0,0,1-.216.064m0-.332a.065.065,0,0,0,.037-.011,9.5,9.5,0,0,1,8.605-.219.066.066,0,0,0,.085-.034.064.064,0,0,0,0-.049.064.064,0,0,0-.034-.036,9.486,9.486,0,0,0-8.729.23.065.065,0,0,0,.034.119" transform="translate(-699.079 -90.586)"/>
        <path id="Trazado_209772" data-name="Trazado 209772" d="M814.795,145.7s6.48-10.09,15.313-1.617c0,0-5.8,10.9-15.313,1.617" transform="translate(-692.695 -117.347)" fill="#fff"/>
        <path id="Trazado_209773" data-name="Trazado 209773" d="M740.692,234.1s4.091-3.079,13.252-1.026c0,0-5.882,5.922-13.252,1.026" transform="translate(-630.888 -193.815)" fill="#ee2700"/>
        <path id="Trazado_209774" data-name="Trazado 209774" d="M679.983,23.122c9.083.266,16.683,6.577,19.687,15.311-18.857-1.783-25.6-11.71-25.6-11.71-.934,6-10.461,10.508-15.329,12.44,3.05-9.567,11.5-16.326,21.247-16.041" transform="translate(-562.53 -19.278)"/>
        <path id="Trazado_209775" data-name="Trazado 209775" d="M736.76,234.218c-1.521,0-2.593-.035-2.742-.04a.249.249,0,0,1-.24-.257.253.253,0,0,1,.257-.24c.129,0,12.931.423,15.016-1.7a.249.249,0,0,1,.355.349c-1.619,1.646-8.668,1.886-12.647,1.886" transform="translate(-625.12 -193.429)"/>
        <path id="Trazado_209777" data-name="Trazado 209777" d="M672.356,132.648a4.415,4.415,0,1,0,4.415-4.415,4.415,4.415,0,0,0-4.415,4.415" transform="translate(-572.902 -106.188)"/>
        <path id="Trazado_210036" data-name="Trazado 210036" d="M672.356,132.564a4.331,4.331,0,1,0,4.331-4.331,4.331,4.331,0,0,0-4.331,4.331" transform="translate(-546.457 -104.889)"/>
        <g id="Grupo_983731" data-name="Grupo 983731" transform="translate(62.349 158.475)">
          <path id="Trazado_209785" data-name="Trazado 209785" d="M448.61,1049.417l2.421,5.17-2.261,6.8-1.44-1.108s-2.7-2.759-2.542-4.843,3.822-6.016,3.822-6.016" transform="translate(-444.218 -1034.104)" fill="#efa466"/>
          <path id="Trazado_209786" data-name="Trazado 209786" d="M468.189,945.174a19.741,19.741,0,0,1,1.364-3.353,6.254,6.254,0,0,1,8.555-2.623l8.227,4.48a1.893,1.893,0,0,1,.594,2.818,3.424,3.424,0,0,1-4.175,1.02l-5.742-2.606Z" transform="translate(-464.395 -938.432)" fill="#efa466"/>
          <path id="Trazado_209787" data-name="Trazado 209787" d="M451.647,986.733l-.388-3.7a3.591,3.591,0,0,1,.174-1.564,5.973,5.973,0,0,1,4.842-3.937L458,977.3a7.809,7.809,0,0,1,6.651,2.313l5.195,5.368c2.507,2.594-.524,4.873-3.439,4.162a6.274,6.274,0,0,1-.862-.276c-2.487-1.007-6.636-5.279-6.636-5.279Z" transform="translate(-449.784 -971.877)" fill="#efa466"/>
          <path id="Trazado_209788" data-name="Trazado 209788" d="M446.586,1011.939s.493-5.1,1.9-6.43a5.7,5.7,0,0,1,8.211.314l5.626,6.44a1.781,1.781,0,0,1-.4,2.651,3.217,3.217,0,0,1-1.876.521,3.089,3.089,0,0,1-2.047-.9l-4.1-4.038Z" transform="translate(-445.773 -994.879)" fill="#efa466"/>
          <path id="Trazado_209789" data-name="Trazado 209789" d="M441.535,1039.034c1.7-2.686,4.958-3.11,6.868-1.17l5.1,5.178a1.954,1.954,0,0,1-.17,2.619,2.851,2.851,0,0,1-1.532.837,2.125,2.125,0,0,1-1.764-.5l-2.525-2.4c-3.577-3.067-2.642-.922-5.378,3.512,0,0-2.785-4.621-.6-8.071" transform="translate(-440.695 -1023.11)" fill="#efa466"/>
          <path id="Trazado_209790" data-name="Trazado 209790" d="M574.059,975.8a3.57,3.57,0,0,1-1.494-.357c-1.279-.6-1.979-1.713-1.595-2.53s1.688-.985,2.966-.383a3.406,3.406,0,0,1,1.389,1.141,1.268,1.268,0,0,1-1,2.115,2.6,2.6,0,0,1-.271.014m-1.621-3.213a1.139,1.139,0,0,0-1.093.5c-.276.587.363,1.493,1.4,1.979a2.989,2.989,0,0,0,1.545.306.864.864,0,0,0,.694-1.475,2.989,2.989,0,0,0-1.221-1,3.176,3.176,0,0,0-1.322-.316" transform="translate(-552.904 -967.517)"/>
          <rect id="Rectángulo_338711" data-name="Rectángulo 338711" width="4.771" height="3.632" transform="translate(17.961 4.655)" fill="none"/>
          <path id="Trazado_209791" data-name="Trazado 209791" d="M557.314,1030.967c-.058,0-.117,0-.177-.006a3.649,3.649,0,0,1-3.056-2.476,1.688,1.688,0,0,1,1.848-2.28,3.443,3.443,0,0,1,1.89.792c1.208.979,1.614,2.487.9,3.362a1.753,1.753,0,0,1-1.409.608m-1.561-4.354a1.353,1.353,0,0,0-1.089.455,1.408,1.408,0,0,0-.184,1.3,3.24,3.24,0,0,0,2.686,2.177,1.41,1.41,0,0,0,1.237-.45c.565-.7.187-1.945-.844-2.78a3.025,3.025,0,0,0-1.658-.7q-.075,0-.148-.005m2.81,3.615h0Z" transform="translate(-538.357 -1014.089)"/>
          <rect id="Rectángulo_338712" data-name="Rectángulo 338712" width="5.084" height="4.769" transform="translate(15.632 12.109)" fill="none"/>
          <path id="Trazado_209792" data-name="Trazado 209792" d="M530.487,1055.011a2.309,2.309,0,0,1-.367-.03,3.414,3.414,0,0,1-2.655-2.614,1.636,1.636,0,0,1,1.981-2.011,3.223,3.223,0,0,1,1.716.913c1.05,1.033,1.285,2.5.525,3.274a1.641,1.641,0,0,1-1.2.468m-1.407-4.271a1.238,1.238,0,0,0-.906.345,1.344,1.344,0,0,0-.3,1.211,3,3,0,0,0,2.313,2.277,1.344,1.344,0,0,0,1.206-.32c.6-.609.366-1.816-.521-2.689a2.81,2.81,0,0,0-1.491-.8,1.9,1.9,0,0,0-.3-.025m2.459,3.658h0Z" transform="translate(-515.461 -1034.888)"/>
          <rect id="Rectángulo_338713" data-name="Rectángulo 338713" width="4.703" height="4.686" transform="translate(11.967 15.439)" fill="none"/>
          <path id="Trazado_209793" data-name="Trazado 209793" d="M506.151,1075.895a3.133,3.133,0,0,1-2.1-.968,3.36,3.36,0,0,1-.958-1.667,1.625,1.625,0,0,1,.357-1.519c.715-.727,2.149-.479,3.195.551s1.316,2.46.6,3.186a1.492,1.492,0,0,1-1.092.417m-1.606-4.166a1.1,1.1,0,0,0-.8.3,1.228,1.228,0,0,0-.247,1.145,2.945,2.945,0,0,0,.843,1.456c.884.87,2.055,1.119,2.61.556s.288-1.731-.6-2.6a2.736,2.736,0,0,0-1.807-.858m2.551,3.6h0Z" transform="translate(-494.439 -1052.987)"/>
          <rect id="Rectángulo_338714" data-name="Rectángulo 338714" width="4.602" height="4.573" transform="translate(8.602 18.335)" fill="none"/>
          <path id="Trazado_209794" data-name="Trazado 209794" d="M457.811,1045.032a.12.12,0,0,0,.1-.035,2.082,2.082,0,0,0,.17-2.788l-5.1-5.178a4.126,4.126,0,0,0-3.4-1.213,5.018,5.018,0,0,0-3.658,2.4.12.12,0,0,0,.2.129,4.781,4.781,0,0,1,3.481-2.293,3.838,3.838,0,0,1,3.2,1.142l5.1,5.178a1.833,1.833,0,0,1-.17,2.45.12.12,0,0,0,0,.17.118.118,0,0,0,.073.034" transform="translate(-445.191 -1022.361)"/>
          <path id="Trazado_209795" data-name="Trazado 209795" d="M456.96,1044.309h-.026a.258.258,0,0,1-.158-.438,1.69,1.69,0,0,0,.169-2.256l-5.1-5.178a3.7,3.7,0,0,0-3.087-1.1,4.646,4.646,0,0,0-3.379,2.229.258.258,0,0,1-.47-.082.255.255,0,0,1,.034-.194,5.156,5.156,0,0,1,3.76-2.466,4.267,4.267,0,0,1,3.509,1.253l5.1,5.178a2.225,2.225,0,0,1-.17,2.982.258.258,0,0,1-.184.076" transform="translate(-444.327 -1021.499)"/>
          <path id="Trazado_209796" data-name="Trazado 209796" d="M466.741,1011.546a.12.12,0,0,0,.1-.2l-5.626-6.44a6.122,6.122,0,0,0-5.507-1.872,5.2,5.2,0,0,0-3.984,3.7.12.12,0,1,0,.226.081,4.971,4.971,0,0,1,3.8-3.548,5.87,5.87,0,0,1,5.281,1.794l5.626,6.44a.119.119,0,0,0,.079.04" transform="translate(-450.199 -994.043)"/>
          <path id="Trazado_209797" data-name="Trazado 209797" d="M465.891,1010.826h-.025a.257.257,0,0,1-.169-.087l-5.626-6.44a5.726,5.726,0,0,0-5.152-1.749,4.84,4.84,0,0,0-3.7,3.459.258.258,0,1,1-.486-.174,5.33,5.33,0,0,1,4.088-3.793,6.264,6.264,0,0,1,5.637,1.917l5.626,6.44a.258.258,0,0,1-.195.428" transform="translate(-449.337 -993.184)"/>
          <path id="Trazado_209798" data-name="Trazado 209798" d="M467.425,977.955a.12.12,0,0,0,.057-.008,24.141,24.141,0,0,1,4.4-1.312,7.52,7.52,0,0,1,6.549,2.278.12.12,0,1,0,.173-.167,7.754,7.754,0,0,0-6.754-2.349,23.86,23.86,0,0,0-4.454,1.327.12.12,0,0,0,.033.231" transform="translate(-463.643 -971.094)"/>
          <path id="Trazado_209799" data-name="Trazado 209799" d="M477.652,978.224h0a.257.257,0,0,1-.181-.079,7.385,7.385,0,0,0-6.431-2.237,24.287,24.287,0,0,0-4.363,1.3.258.258,0,1,1-.193-.479,24.128,24.128,0,0,1,4.488-1.336,7.888,7.888,0,0,1,6.871,2.39.258.258,0,0,1-.186.438" transform="translate(-462.782 -970.231)"/>
        </g>
        <path id="Trazado_209800" data-name="Trazado 209800" d="M584.28,900.164a.581.581,0,0,1-.406-1c.66-.648,1.707-1.988,1.707-2.825a10.525,10.525,0,0,0-.8-3.155.581.581,0,0,1,1.069-.454,11.486,11.486,0,0,1,.89,3.609c0,1.595-1.845,3.448-2.056,3.654a.579.579,0,0,1-.406.166" transform="translate(-499.944 -744.31)"/>
        <path id="Trazado_209801" data-name="Trazado 209801" d="M615.7,900.6a.581.581,0,0,1-.434-.967,5.4,5.4,0,0,0,1.365-2.8,12.475,12.475,0,0,0-.949-3.649.581.581,0,0,1,1.072-.447,13.807,13.807,0,0,1,1.038,4.1,6.618,6.618,0,0,1-1.659,3.574.579.579,0,0,1-.434.195" transform="translate(-526.154 -744.31)"/>
        <path id="Trazado_209802" data-name="Trazado 209802" d="M657.261,904.109a.581.581,0,0,1-.542-.789,12.23,12.23,0,0,0,.763-3.527,18.073,18.073,0,0,0-.682-3.91.581.581,0,0,1,1.115-.324,18.891,18.891,0,0,1,.728,4.234,13.2,13.2,0,0,1-.84,3.943.581.581,0,0,1-.542.373" transform="translate(-560.815 -746.612)"/>
        <path id="Trazado_209803" data-name="Trazado 209803" d="M705.3,906.954a.581.581,0,0,1-.541-.792,13.06,13.06,0,0,0,.847-3.709,14.048,14.048,0,0,0-.758-3.693.581.581,0,0,1,1.1-.386,14.96,14.96,0,0,1,.824,4.08,13.988,13.988,0,0,1-.927,4.131.581.581,0,0,1-.541.37" transform="translate(-600.886 -748.986)"/>
        <path id="Trazado_209804" data-name="Trazado 209804" d="M762.1,906.954l-.047,0a.581.581,0,0,1-.532-.626c0-.022.174-2.169.174-3.773s-.077-3.944-.078-3.968a.581.581,0,0,1,1.161-.039c0,.024.079,2.369.079,4.007s-.17,3.776-.177,3.866a.581.581,0,0,1-.578.534" transform="translate(-648.258 -748.986)"/>
        <path id="Trazado_209805" data-name="Trazado 209805" d="M813.69,906.953h-.007a.581.581,0,0,1-.574-.588l.1-7.807a.581.581,0,0,1,1.161.014l-.1,7.806a.581.581,0,0,1-.58.574" transform="translate(-691.289 -748.985)"/>
        <path id="Trazado_209806" data-name="Trazado 209806" d="M867.366,906.953h-.007a.581.581,0,0,1-.574-.588l.1-7.807a.574.574,0,0,1,.588-.573.581.581,0,0,1,.574.588l-.1,7.806a.581.581,0,0,1-.581.574" transform="translate(-736.058 -748.985)"/>
        <path id="Trazado_209807" data-name="Trazado 209807" d="M913.929,906.953h-.007a.58.58,0,0,1-.573-.588l.1-7.807a.581.581,0,1,1,1.161.014l-.1,7.806a.581.581,0,0,1-.581.574" transform="translate(-774.896 -748.985)"/>
        <path id="Trazado_209808" data-name="Trazado 209808" d="M948.738,906.953a.581.581,0,0,1-.57-.474,13.865,13.865,0,0,1,.1-8.035.581.581,0,0,1,1.136.242,12.833,12.833,0,0,0-.094,7.578.581.581,0,0,1-.571.688" transform="translate(-803.483 -748.985)"/>
        <path id="Trazado_209809" data-name="Trazado 209809" d="M979.481,906.953a.581.581,0,0,1-.558-.419,22.023,22.023,0,0,1-.806-3.774,25.435,25.435,0,0,1,.9-4.352.581.581,0,1,1,1.117.316,24.733,24.733,0,0,0-.858,4.032,21.293,21.293,0,0,0,.76,3.455.581.581,0,0,1-.558.742" transform="translate(-828.917 -748.985)"/>
        <path id="Trazado_209810" data-name="Trazado 209810" d="M1004.563,906.953a.581.581,0,0,1-.544-.376,17.74,17.74,0,0,1-1.055-3.815,20.419,20.419,0,0,1,1.149-4.393.581.581,0,1,1,1.092.394,19.3,19.3,0,0,0-1.079,3.991,16.682,16.682,0,0,0,.98,3.414.581.581,0,0,1-.338.749.588.588,0,0,1-.2.037" transform="translate(-849.642 -748.985)"/>
        <path id="Trazado_209811" data-name="Trazado 209811" d="M890.071,967.047a.581.581,0,0,1-.581-.581V932.841a.581.581,0,0,1,1.162,0v33.626a.581.581,0,0,1-.581.581" transform="translate(-754.996 -777.573)"/>
        <path id="Trazado_209812" data-name="Trazado 209812" d="M882.724,1122.172h.367a2,2,0,0,0,1.995-1.995v-1.785a2,2,0,0,0-1.995-1.995h-.367a2,2,0,0,0-1.995,1.995v1.785a2,2,0,0,0,1.995,1.995" transform="translate(-747.688 -931.156)"/>
        <path id="Trazado_209813" data-name="Trazado 209813" d="M834.112,969.268a.581.581,0,0,1-.581-.581v-40.1a.581.581,0,0,1,1.161,0v40.1a.581.581,0,0,1-.581.581" transform="translate(-708.321 -774.021)"/>
        <path id="Trazado_209814" data-name="Trazado 209814" d="M826.948,1153.826h0a2.179,2.179,0,0,0,2.178-2.179v-2.53a2.178,2.178,0,1,0-4.357,0v2.53a2.178,2.178,0,0,0,2.179,2.179" transform="translate(-701.014 -956.63)"/>
        <path id="Trazado_209815" data-name="Trazado 209815" d="M759.687,1338.548a.55.55,0,0,1-.111-.011.581.581,0,0,1-.459-.681l2.223-11.427a.58.58,0,0,1,.433-.454l15.392-3.735a.581.581,0,1,1,.274,1.129l-15.03,3.647-2.152,11.062a.581.581,0,0,1-.569.47" transform="translate(-646.245 -1102.832)"/>
        <path id="Trazado_209816" data-name="Trazado 209816" d="M325.5,2166.579a.606.606,0,0,1-.1-.008l-43.293-7.152a.581.581,0,0,1,.189-1.146l43.293,7.152a.581.581,0,0,1-.094,1.154" transform="translate(-247.992 -1800.151)"/>
        <path id="Trazado_209817" data-name="Trazado 209817" d="M719.322,2205.285a.581.581,0,0,1-.03-1.161l52.564-2.756a.581.581,0,0,1,.061,1.16l-52.564,2.756h-.031" transform="translate(-612.58 -1836.101)"/>
      </g>
    </g>
  </g>
</svg>
