<svg xmlns="http://www.w3.org/2000/svg" width="297.011" height="100.581" viewBox="0 0 297.011 100.581">
  <g id="Grupo_983725" data-name="Grupo 983725" transform="translate(0 0)">
    <g id="Grupo_157012" data-name="Grupo 157012" transform="translate(49.699 24.85)">
      <path id="Unión_5" data-name="Unión 5" d="M0,75.732V0H207.6l39.708,37.865L207.6,75.732Z" transform="translate(0 0)" fill="#3c3fa7"/>
      <path id="Trazado_128361" data-name="Trazado 128361" d="M-47.886-10.356q0-1.436.066-2.739t.176-2.593q.11-1.289.264-2.585t.33-2.7a1.2,1.2,0,0,1,.439-.879,1.327,1.327,0,0,1,.791-.264,1.037,1.037,0,0,1,.886.586,3.045,3.045,0,0,1,.359,1.6q0,1.333-.037,2.849t-.081,3.04q-.044,1.523-.081,2.988t-.037,2.725q0,.923.029,1.685t.1,1.311a4.55,4.55,0,0,0,.168.857q.1.308.264.308.264,0,.52-.579A11.029,11.029,0,0,0-43.22-6.27q.256-.937.535-2.146t.579-2.461q.3-1.252.645-2.461a19.87,19.87,0,0,1,.732-2.146A6.656,6.656,0,0,1-39.9-17a1.239,1.239,0,0,1,.959-.579,1.106,1.106,0,0,1,.93.623,6.394,6.394,0,0,1,.674,1.641,20.374,20.374,0,0,1,.491,2.322q.205,1.3.374,2.659t.322,2.659q.154,1.3.352,2.322a9.334,9.334,0,0,0,.447,1.641q.249.623.6.623.264,0,.432-.344a3.573,3.573,0,0,0,.271-.945,11.56,11.56,0,0,0,.139-1.4q.037-.8.051-1.707t.007-1.868q-.007-.959-.007-1.882,0-2.358.037-4.673t.037-4.658a3.357,3.357,0,0,1,.051-.52,2.734,2.734,0,0,1,.168-.6,1.479,1.479,0,0,1,.322-.491.7.7,0,0,1,.513-.205,1.221,1.221,0,0,1,.674.2,2.071,2.071,0,0,1,.535.5,3.071,3.071,0,0,1,.381.667,3.268,3.268,0,0,1,.212.7A15.015,15.015,0,0,1-30.74-18.1q.022,1.267-.015,2.622t-.1,2.7q-.059,1.34-.059,2.424t-.051,2.336q-.051,1.252-.2,2.483a22.242,22.242,0,0,1-.41,2.373,8.839,8.839,0,0,1-.71,2.021,4.217,4.217,0,0,1-1.091,1.4,2.373,2.373,0,0,1-1.538.52A2.359,2.359,0,0,1-36.4.286a4.1,4.1,0,0,1-1.069-1.3,8.145,8.145,0,0,1-.71-1.838,20.04,20.04,0,0,1-.432-2.1q-.161-1.069-.234-2.1t-.125-1.838q-.051-.806-.088-1.3t-.125-.491q-.088,0-.212.483t-.293,1.267q-.168.784-.4,1.794t-.535,2.058q-.308,1.047-.7,2.058a10.407,10.407,0,0,1-.879,1.794A5.113,5.113,0,0,1-43.279.044,2.046,2.046,0,0,1-44.6.527a1.805,1.805,0,0,1-1.384-.615,4.846,4.846,0,0,1-.93-1.589,11.452,11.452,0,0,1-.564-2.19q-.2-1.216-.286-2.424t-.1-2.292Q-47.886-9.668-47.886-10.356Zm28.623,8.584a3.4,3.4,0,0,1,.044,1.025,2.047,2.047,0,0,1-.212.718,1.074,1.074,0,0,1-.388.417.96.96,0,0,1-.5.139.871.871,0,0,1-.608-.234,2.016,2.016,0,0,1-.432-.579,4.247,4.247,0,0,1-.293-.747q-.117-.4-.205-.747t-.154-.579q-.066-.234-.154-.234a.589.589,0,0,0-.388.212,5.634,5.634,0,0,0-.461.535q-.249.322-.549.7a5.324,5.324,0,0,1-.674.7,3.586,3.586,0,0,1-.828.535,2.322,2.322,0,0,1-1,.212,2.4,2.4,0,0,1-1.362-.41,3.667,3.667,0,0,1-1.055-1.1A5.673,5.673,0,0,1-29.158-2.8a7.094,7.094,0,0,1-.242-1.86,9.246,9.246,0,0,1,.19-1.794,11.857,11.857,0,0,1,.549-1.9,10.556,10.556,0,0,1,.894-1.809,7.76,7.76,0,0,1,1.23-1.531,5.7,5.7,0,0,1,1.545-1.062,4.319,4.319,0,0,1,1.846-.4,3.329,3.329,0,0,1,1.406.271,2.878,2.878,0,0,1,.989.74,3.7,3.7,0,0,1,.645,1.1,7.54,7.54,0,0,1,.374,1.355,12.262,12.262,0,0,1,.176,1.5q.044.776.044,1.538t.022,1.479q.022.732.051,1.384t.081,1.172Q-19.307-2.095-19.263-1.772Zm-7.222-2.314A2.026,2.026,0,0,0-26.243-3q.242.381.447.381A1.325,1.325,0,0,0-25-2.915a4.258,4.258,0,0,0,.776-.769,7.67,7.67,0,0,0,.71-1.069,11.634,11.634,0,0,0,.579-1.194,9.61,9.61,0,0,0,.4-1.135,3.52,3.52,0,0,0,.146-.9q0-.015-.007-.161t-.037-.359q-.029-.212-.088-.461a1.932,1.932,0,0,0-.176-.469A1.125,1.125,0,0,0-23-9.792a.663.663,0,0,0-.425-.139,1.185,1.185,0,0,0-.754.308,3.7,3.7,0,0,0-.71.813,8.53,8.53,0,0,0-.63,1.135,11.444,11.444,0,0,0-.505,1.282,11.562,11.562,0,0,0-.337,1.26A5.334,5.334,0,0,0-26.484-4.087Zm8.408,3.34a3.979,3.979,0,0,1-.1-.71q-.044-.52-.066-1.23t-.029-1.531q-.007-.82-.007-1.6t.007-1.443q.007-.667.007-1.062a8.491,8.491,0,0,1,.073-1.04,4.885,4.885,0,0,1,.264-1.1,2.765,2.765,0,0,1,.505-.872,1.032,1.032,0,0,1,.813-.359.784.784,0,0,1,.579.2,1.492,1.492,0,0,1,.308.439q.11.242.183.439t.22.2a.6.6,0,0,0,.352-.22q.205-.205.469-.447a4.412,4.412,0,0,1,.593-.454,3.648,3.648,0,0,1,.732-.359,2.576,2.576,0,0,1,.886-.146,2.7,2.7,0,0,1,1.15.242,2.8,2.8,0,0,1,.886.637,2.969,2.969,0,0,1,.571.894,2.633,2.633,0,0,1,.205,1.011,3.292,3.292,0,0,1-.044.542,1.482,1.482,0,0,1-.161.476.928.928,0,0,1-.33.344,1.06,1.06,0,0,1-.564.132.954.954,0,0,1-.667-.2A2.051,2.051,0,0,1-11.6-8.4a3.367,3.367,0,0,0-.315-.439.646.646,0,0,0-.52-.2,1.519,1.519,0,0,0-1.084.549,5.1,5.1,0,0,0-.93,1.436A10.131,10.131,0,0,0-15.1-5.032a10.8,10.8,0,0,0-.249,2.322,6.96,6.96,0,0,1-.117,1.377,3.277,3.277,0,0,1-.322.938,1.4,1.4,0,0,1-.469.527,1.076,1.076,0,0,1-.571.161A1.034,1.034,0,0,1-17.3.19a1.369,1.369,0,0,1-.359-.256A1.538,1.538,0,0,1-17.915-.4,2.367,2.367,0,0,1-18.076-.747Zm9.3-9.023a2.366,2.366,0,0,1,.117-.667,3.058,3.058,0,0,1,.337-.74,2.278,2.278,0,0,1,.542-.6,1.166,1.166,0,0,1,.732-.249,1.155,1.155,0,0,1,.608.139.874.874,0,0,1,.344.4,1.96,1.96,0,0,1,.146.645q.029.381.029.85,0,.894.278.894.146,0,.293-.22l.615-.923a6.833,6.833,0,0,1,.82-1,4.693,4.693,0,0,1,1.077-.813,2.838,2.838,0,0,1,1.4-.337,2.087,2.087,0,0,1,1.274.359,2.236,2.236,0,0,1,.74,1.025A5.43,5.43,0,0,1,.894-9.4a15.051,15.051,0,0,1-.029,2.08q-.073.981-.088,2.5t.117,3.75a1.776,1.776,0,0,1-.022.417,1.4,1.4,0,0,1-.139.425A1.123,1.123,0,0,1,.469.11a.605.605,0,0,1-.41.139A1.667,1.667,0,0,1-1.15-.168a2.621,2.621,0,0,1-.645-1,4.534,4.534,0,0,1-.264-1.187q-.051-.608-.051-.974,0-.645.051-1.157t.1-1q.051-.483.1-.959A9.677,9.677,0,0,0-1.8-7.471a6.734,6.734,0,0,0-.037-.784,2,2,0,0,0-.1-.469.5.5,0,0,0-.146-.227.265.265,0,0,0-.154-.059,1,1,0,0,0-.579.337,7.547,7.547,0,0,0-.769.864Q-4-7.28-4.424-6.643T-5.2-5.42a3.393,3.393,0,0,0-.256.586q-.1.293-.125.425a4.825,4.825,0,0,0-.044.725v.945q0,.5-.022,1a5.027,5.027,0,0,1-.117.916,1.957,1.957,0,0,1-.271.667.569.569,0,0,1-.5.256h-.293A1.356,1.356,0,0,1-7.266.022a2.259,2.259,0,0,1-.439-.205,2.16,2.16,0,0,1-.374-.286A1.069,1.069,0,0,1-8.32-.791a4.325,4.325,0,0,1-.242-.974q-.1-.623-.154-1.4T-8.789-4.8Q-8.8-5.669-8.8-6.489q0-1.025.015-1.9T-8.774-9.771ZM2.241-4.189q0-.513-.022-1.362T2.2-7.368q.007-.967.073-1.956a14.651,14.651,0,0,1,.22-1.787,4.327,4.327,0,0,1,.439-1.3.843.843,0,0,1,.74-.505,1.867,1.867,0,0,1,.872.168A1.076,1.076,0,0,1,5-11.982a6.652,6.652,0,0,1,.1.74q.037.447.037,1.077,0,.337.015,1.143t.022,1.831q.007,1.025.015,2.146T5.171-2.93q-.015,1-.059,1.729A5,5,0,0,1,5-.234a.472.472,0,0,1-.234.271A1.734,1.734,0,0,1,4.4.183,1.924,1.924,0,0,1,4.05.249q-.168.015-.227.015a.88.88,0,0,1-.688-.344,2.8,2.8,0,0,1-.491-.952,7.766,7.766,0,0,1-.3-1.421A13.892,13.892,0,0,1,2.241-4.189Zm.293-14.546a2.816,2.816,0,0,1,.11-.8,1.908,1.908,0,0,1,.33-.652,1.48,1.48,0,0,1,.557-.432,1.851,1.851,0,0,1,.776-.154,2.154,2.154,0,0,1,.608.088,1.4,1.4,0,0,1,.535.293,1.529,1.529,0,0,1,.381.527,1.948,1.948,0,0,1,.146.806,2.24,2.24,0,0,1-.161.879,1.74,1.74,0,0,1-.439.63,1.86,1.86,0,0,1-.637.374,2.241,2.241,0,0,1-.74.125,1.5,1.5,0,0,1-.74-.161,1.28,1.28,0,0,1-.447-.4,1.476,1.476,0,0,1-.22-.542A3.021,3.021,0,0,1,2.534-18.735ZM6.65-9.771a2.366,2.366,0,0,1,.117-.667,3.058,3.058,0,0,1,.337-.74,2.278,2.278,0,0,1,.542-.6,1.166,1.166,0,0,1,.732-.249,1.155,1.155,0,0,1,.608.139.874.874,0,0,1,.344.4,1.96,1.96,0,0,1,.146.645q.029.381.029.85,0,.894.278.894.146,0,.293-.22l.615-.923a6.833,6.833,0,0,1,.82-1,4.693,4.693,0,0,1,1.077-.813,2.838,2.838,0,0,1,1.4-.337,2.087,2.087,0,0,1,1.274.359A2.236,2.236,0,0,1,16-11.008a5.43,5.43,0,0,1,.315,1.6,15.051,15.051,0,0,1-.029,2.08q-.073.981-.088,2.5t.117,3.75a1.776,1.776,0,0,1-.022.417,1.4,1.4,0,0,1-.139.425,1.123,1.123,0,0,1-.264.337.605.605,0,0,1-.41.139,1.667,1.667,0,0,1-1.208-.417,2.621,2.621,0,0,1-.645-1,4.534,4.534,0,0,1-.264-1.187q-.051-.608-.051-.974,0-.645.051-1.157t.1-1q.051-.483.1-.959a9.677,9.677,0,0,0,.051-1.033,6.734,6.734,0,0,0-.037-.784,2,2,0,0,0-.1-.469.5.5,0,0,0-.146-.227.265.265,0,0,0-.154-.059,1,1,0,0,0-.579.337,7.547,7.547,0,0,0-.769.864q-.41.527-.835,1.165T10.225-5.42a3.393,3.393,0,0,0-.256.586q-.1.293-.125.425a4.825,4.825,0,0,0-.044.725v.945q0,.5-.022,1a5.027,5.027,0,0,1-.117.916,1.957,1.957,0,0,1-.271.667.569.569,0,0,1-.5.256H8.6A1.356,1.356,0,0,1,8.159.022,2.259,2.259,0,0,1,7.72-.183a2.16,2.16,0,0,1-.374-.286A1.069,1.069,0,0,1,7.1-.791a4.325,4.325,0,0,1-.242-.974q-.1-.623-.154-1.4T6.636-4.8q-.015-.864-.015-1.685,0-1.025.015-1.9T6.65-9.771Zm15.82-2.944a4.473,4.473,0,0,1,.762.059q.337.059.615.132t.483.132a1.35,1.35,0,0,0,.366.059.2.2,0,0,0,.132-.051q.059-.051.139-.117a.98.98,0,0,1,.183-.117.714.714,0,0,1,.249-.066h.117a1.015,1.015,0,0,1,.6.176,1.524,1.524,0,0,1,.417.447,1.941,1.941,0,0,1,.242.579,2.477,2.477,0,0,1,.073.571q0,1.187-.007,2.454t-.015,2.4q-.007,1.128-.015,1.985t-.007,1.208a19.765,19.765,0,0,1-.417,4.4,8.874,8.874,0,0,1-1.165,2.915,4.538,4.538,0,0,1-1.765,1.619,4.981,4.981,0,0,1-2.219.5,4.707,4.707,0,0,1-1.487-.212,3.188,3.188,0,0,1-1.062-.571,2.367,2.367,0,0,1-.637-.82A2.27,2.27,0,0,1,17.842,4a1.22,1.22,0,0,1,.242-.74.728.728,0,0,1,.608-.33.579.579,0,0,1,.491.249q.183.249.4.542a2.668,2.668,0,0,0,.535.542,1.456,1.456,0,0,0,.908.249,2.039,2.039,0,0,0,1.348-.476A3.6,3.6,0,0,0,23.32,2.7,8.272,8.272,0,0,0,23.892.667a16.367,16.367,0,0,0,.19-2.6v-.183a1.5,1.5,0,0,0-.015-.212.769.769,0,0,0-.044-.176q-.029-.073-.088-.073a.983.983,0,0,0-.6.3q-.278.271-.623.579a4.437,4.437,0,0,1-.806.564,2.277,2.277,0,0,1-1.121.256,2.648,2.648,0,0,1-1.516-.439,3.7,3.7,0,0,1-1.091-1.157,5.732,5.732,0,0,1-.667-1.655,8.123,8.123,0,0,1-.227-1.919,8.708,8.708,0,0,1,.344-2.424,7.185,7.185,0,0,1,1-2.139,5.257,5.257,0,0,1,1.626-1.523A4.223,4.223,0,0,1,22.471-12.715ZM20.742-3.794a1.577,1.577,0,0,0,.776-.212,3.306,3.306,0,0,0,.725-.557,5.119,5.119,0,0,0,.637-.784,6.391,6.391,0,0,0,.505-.908,6.359,6.359,0,0,0,.337-.916,3.053,3.053,0,0,0,.125-.813q0-.015-.015-.249a1.7,1.7,0,0,0-.125-.513,1.556,1.556,0,0,0-.337-.513.866.866,0,0,0-.652-.234,1.51,1.51,0,0,0-.989.388,3.5,3.5,0,0,0-.8,1A5.989,5.989,0,0,0,20.4-6.775a5.311,5.311,0,0,0-.2,1.4,3.269,3.269,0,0,0,.168,1.128Q20.537-3.794,20.742-3.794Z" transform="translate(133.899 49.016)" fill="#fff"/>
    </g>
    <g id="alerta" transform="translate(0 0.001)">
      <g id="Grupo_80778" data-name="Grupo 80778" transform="translate(16.5 23.569)">
        <path id="Trazado_114329" data-name="Trazado 114329" d="M62.7,35.865A24.554,24.554,0,0,0,38.148,60.419V97.61h49.1V60.419A24.554,24.554,0,0,0,62.7,35.865Z" transform="translate(-28.91 -35.865)" fill="#e5384f"/>
        <path id="Trazado_114330" data-name="Trazado 114330" d="M50.667,75.138,63.33,65.652,50.667,56.167Z" transform="translate(-29.539 -36.885)" fill="#fdbe00"/>
        <path id="Trazado_114331" data-name="Trazado 114331" d="M64,65.652l12.663,9.485V56.167Z" transform="translate(-30.209 -36.885)" fill="#fdbe00"/>
        <path id="Trazado_114332" data-name="Trazado 114332" d="M33.008,96.442l-4.586,17.816H96L91.419,96.442Z" transform="translate(-28.422 -38.907)" fill="#223b59"/>
      </g>
      <g id="Grupo_80779" data-name="Grupo 80779" transform="translate(0 0)">
        <path id="Trazado_114333" data-name="Trazado 114333" d="M37.573,63.139A1.663,1.663,0,0,0,35.911,64.8v26.85H32.92A1.662,1.662,0,0,0,31.31,92.9l-4.587,17.819a1.663,1.663,0,0,0,1.615,2.076H71.661a1.662,1.662,0,1,0,0-3.324H30.477l3.731-14.494H90.043l3.731,14.494H90.106a1.662,1.662,0,1,0,0,3.324h5.813a1.663,1.663,0,0,0,1.615-2.076L92.941,92.9a1.662,1.662,0,0,0-1.61-1.244H88.339V60.338A26.214,26.214,0,0,0,36.022,58a1.662,1.662,0,1,0,3.308.291,22.89,22.89,0,0,1,45.684,2.049V91.652H63.787V67.87l10,7.495a1.662,1.662,0,0,0,2.659-1.33V55.063a1.662,1.662,0,0,0-2.659-1.33L62.125,62.472,50.458,53.734a1.662,1.662,0,0,0-2.659,1.33V74.034a1.662,1.662,0,0,0,2.659,1.33l10-7.494V91.652H39.236V64.8a1.663,1.663,0,0,0-1.662-1.662Zm35.553-4.755V70.713L64.9,64.549Zm-22,12.328V58.385l8.229,6.164Z" transform="translate(-11.834 -12.212)"/>
        <path id="Trazado_114334" data-name="Trazado 114334" d="M86.118,116.774a1.662,1.662,0,1,0,0-3.324H80.932a1.662,1.662,0,1,0,0,3.324Z" transform="translate(-14.476 -16.193)"/>
        <path id="Trazado_114335" data-name="Trazado 114335" d="M65.574,25.883V12.712a1.662,1.662,0,1,0-3.324,0V25.883a1.662,1.662,0,1,0,3.324,0Z" transform="translate(-13.621 -11.05)"/>
        <path id="Trazado_114336" data-name="Trazado 114336" d="M91.486,38.2l9.313-9.308a1.662,1.662,0,1,0-2.35-2.35l-9.308,9.308a1.662,1.662,0,0,0,2.35,2.35Z" transform="translate(-14.947 -11.803)"/>
        <path id="Trazado_114337" data-name="Trazado 114337" d="M37.02,38.683a1.662,1.662,0,0,0,1.175-2.837l-9.308-9.308a1.662,1.662,0,1,0-2.35,2.35L35.845,38.2A1.655,1.655,0,0,0,37.02,38.683Z" transform="translate(-11.803 -11.803)"/>
        <path id="Trazado_114338" data-name="Trazado 114338" d="M25.883,65.574a1.662,1.662,0,1,0,0-3.324H12.712a1.662,1.662,0,1,0,0,3.324Z" transform="translate(-11.05 -13.621)"/>
        <path id="Trazado_114339" data-name="Trazado 114339" d="M114.416,65.574a1.662,1.662,0,1,0,0-3.324H101.245a1.662,1.662,0,0,0,0,3.324Z" transform="translate(-15.496 -13.621)"/>
      </g>
    </g>
  </g>
</svg>
