<svg xmlns="http://www.w3.org/2000/svg" xmlns:xlink="http://www.w3.org/1999/xlink" width="102" height="102" viewBox="0 0 102 102">
  <defs>
    <clipPath id="clip-path">
      <rect id="Rectángulo_339500" data-name="Rectángulo 339500" width="64.239" height="64.27" fill="none"/>
    </clipPath>
  </defs>
  <g id="Grupo_984393" data-name="Grupo 984393" transform="translate(-329 -3832)">
    <circle id="Elipse_4900" data-name="Elipse 4900" cx="51" cy="51" r="51" transform="translate(329 3832)" fill="#6b8dfc"/>
    <g id="Grupo_984392" data-name="Grupo 984392" transform="translate(348 3851)">
      <g id="Grupo_984391" data-name="Grupo 984391" clip-path="url(#clip-path)">
        <path id="Trazado_212381" data-name="Trazado 212381" d="M64.339,10.068c.774.255.912.444.9,1.31a10.806,10.806,0,0,1-.177,2.805,5.209,5.209,0,0,1-5.037,3.863c-.92.021-1.841.03-2.76-.006-.452-.018-.5.14-.429.529.287,1.5.548,3,.823,4.5a1.494,1.494,0,0,1-.7,1.72,1.412,1.412,0,0,1-1.769-.319q-3.17-2.992-6.317-6.008a1.369,1.369,0,0,0-1.045-.415q-12.577.018-25.153,0a1.441,1.441,0,0,0-1.094.452q-3.1,2.977-6.225,5.923a1.439,1.439,0,0,1-2.208.07,1.544,1.544,0,0,1-.325-1.406c.281-1.476.528-2.959.824-4.432.1-.5-.034-.614-.533-.611a23.087,23.087,0,0,1-3.445-.068,5.107,5.107,0,0,1-4.4-4.88q-.08-4.075,0-8.153A5.134,5.134,0,0,1,9.318.124C9.431.1,9.577.152,9.643,0H60.857a11.8,11.8,0,0,1,1.265.435,5.116,5.116,0,0,1,3.115,4.589c.03.477,0,.957.01,1.435a.983.983,0,0,1-.871,1.1.908.908,0,0,1-1.163-.849,9.533,9.533,0,0,1-.029-1.25,3.159,3.159,0,0,0-3.411-3.394c-1.668,0-3.336-.012-5,.007q-21.714.009-43.428,0c-.272,0-.544,0-.816,0a3.061,3.061,0,0,0-3.166,3q-.131,3.95,0,7.9a3.115,3.115,0,0,0,3.255,3c1.024.037,2.05.013,3.075.008a2.057,2.057,0,0,1,1.747.814,2.436,2.436,0,0,1,.3,1.741c-.2,1.046-.4,2.09-.588,3.244,1.781-1.7,3.536-3.295,5.215-4.975a2.478,2.478,0,0,1,2.007-.833q12.875.018,25.75,0a2.546,2.546,0,0,1,2.057.862c1.088,1.126,2.257,2.17,3.394,3.246.561.531,1.109,1.075,1.731,1.653a20.519,20.519,0,0,0-.334-2.044c-.07-.454-.169-.9-.24-1.358a1.942,1.942,0,0,1,1.93-2.314c.94-.024,1.881,0,2.821-.006,2.455,0,3.719-1.262,3.723-3.7a9.444,9.444,0,0,1,.032-1.44.86.86,0,0,1,1.106-.816" transform="translate(-3.115)"/>
        <path id="Trazado_212382" data-name="Trazado 212382" d="M.108,78.134A11.837,11.837,0,0,1,10.158,67.716a17.976,17.976,0,0,1,2.127-.119H24.707c1.438,0,2.05.737,1.834,2.149a5.03,5.03,0,0,1-1.684,3.127c-.19.167-.3.284-.167.57A14.724,14.724,0,0,1,25.9,80.163a5.719,5.719,0,0,0,.736,3.111c.348.615.633,1.267.926,1.912a2.461,2.461,0,0,1-2.09,3.634.708.708,0,0,0-.741.807q.008,2.008,0,4.015a3.543,3.543,0,0,1-3.7,3.706c-1.422,0-2.844.013-4.266,0-1.094-.013-1.408.733-1.157,1.776.07.293.319.213.512.236A2.39,2.39,0,0,1,18.3,101.7a2.452,2.452,0,0,1-1.867,2.739,3.3,3.3,0,0,1-.746.062q-6.431.005-12.861,0a2.374,2.374,0,0,1-2.6-2.609c0-.481-.008-.962,0-1.443a2.281,2.281,0,0,1,1.827-2.307c.352-.082.419-.21.416-.529-.013-1.694.03-3.389-.019-5.081a22.462,22.462,0,0,0-.608-3.257c-.153-.856-.084-1.05.661-1.467.605-.188,1.037.051,1.256.733a12.559,12.559,0,0,1,.393,1.839.666.666,0,0,0,.8.654c.5-.029,1,.017,1.505-.017a1.863,1.863,0,0,0,1.815-1.605,10.545,10.545,0,0,0,.083-2.19,4.134,4.134,0,0,1,1.625-3.378c.99-.8,2.008-1.574,3.016-2.355a4.262,4.262,0,0,0,1.791-3.358A5.913,5.913,0,0,1,16.64,73.87a6.112,6.112,0,0,1,4.651-1.8,2.983,2.983,0,0,0,2.965-1.805c.252-.524.2-.6-.39-.6q-3.823,0-7.646,0c-1.608-.016-3.216-.024-4.823,0a9.852,9.852,0,0,0-9.225,8.4,13.09,13.09,0,0,0,.349,4.4c.106.49.217.979.307,1.472.2,1.093-.19,1.5-1.307,1.389a.934.934,0,0,1-.667-.818C.619,83.306.372,82.105.131,80.9c-.019-.1,0-.212-.132-.246v-.628a5.035,5.035,0,0,0,.065-1.257,2,2,0,0,1,.045-.637" transform="translate(0.001 -40.239)"/>
        <path id="Trazado_212383" data-name="Trazado 212383" d="M.105,95.138c-.03.423.16.864-.105,1.268V95.151c.03-.05.064-.056.105-.013" transform="translate(0 -56.617)" fill="#4c4c4c"/>
        <path id="Trazado_212384" data-name="Trazado 212384" d="M.105,94.258,0,94.271v-.628l.109-.012,0,.626" transform="translate(0 -55.738)" fill="#888"/>
        <path id="Trazado_212385" data-name="Trazado 212385" d="M99.788,67.6c2.175,0,4.35-.028,6.524.005a11.765,11.765,0,0,1,11.254,13.758c-.644,3.4-1.379,6.788-2.1,10.176a16.927,16.927,0,0,0-.139,3.185c-.023.982,0,1.966-.009,2.948,0,.263.049.378.352.453a2.305,2.305,0,0,1,1.891,2.447c.006.5.009,1,0,1.505a2.346,2.346,0,0,1-2.472,2.42q-5.238.012-10.476,0c-.92,0-1.841.014-2.76,0a2.58,2.58,0,0,1-.365-5.089c.764-.064.764-.463.776-.971a1.014,1.014,0,0,0-.855-1.072,2.984,2.984,0,0,0-.5-.018c-1.4,0-2.8,0-4.2,0A3.536,3.536,0,0,1,93.062,93.7c-.01-1.338-.013-2.677,0-4.015.007-.572-.234-.827-.807-.879a2.382,2.382,0,0,1-2.051-3.5A14.032,14.032,0,0,0,91.979,77.9a9.908,9.908,0,0,1,1.075-4.343.518.518,0,0,0-.158-.733,4.886,4.886,0,0,1-1.681-3.389,1.538,1.538,0,0,1,1.672-1.843c2.3-.007,4.6,0,6.9,0Z" transform="translate(-53.522 -40.233)"/>
        <path id="Trazado_212386" data-name="Trazado 212386" d="M3.76,88.068c1.048-.015,1.314-.355,1.126-1.4-.218-1.21-.537-2.4-.682-3.624a9.934,9.934,0,0,1,8.279-10.7,45.412,45.412,0,0,1,5.942-.108,14.172,14.172,0,0,0,.637,3.714.849.849,0,0,1-.134.769,6.685,6.685,0,0,0-1.755,4.557,3.615,3.615,0,0,1-1.425,2.751c-1.084.882-2.2,1.731-3.3,2.587a4.14,4.14,0,0,0-1.71,3.389c0,.584.012,1.169-.008,1.753a2.048,2.048,0,0,1-2.217,2.17c-.522,0-1.048-.041-1.564.013-.48.051-.607-.182-.677-.578-.108-.615-.269-1.221-.37-1.837a1.05,1.05,0,0,0-1.156-.982c-.125-.582-.281-1.159-.363-1.746a.735.735,0,0,0-.624-.735" transform="translate(-2.238 -42.979)" fill="#6b63ae"/>
        <path id="Trazado_212387" data-name="Trazado 212387" d="M75.8,12.835c-.786.181-.969.4-.975,1.195,0,.5,0,1,0,1.5a3.314,3.314,0,0,1-3.352,3.4c-1.044.023-2.088,0-3.133.006a1.8,1.8,0,0,0-1.946,2.314c.21,1.21.425,2.419.666,3.785l-5.415-5.2a.9.9,0,0,1,.7-.2c.46-.013.92,0,1.38-.008a3.929,3.929,0,0,0,3.866-3.845c.034-1.568.015-3.137,0-4.705,0-.637-.079-.695-.741-.712-.209-.005-.418,0-.627,0H25.88A6.281,6.281,0,0,1,25,10.352c-.21-.03-.487.012-.52-.321a1.7,1.7,0,0,1,1.15-.181q14.578-.008,29.156,0H67.831a6.851,6.851,0,0,0,.752-.02A.625.625,0,0,0,69.2,9.3a.675.675,0,0,0-.4-.771A4.537,4.537,0,0,0,67.96,8.3a.475.475,0,0,1-.312-.484,3.892,3.892,0,0,0-1.18-2.71.445.445,0,0,1-.175-.437c1.794-.005,3.589-.042,5.381-.006A3.264,3.264,0,0,1,74.814,7.8c.022.458,0,.918.009,1.377.009.765.247,1.032,1.012,1.149q-.019,1.254-.037,2.508" transform="translate(-14.574 -2.766)" fill="#7ac0a4"/>
        <path id="Trazado_212388" data-name="Trazado 212388" d="M57.623,4.671a4.978,4.978,0,0,1,1.352,2.042,5.179,5.179,0,0,1,.156,1.47,1.706,1.706,0,0,1-1.151.18q-17.509.008-35.017,0-2.887,0-5.773,0a3.765,3.765,0,0,0-.936.074c-.688.175-.877.566-.579,1.208a1.074,1.074,0,0,1,.149.408c.254.223.562.118.843.119q20.769.008,41.54.006c1.045,0,.917-.117.921.951.006,1.506,0,3.012,0,4.518a4.117,4.117,0,0,1-4.212,4.188l-1.945,0a3.134,3.134,0,0,0-2.6-.921q-12.33.043-24.661,0a3.129,3.129,0,0,0-2.6.921,12.262,12.262,0,0,1-4.889,0,2.079,2.079,0,0,0-1.94-.91c-.96.038-1.924.018-2.886.007a3.318,3.318,0,0,1-3.464-3.48c-.006-2.489-.014-4.977,0-7.465a3.27,3.27,0,0,1,3.341-3.336q22.051-.01,44.1,0c.083,0,.166.012.25.019" transform="translate(-5.906 -2.769)" fill="#96d4a5"/>
        <path id="Trazado_212389" data-name="Trazado 212389" d="M29.648,42.178l4.889,0-5.416,5.2c.236-1.336.422-2.517.662-3.686a2.561,2.561,0,0,0-.135-1.521" transform="translate(-17.335 -25.108)" fill="#79c0a4"/>
        <path id="Trazado_212390" data-name="Trazado 212390" d="M27.885,88.193c-.045-2.491,1.232-4.207,3.446-4.6.782-.138,1.589.024,2.372-.173.261-.066.3.17.371.336a11.728,11.728,0,0,1,.939,3.878,22.367,22.367,0,0,1,.059,2.508,5.8,5.8,0,0,0,.8,3.108c.365.68.682,1.387,1,2.09.288.633.1.944-.583,1.023a2.525,2.525,0,0,0-2.4,2.7c-.006,1.318,0,2.635,0,3.953a1.693,1.693,0,0,1-1.866,1.863c-1.4.006-2.8,0-4.2,0a2.9,2.9,0,0,0-3.121,3.191c.006.219.108.484-.294.442q-2.927-.309-5.853-.608a5.583,5.583,0,0,1,4.95-3.581A4.711,4.711,0,0,0,27.8,99.594q.032-4.83,0-9.66a10.155,10.155,0,0,0,.085-1.741" transform="translate(-11.041 -49.653)" fill="#c1885d"/>
        <path id="Trazado_212391" data-name="Trazado 212391" d="M23.239,95.229c.165.177.1.4.1.6q.005,5.485,0,10.97a4.966,4.966,0,0,1-4.507,4.752,5.092,5.092,0,0,0-4.488,2.916c-.1.2-.155.448-.442.476-.936-.081-1.871-.172-2.807-.238-.274-.019-.35-.129-.348-.387.008-1.463.014-2.926,0-4.389,0-.348.134-.418.444-.412a19.151,19.151,0,0,0,2.005-.013,3.879,3.879,0,0,0,3.572-3.975c.019-.563.01-1.128,0-1.693a2.4,2.4,0,0,1,1.017-2.045c.981-.745,1.94-1.52,2.928-2.257a6.215,6.215,0,0,0,2.527-4.3" transform="translate(-6.396 -56.688)" fill="#d39761"/>
        <path id="Trazado_212392" data-name="Trazado 212392" d="M40.292,76.745a10.166,10.166,0,0,0-.544-2.715,3.336,3.336,0,0,1,.042-1.768c2.691-.008,5.383-.006,8.074-.032.461,0,.4.216.323.5a3.125,3.125,0,0,1-3.037,2.266,6.951,6.951,0,0,0-3.5.756,10.9,10.9,0,0,0-1.357,1" transform="translate(-23.602 -42.997)" fill="#5e57a9"/>
        <path id="Trazado_212393" data-name="Trazado 212393" d="M12.517,150.217q-3.323.01-6.645.023c-.44,0-.663-.182-.656-.634.007-.481,0-.962,0-1.442,0-.427.214-.614.631-.572q3.209.321,6.418.645a1.712,1.712,0,0,1,.252,1.981" transform="translate(-3.104 -87.856)" fill="#df8086"/>
        <path id="Trazado_212394" data-name="Trazado 212394" d="M22.886,151.174a4.5,4.5,0,0,0-.252-1.981q3.363.307,6.727.615c.477.044.544.384.532.769a.555.555,0,0,1-.62.618q-3.193-.013-6.387-.021" transform="translate(-13.474 -88.812)" fill="#da646f"/>
        <path id="Trazado_212395" data-name="Trazado 212395" d="M109.286,108.271c-.683.081-1.367.154-2.049.246-.3.04-.361-.079-.317-.347a2.96,2.96,0,0,0-3.2-3.3c-1.377.062-2.76.017-4.14.01a1.681,1.681,0,0,1-1.843-1.818c-.009-1.317,0-2.634,0-3.952a2.519,2.519,0,0,0-2.41-2.742c-.675-.087-.915-.443-.558-1.027a13.3,13.3,0,0,0,1.872-7.767,9.177,9.177,0,0,1,.9-3.814c.112-.274.245-.41.557-.319a5.192,5.192,0,0,0,1.433.1,4.009,4.009,0,0,1,4.178,3.946,6.347,6.347,0,0,0,2.8,5.191c.83.6,1.6,1.284,2.438,1.866a2.765,2.765,0,0,1,1.234,2.927,32.763,32.763,0,0,0-.7,7.846c.048.725.011,1.455,0,2.183a1.073,1.073,0,0,1-.191.768" transform="translate(-56.314 -49.654)" fill="#fddcce"/>
        <path id="Trazado_212396" data-name="Trazado 212396" d="M121.277,72.255c2.1.013,4.222-.231,6.284.415a9.965,9.965,0,0,1,6.73,11.765q-.942,4.438-1.848,8.884c-.092.457-.229.689-.75.639-.559-.053-1.128,0-1.692-.017a1.973,1.973,0,0,1-2-1.854,9.552,9.552,0,0,1-.023-1.5,4.658,4.658,0,0,0-1.32-3.653c.134-1.107.475-2.173.646-3.272a2.469,2.469,0,0,0,.066-.913q0-.522,0-1.044a3.422,3.422,0,0,0-.043-.987,10.875,10.875,0,0,0-5.645-8.044c-.172-.094-.407-.146-.4-.418" transform="translate(-72.194 -42.991)" fill="#df7d4d"/>
        <path id="Trazado_212397" data-name="Trazado 212397" d="M113.637,81.655q0,.566,0,1.132c-.168.274.038.6-.125.878a11.064,11.064,0,0,1-.768,3.273c-1.125-.867-2.245-1.741-3.375-2.6a4.339,4.339,0,0,1-1.8-3.419A5.937,5.937,0,0,0,101.277,75a3.22,3.22,0,0,1-3.3-2.262c-.066-.249-.2-.517.3-.513,3.032.025,6.064.023,9.1.031a12.457,12.457,0,0,1,2.592,1.729,10.787,10.787,0,0,1,3.557,6.661c.167.319-.047.686.125,1" transform="translate(-58.281 -42.997)" fill="#e1934a"/>
        <path id="Trazado_212398" data-name="Trazado 212398" d="M130.857,128.953c0-2.148-.054-4.3.019-6.443a18.333,18.333,0,0,1,.872-4.354c.024.5.027,1,.076,1.5a3.842,3.842,0,0,0,3.75,3.514c.6.021,1.211.024,1.816,0,.331-.013.423.095.419.422-.016,1.44-.011,2.881,0,4.321,0,.254-.01.417-.345.445-2.2.186-4.4.4-6.6.6" transform="translate(-77.886 -70.337)" fill="#fdcabe"/>
        <path id="Trazado_212399" data-name="Trazado 212399" d="M133.606,148.331c1.492-.158,2.984-.321,4.477-.474.956-.1,1.914-.168,2.869-.271.551-.059.773.166.745.708-.021.417-.015.836,0,1.253.015.469-.183.691-.666.688-2.089-.015-4.178-.018-6.267-.025a.637.637,0,0,1-.166-.449,1.408,1.408,0,0,0-.989-1.431" transform="translate(-79.534 -87.85)" fill="#92d7f6"/>
        <path id="Trazado_212400" data-name="Trazado 212400" d="M124.45,149.44c.82.048,1.033.275,1.149,1.256a5.524,5.524,0,0,1,.006.624c-2.237.007-4.474.011-6.711.025-.443,0-.661-.193-.668-.633-.007-.389.062-.713.544-.756q2.84-.253,5.68-.515" transform="translate(-70.378 -88.959)" fill="#b2e3f7"/>
        <path id="Trazado_212401" data-name="Trazado 212401" d="M23.654,15.254a.964.964,0,0,1-.535-1.147c.164-.568.609-.693,1.126-.693h2.447q19.729,0,39.458,0c.271,0,.542-.022.812-.033.27.016.542.017.81.051a.948.948,0,0,1,.9.95.923.923,0,0,1-.934.9c-.459.025-.92,0-1.379,0q-20.819,0-41.638,0c-.355,0-.709-.019-1.064-.03" transform="translate(-13.736 -7.964)" fill="#000100"/>
        <path id="Trazado_212402" data-name="Trazado 212402" d="M34.881,27.038q-5.3,0-10.6,0a1.106,1.106,0,0,1-1.052-.412A.927.927,0,0,1,23.8,25.2a2.585,2.585,0,0,1,.622-.04q10.5,0,21,0a3.757,3.757,0,0,1,.5.011.933.933,0,0,1,.862.976.879.879,0,0,1-.936.888c-1.317.018-2.633.008-3.95.008H34.881" transform="translate(-13.732 -14.973)"/>
        <path id="Trazado_212403" data-name="Trazado 212403" d="M136.576,94.041c-.249-.309-.071-.671-.125-1,.252.309.071.671.125,1" transform="translate(-81.22 -55.383)" fill="#e59660"/>
        <path id="Trazado_212404" data-name="Trazado 212404" d="M136.455,99.194c.047-.292-.116-.614.125-.878-.047.292.115.614-.125.878" transform="translate(-81.223 -58.526)" fill="#e69263"/>
      </g>
    </g>
  </g>
</svg>
