<svg xmlns="http://www.w3.org/2000/svg" xmlns:xlink="http://www.w3.org/1999/xlink" width="102" height="102" viewBox="0 0 102 102">
  <defs>
    <clipPath id="clip-path">
      <rect id="Rectángulo_339501" data-name="Rectángulo 339501" width="78.845" height="65" fill="none"/>
    </clipPath>
  </defs>
  <g id="Grupo_984396" data-name="Grupo 984396" transform="translate(-749 -3832)">
    <circle id="Elipse_4901" data-name="Elipse 4901" cx="51" cy="51" r="51" transform="translate(749 3832)" fill="#6b8dfc"/>
    <g id="Grupo_984395" data-name="Grupo 984395" transform="translate(761 3851)">
      <g id="Grupo_984394" data-name="Grupo 984394" clip-path="url(#clip-path)">
        <path id="Trazado_212405" data-name="Trazado 212405" d="M126.472,72.677a3.32,3.32,0,0,1,1.332,3.416c-.064.3.109.5.246.728a9.352,9.352,0,0,1-8.27,14.388,4.345,4.345,0,0,1-1.65-.243,5.1,5.1,0,0,0-3.517.02A12.637,12.637,0,0,1,99.1,80.128a1.261,1.261,0,0,1-.025-.238c.074-.874-.268-1.219-1.2-1.372a3.206,3.206,0,0,1,.6-6.308c.167-.013.512.181.469-.2-.046-.409-.381-.15-.568-.125-.394.052-.776.186-1.169.255a.938.938,0,0,1-1.219-.738.876.876,0,0,1,.836-1.129c.8-.065.875-.462.88-1.144a61.089,61.089,0,0,1,.123-6.715,14.846,14.846,0,0,1,29.238-1.088,18.053,18.053,0,0,1,.321,3.978c0,2-.007,4,.01,6,.006.652-.151,1.167-.922,1.367" transform="translate(-50.748 -26.355)"/>
        <path id="Trazado_212406" data-name="Trazado 212406" d="M29.036,72.284a8.023,8.023,0,0,1,1.673.305,3.244,3.244,0,0,1,1.915,3.221,3.127,3.127,0,0,1-2.56,2.893c-.771.109-.921.407-1,1.123a12.681,12.681,0,0,1-25.23.531c-.008-.08-.025-.159-.026-.238-.01-.808-.131-1.345-1.2-1.464A3.065,3.065,0,0,1,.2,75.725a3.12,3.12,0,0,1,2.019-3.142c.636-.216.525-.471.334-.9A29.351,29.351,0,0,1,.09,63.529,7.723,7.723,0,0,1,.473,59.6,3.594,3.594,0,0,1,2.235,57.6a3.825,3.825,0,0,0,1.3-1.117,9.893,9.893,0,0,1,8.806-3.764,1.549,1.549,0,0,0,.845-.133,5.624,5.624,0,0,1,4.94-.112,1.026,1.026,0,0,0,.83.017,5.792,5.792,0,0,1,6.617,1.641,6.024,6.024,0,0,0,2.393,1.741,4.2,4.2,0,0,1,2.752,3.961c.029.454.143.616.579.739a3.227,3.227,0,0,1,2.232,4.384,15.266,15.266,0,0,1-4.5,7.322" transform="translate(0 -27.626)"/>
        <path id="Trazado_212407" data-name="Trazado 212407" d="M65.738,0Q71.62,0,77.5,0a4.216,4.216,0,0,1,4.44,4.406q.014,6.361,0,12.723A4.177,4.177,0,0,1,77.6,21.461c-3.841.009-7.682.018-11.524-.012-.684-.006-.917.126-.964.882a8.213,8.213,0,0,1-5.295,7.44c-.464.2-.958.4-1.435.025s-.344-.911-.252-1.406a11.582,11.582,0,0,0,.116-4.29,2.816,2.816,0,0,0-3.124-2.641,9.353,9.353,0,0,1-2.387-.139A4.152,4.152,0,0,1,49.6,17.351c-.02-4.4-.029-8.8,0-13.2A4.169,4.169,0,0,1,53.814.008c3.975-.015,7.949,0,11.924,0" transform="translate(-26.36 0)"/>
        <path id="Trazado_212408" data-name="Trazado 212408" d="M97.824,50.823c-1.2,0-2.4.006-3.6,0-.8-.006-1.206-.341-1.206-.959s.409-.956,1.206-.958c2.4-.006,4.8,0,7.2-.007.657,0,1.1.252,1.174.925.067.585-.426.991-1.174,1-1.2.01-2.4,0-3.6,0" transform="translate(-49.452 -25.996)"/>
        <path id="Trazado_212409" data-name="Trazado 212409" d="M86.364,50.828c-.854,0-1.293-.315-1.3-.944s.422-.976,1.268-.979,1.308.336,1.321.943-.464.977-1.285.98" transform="translate(-45.222 -26)" fill="#294369"/>
        <path id="Trazado_212410" data-name="Trazado 212410" d="M107.044,92.381c0-1.494.018-2.747-.01-4a.618.618,0,0,1,.513-.73,31.058,31.058,0,0,0,12.406-6.692c.512-.469.605-.016.794.264a17.389,17.389,0,0,0,6.438,6.2,2.355,2.355,0,0,1,1.5,2.675c-.153,2.258.151,4.534-.17,6.789a10.807,10.807,0,0,1-21.153.985,25.583,25.583,0,0,1-.322-5.492" transform="translate(-56.904 -42.934)" fill="#fed7b6"/>
        <path id="Trazado_212411" data-name="Trazado 212411" d="M130.112,72.685a12.936,12.936,0,0,1-6.025-3.161,19.557,19.557,0,0,1-3.541-4.3.652.652,0,0,1,.073-.9,19.432,19.432,0,0,0,2.826-4.707A1.088,1.088,0,0,0,123,58.065c-.506-.237-1.03.064-1.331.8a17.5,17.5,0,0,1-4.617,6.441,27.792,27.792,0,0,1-8.761,5.161q-1.678.644-3.4,1.15c-.492.143-.592,0-.583-.466.023-1.254.02-2.509,0-3.763-.006-.388.12-.54.512-.639,1.03-.26,2.045-.581,3.057-.905.755-.242,1.07-.725.852-1.272-.274-.692-.785-.773-1.439-.548-.754.259-1.53.453-2.284.71-.465.159-.6-.006-.51-.432a12.983,12.983,0,0,1,6.089-8.8,12.85,12.85,0,0,1,7.321-1.851c.625.023.745.171.471.743a17.871,17.871,0,0,1-7.533,8.02,4.676,4.676,0,0,0-.69.4c-.416.342-.712.749-.363,1.309a.928.928,0,0,0,1.33.306,18.575,18.575,0,0,0,3.487-2.241,18.784,18.784,0,0,0,5.766-7.627c.155-.377.349-.431.74-.3a12.526,12.526,0,0,1,8.82,10.1c.434,2.265.1,4.576.179,6.865.016.474,0,.948,0,1.456" transform="translate(-55.452 -28.521)" fill="#6d7485"/>
        <path id="Trazado_212412" data-name="Trazado 212412" d="M147.1,121.8c-.327-.077-.907.212-1.052-.177-.136-.366.464-.555.74-.789a12.5,12.5,0,0,0,4.253-7.278,8.7,8.7,0,0,0,.25-1.642c0-.513.207-.716.673-.772a1.326,1.326,0,0,0,.611-.158c.811-.6,1.109-.126,1.4.577A7.452,7.452,0,0,1,147.1,121.8" transform="translate(-77.637 -58.861)" fill="#4a5160"/>
        <path id="Trazado_212413" data-name="Trazado 212413" d="M101.162,103.361a4.421,4.421,0,0,1,0,.557c-.031.245.152.591-.154.712a.933.933,0,0,1-.883-.244,1.3,1.3,0,0,1-.363-1.707.962.962,0,0,1,1.106-.58c.516.121.228.565.293.864a1.908,1.908,0,0,1,0,.4" transform="translate(-52.944 -54.266)" fill="#ecc396"/>
        <path id="Trazado_212414" data-name="Trazado 212414" d="M157.311,103.376a4.545,4.545,0,0,1,0-.554c.033-.26-.156-.613.259-.731a.864.864,0,0,1,.865.258,1.345,1.345,0,0,1-.283,2.151c-.621.331-.835.207-.845-.491,0-.211,0-.422,0-.633" transform="translate(-83.629 -54.26)" fill="#ebc296"/>
        <path id="Trazado_212415" data-name="Trazado 212415" d="M19.909,75.052a2.869,2.869,0,0,0,.655-.451c.917-1.121,1.953-1.091,3.27-.68a8.653,8.653,0,0,0,6.509-.783c.765-.374,1.5-.813,2.267-1.18,2.5-1.2,4.649.2,4.824,2.975.3,4.8.253,9.6.239,14.395A10.815,10.815,0,0,1,28.733,99.82a6.269,6.269,0,0,1-.638.042c-1.725.414-2.973-.523-4.146-1.539a11.745,11.745,0,0,1-4.261-9.329,28.327,28.327,0,0,1,.077-3.819,12.7,12.7,0,0,0,.508-1.169,1.231,1.231,0,0,1,1.218-.971,1.245,1.245,0,0,1,1.2,1,2.3,2.3,0,0,0,.167.448.675.675,0,0,0,.77.431.686.686,0,0,0,.541-.7,2.658,2.658,0,0,0-3.2-2.66c-.374.075-.756.335-1.132-.01a1.512,1.512,0,0,1-.179-.842q-.016-2.377,0-4.755a1.407,1.407,0,0,1,.256-.9" transform="translate(-10.445 -38.027)" fill="#fed7b6"/>
        <path id="Trazado_212416" data-name="Trazado 212416" d="M18.46,56.827a3.379,3.379,0,0,0,1.985-.415,3.442,3.442,0,0,1,3.443.114,1.708,1.708,0,0,0,1.794.019,3.877,3.877,0,0,1,4.439.725c.346.331.649.705.97,1.062a3.759,3.759,0,0,0,2.081,1.345,2.532,2.532,0,0,1,1.783,3.25c-.277,1.018.079,1.517,1.134,1.581a8.532,8.532,0,0,1,.878.041c.683.114,1.306.822,1.123,1.422a15.135,15.135,0,0,1-2.466,5.3,4.544,4.544,0,0,1-.333-1.766c-.108-1.032-.14-2.073-.163-3.111a5.012,5.012,0,0,0-7.019-4.651,13.159,13.159,0,0,0-1.916.984,8.556,8.556,0,0,1-9.237-.1c-.278-.159-.558-.313-.837-.469A.9.9,0,0,0,14.8,62.5a.887.887,0,0,0,.323,1.31c.786.586.809.623-.081,1.1a3.614,3.614,0,0,1-3.013.579A4.408,4.408,0,0,1,13.855,60.3a3.35,3.35,0,0,0,1.138-.951,11.167,11.167,0,0,1,2.366-2.235,1.135,1.135,0,0,1,1.1-.288" transform="translate(-6.257 -29.775)" fill="#c1684f"/>
        <path id="Trazado_212417" data-name="Trazado 212417" d="M15.811,89.13c0,1.358-.031,2.716,0,4.073a11.641,11.641,0,0,0,6.537,10.52c.519.283,1.1.037,1.65.142a9.424,9.424,0,0,1-6.17-1.112,10.407,10.407,0,0,1-5.85-9.508c-.075-4.269-.007-8.54-.029-12.81,0-.554.108-.716.7-.673a6.564,6.564,0,0,0,3.163-.708c0,1.934-.007,3.868,0,5.8,0,.254-.087.538.162.742.047.333-.247.439-.424.608a3.106,3.106,0,0,0-.866,1.39c-.243.833-.01,1.222.85,1.407a.453.453,0,0,1,.278.127" transform="translate(-6.35 -42.029)" fill="#e4bca0"/>
        <path id="Trazado_212418" data-name="Trazado 212418" d="M14.369,57.628a3.772,3.772,0,0,0-1.916,1.213,8.288,8.288,0,0,0-1.718,1.881.8.8,0,0,1-.405.368c-1.835.674-2.348,2.155-2.388,3.921-.01.427,0,.853,0,1.28a4,4,0,0,1-2.052-.57,1.27,1.27,0,0,0-1.673.14,3.048,3.048,0,0,1,1.845-3.926,2.9,2.9,0,0,0,.954-1.053,8.3,8.3,0,0,1,6.9-3.369,1.718,1.718,0,0,1,.451.117" transform="translate(-2.166 -30.576)" fill="#9f5847"/>
        <path id="Trazado_212419" data-name="Trazado 212419" d="M4.354,77.773c.535.271.945.5,1.372.687.329.146.279.415.28.674,0,1.224,0,2.447-.066,3.688a26.987,26.987,0,0,1-1.587-5.049" transform="translate(-2.315 -41.348)" fill="#9e5747"/>
        <path id="Trazado_212420" data-name="Trazado 212420" d="M6.088,101.035a1.894,1.894,0,0,1,0,.318c-.052.294.179.734-.164.857a1.019,1.019,0,0,1-1.1-.466,1.249,1.249,0,0,1-.13-1.483.976.976,0,0,1,1.03-.593c.577.082.316.565.365.891a3.173,3.173,0,0,1,0,.477" transform="translate(-2.395 -52.982)" fill="#ebc296"/>
        <path id="Trazado_212421" data-name="Trazado 212421" d="M62.221,100.984a4.549,4.549,0,0,1,0-.56c.033-.264-.159-.622.256-.745a.853.853,0,0,1,.926.319,1.251,1.251,0,0,1,.148,1.615,1.061,1.061,0,0,1-1.126.6c-.423-.111-.135-.6-.2-.91a1.513,1.513,0,0,1,0-.319" transform="translate(-33.065 -52.976)" fill="#ebc296"/>
        <path id="Trazado_212422" data-name="Trazado 212422" d="M62.464,29.386a13.049,13.049,0,0,0-.259-3.937,4.568,4.568,0,0,0-4.733-3.722c-.507,0-1.015.016-1.521-.006a2.238,2.238,0,0,1-2.242-2.25q-.034-6.524,0-13.049a2.249,2.249,0,0,1,2.351-2.308q11.889-.012,23.778,0a2.247,2.247,0,0,1,2.356,2.3q.04,6.524,0,13.048a2.244,2.244,0,0,1-2.473,2.258q-6.165.011-12.329,0c-1.464,0-1.983.5-1.975,1.967a6.643,6.643,0,0,1-2.258,5.339,4.868,4.868,0,0,1-.444.336c-.035.024-.1.009-.254.019" transform="translate(-28.546 -2.184)" fill="#f2cd7d"/>
        <path id="Trazado_212423" data-name="Trazado 212423" d="M125.186,118.572a5.866,5.866,0,0,1-3.834-1.514c-.478-.433-.684-.921-.238-1.456s.946-.434,1.466-.022a3.75,3.75,0,0,0,5.267-.01c.525-.412,1.024-.49,1.465.044a.936.936,0,0,1-.2,1.4,5.838,5.838,0,0,1-3.923,1.555" transform="translate(-64.259 -61.266)"/>
        <path id="Trazado_212424" data-name="Trazado 212424" d="M115.237,94.728a2.972,2.972,0,0,1,2.936,2.791c.019.622-.211,1.065-.853,1.132a.9.9,0,0,1-1.039-.874c-.092-.67-.393-1.126-1.1-1.113a1.021,1.021,0,0,0-1.033,1.016c-.079.671-.429,1.029-1.106.962-.59-.058-.9-.629-.8-1.339a3.017,3.017,0,0,1,2.994-2.575" transform="translate(-59.663 -50.362)"/>
        <path id="Trazado_212425" data-name="Trazado 212425" d="M138.316,94.759a3.033,3.033,0,0,1,2.968,2.7c.056.608-.165,1.082-.8,1.186a.884.884,0,0,1-1.1-.863c-.084-.629-.392-1.077-1.052-1.1s-1,.395-1.09,1.038c-.086.609-.424,1.011-1.066.936-.694-.081-.875-.584-.829-1.226a2.985,2.985,0,0,1,2.968-2.68" transform="translate(-71.955 -50.379)"/>
        <path id="Trazado_212426" data-name="Trazado 212426" d="M30.157,116.169a5.854,5.854,0,0,1-3.854-1.526c-.481-.444-.638-.944-.186-1.464.43-.495.917-.394,1.411-.014,1.875,1.443,3.431,1.448,5.271.011.524-.408,1.026-.5,1.468.041a.935.935,0,0,1-.2,1.4,5.846,5.846,0,0,1-3.909,1.55" transform="translate(-13.742 -59.992)"/>
        <path id="Trazado_212427" data-name="Trazado 212427" d="M43.266,92.332a3.015,3.015,0,0,1,2.963,2.695,1.007,1.007,0,0,1-.855,1.221.929.929,0,0,1-1.057-.937,1.029,1.029,0,0,0-1.083-1.045,1,1,0,0,0-1.035,1c-.086.634-.41,1.067-1.106.972s-.845-.619-.8-1.245a2.96,2.96,0,0,1,2.973-2.658" transform="translate(-21.418 -49.089)"/>
        <path id="Trazado_212428" data-name="Trazado 212428" d="M18.591,96.26c-1.127.164-1.6-.36-1.354-1.468a3.339,3.339,0,0,1,1.517-2.064c1.832-.614,3.3-.138,4.054,1.309a2.653,2.653,0,0,1,.307,1.387.935.935,0,0,1-1.824.249,4.609,4.609,0,0,1-.107-.468,1.045,1.045,0,0,0-2.064.027,1.5,1.5,0,0,1-.529,1.029" transform="translate(-9.131 -49.159)"/>
        <path id="Trazado_212429" data-name="Trazado 212429" d="M91.817,10.946c1.305,0,2.611.007,3.916,0,.667-.005,1.172.185,1.215.945.036.626-.386.976-1.176.977q-4.035.011-8.071,0c-.79,0-1.213-.353-1.176-.978.044-.759.551-.948,1.217-.943,1.359.01,2.717,0,4.076,0" transform="translate(-46 -5.818)"/>
        <path id="Trazado_212430" data-name="Trazado 212430" d="M91.786,22.784c-1.359,0-2.717.006-4.076,0-.793-.005-1.2-.343-1.195-.966s.41-.95,1.208-.951c2.664-.006,5.328,0,7.992-.006.663,0,1.177.171,1.229.931.044.645-.395.988-1.243.992-1.305.006-2.611,0-3.916,0" transform="translate(-45.996 -11.09)"/>
        <path id="Trazado_212431" data-name="Trazado 212431" d="M91.728,30.779c1.332,0,2.664.007,4,0,.665-.005,1.175.179,1.221.939.039.645-.4.983-1.25.984q-3.956.006-7.912,0c-.862,0-1.275-.328-1.266-.975s.419-.942,1.3-.945c1.305,0,2.611,0,3.916,0" transform="translate(-45.996 -16.362)"/>
        <path id="Trazado_212432" data-name="Trazado 212432" d="M72.438,30.776c.559,0,1.12-.021,1.678.006a.9.9,0,0,1,.976.94.885.885,0,0,1-.948.963q-1.676.048-3.355,0a.891.891,0,0,1-.94-.976.915.915,0,0,1,.992-.93c.532-.017,1.065,0,1.6,0" transform="translate(-37.134 -16.358)"/>
        <path id="Trazado_212433" data-name="Trazado 212433" d="M72.473,22.785H70.955c-.661,0-1.11-.308-1.1-.984.008-.629.439-.935,1.066-.937,1.038,0,2.077-.007,3.116,0,.616.005,1.05.29,1.056.94.006.7-.451.972-1.1.977-.506,0-1.012,0-1.518,0" transform="translate(-37.138 -11.091)"/>
        <path id="Trazado_212434" data-name="Trazado 212434" d="M72.438,12.864c-.506,0-1.012,0-1.518,0-.626,0-1.052-.307-1.068-.937a.912.912,0,0,1,1.02-.979c1.065-.014,2.131-.016,3.2,0,.619.01,1.034.321,1.023.971s-.439.931-1.055.942c-.533.01-1.065,0-1.6,0" transform="translate(-37.137 -5.814)"/>
        <path id="Trazado_212435" data-name="Trazado 212435" d="M60.7,10.949c.734.007,1.2.4,1.184.986s-.486.942-1.235.936-1.179-.359-1.164-.987.44-.943,1.215-.936" transform="translate(-31.628 -5.821)" fill="#2a4368"/>
        <path id="Trazado_212436" data-name="Trazado 212436" d="M60.694,30.781c.737,0,1.2.386,1.194.977s-.469.95-1.224.946-1.184-.35-1.175-.977.432-.951,1.2-.946" transform="translate(-31.628 -16.365)" fill="#2a4368"/>
        <path id="Trazado_212437" data-name="Trazado 212437" d="M60.641,22.787c-.759-.009-1.174-.369-1.152-1,.022-.612.449-.934,1.227-.924.729.01,1.2.409,1.172,1s-.5.933-1.246.924" transform="translate(-31.627 -11.093)" fill="#2a4368"/>
      </g>
    </g>
  </g>
</svg>
