<svg xmlns="http://www.w3.org/2000/svg" xmlns:xlink="http://www.w3.org/1999/xlink" width="266" height="219" viewBox="0 0 266 219">
  <defs>
    <clipPath id="clip-path">
      <rect id="Rect치ngulo_339486" data-name="Rect치ngulo 339486" width="157.154" height="157.207" fill="none"/>
    </clipPath>
  </defs>
  <g id="Grupo_984360" data-name="Grupo 984360" transform="translate(-585 -2960)">
    <rect id="Rect치ngulo_338857" data-name="Rect치ngulo 338857" width="266" height="219" rx="11" transform="translate(585 2960)" fill="#fc5f65"/>
    <g id="Grupo_984359" data-name="Grupo 984359" transform="translate(639 2991)">
      <g id="Grupo_984358" data-name="Grupo 984358" clip-path="url(#clip-path)">
        <path id="Trazado_212213" data-name="Trazado 212213" d="M157.154,84.679c-.666,1.771-.535,3.667-.862,5.494-5.561,31.031-23.061,52.486-52.754,62.736a77.717,77.717,0,0,1-95.643-40.2A78.5,78.5,0,0,1,57.4,2.877,73.465,73.465,0,0,1,71.7.3c.282-.023.632.087.779-.3h7.67A7.658,7.658,0,0,0,83.52,0h.921c1.705.278,3.444.144,5.146.376a77.283,77.283,0,0,1,35.8,14.571c2.263,1.662,2.536,2.633,1.591,4.763-1.554,1.223-2.564,1.255-4.254-.017a72.552,72.552,0,0,0-12.978-7.805A71.031,71.031,0,0,0,87.9,5.607a72.988,72.988,0,0,0-38.216,5.31,73.566,73.566,0,0,0-25.5,18.193,64.178,64.178,0,0,0-8.561,11.547,70.153,70.153,0,0,0-8.6,21.054,71.67,71.67,0,0,0-1.9,19.926,74.151,74.151,0,0,0,5.82,25.727A72.719,72.719,0,0,0,29.24,133,71.873,71.873,0,0,0,69.711,151.5a73.1,73.1,0,0,0,43.471-8.028,32.137,32.137,0,0,0,3.3-1.934,73.068,73.068,0,0,0,28.476-31.267A72.1,72.1,0,0,0,151.9,84.233a72.952,72.952,0,0,0-2.878-26.938A71.387,71.387,0,0,0,134.574,30.87c-1.505-1.745-3.169-3.328-4.716-5.025a2.935,2.935,0,0,1-.2-4.249c1.577-.993,2.221-1.043,3.566.127A60.827,60.827,0,0,1,143,32.865a77.818,77.818,0,0,1,13.73,34.4c.249,1.809.1,3.647.425,5.45Z"/>
        <path id="Trazado_212214" data-name="Trazado 212214" d="M83.52,0a4.066,4.066,0,0,1-3.375,0Z" fill="#434343"/>
        <path id="Trazado_212215" data-name="Trazado 212215" d="M126.678,19.589c1.33.323,1.822,1.84,3.131,2.194-1.065,1.692-.974,2.463.578,3.994,10.091,9.957,17.088,21.764,20.1,35.608,5.869,26.994-.982,50.479-20.408,70.185a59.412,59.412,0,0,1-13.315,10.217,64.707,64.707,0,0,1-26.009,7.031,75.4,75.4,0,0,1-37.923-6.739A76.538,76.538,0,0,1,11.706,95.752a76.123,76.123,0,0,1-3.38-29.057,64.349,64.349,0,0,1,7.039-26.313,69.773,69.773,0,0,1,16.9-19.432,71.28,71.28,0,0,1,35.9-15.594c19.575-2.631,37.519,1.717,53.664,13.2.375.267.767.515,1.111.816a2.681,2.681,0,0,0,3.738.217" fill="#c0e3f9"/>
        <path id="Trazado_212216" data-name="Trazado 212216" d="M15.365,40.382c-.834,2.233-1.683,4.461-2.5,6.7a77.351,77.351,0,0,0-3.642,15.07,82.412,82.412,0,0,0-.495,15.872,66.859,66.859,0,0,0,3.106,16.729,76.549,76.549,0,0,0,59.284,52.7,79.217,79.217,0,0,0,20.84.784,71.264,71.264,0,0,0,16.668-3.436c2.269-.745,4.475-1.685,6.706-2.544.469-.181.877-.541,1.43-.47a65.6,65.6,0,0,1-19.149,8.221,73.809,73.809,0,0,1-89.68-49.839C1.669,79.552,4.18,59.714,14.9,40.969a4.878,4.878,0,0,1,.466-.587" fill="#90b4f8"/>
        <path id="Trazado_212217" data-name="Trazado 212217" d="M53.715,24.5c-.331-2,.17-2.785,2.116-3.37a17.031,17.031,0,0,1,6.516-.639,2.141,2.141,0,0,0,1.883-.666,18.69,18.69,0,0,1,22.842-2.807,2.033,2.033,0,0,0,1.838.159,18.708,18.708,0,0,1,21.675,7.4,2.3,2.3,0,0,0,1.695,1.074c8.951,1.506,14.708,7.3,16.246,16.332a1.714,1.714,0,0,0,.764,1.371c7.779,4.992,10.221,14.432,6.924,23.431a3.416,3.416,0,0,0-.043,2.722,9.067,9.067,0,0,1,.52,5.7c-.22.87.138,1.12.829,1.436,4.306,1.972,6.681,5.364,6.7,10.089s-2.351,8.135-6.625,10.147c-.75.353-1.063.593-.894,1.536a10.72,10.72,0,0,1-11.326,12.631c-1.2-.076-1.8.133-2.26,1.3A9.073,9.073,0,0,1,119.6,116.5c-.592.4-.781.679-.481,1.435,1.778,4.476,1.035,8.6-2.334,12s-7.508,4.1-12,2.433c-.665-.248-.991-.241-1.465.385-4.34,5.743-11.438,6.392-16.663,1.549-.425-.394-.689-.581-1.274-.232a10.357,10.357,0,0,1-7.8,1.32c-.994-.222-.932.539-1.153,1.024a11.026,11.026,0,0,1-15.341,5.279,10.545,10.545,0,0,1-4.923-5.462c-.3-.74-.584-.915-1.435-.76a10.834,10.834,0,0,1-11.692-5.951,2.236,2.236,0,0,0-1.757-1.376,16.663,16.663,0,0,1-10.512-7.6,29.274,29.274,0,0,1-3.581-8.241c-.406-1.437.3-2.329,1.425-3.036a2.2,2.2,0,0,1,3.113,1.156,22.354,22.354,0,0,1,1.056,2.874,18.487,18.487,0,0,0,3.707,6.469,11.394,11.394,0,0,0,16.985-.021,19.263,19.263,0,0,0,3.97-7.367c1.184-4.459,3.56-8.352,5.886-12.264a68.728,68.728,0,0,0,5.288-10.37,34.691,34.691,0,0,0,1.771-6.969,2.448,2.448,0,0,0-.518-2.01,11.928,11.928,0,0,1-2.154-10.152,2.965,2.965,0,0,0-.684-2.408,24.885,24.885,0,0,0-12.8-9.558,28.238,28.238,0,0,0-20.383.753,23.589,23.589,0,0,0-9.664,7.341,20.742,20.742,0,0,0-4.223,17.392c1,5.6,3.654,10.46,6.4,15.3.552.976,1.159,1.927,1.649,2.934a2.277,2.277,0,0,1-1.215,3.455c-1.176.353-2.316.292-2.989-.842-3.437-5.791-6.9-11.578-8.423-18.253-2.9-12.676,2.221-24.211,13.587-30.446A1.911,1.911,0,0,0,30.16,54.07,18.675,18.675,0,0,1,41.931,34.416,1.976,1.976,0,0,0,43.2,33.069,17.818,17.818,0,0,1,46.67,27c1.324-1.544,2.184-1.672,3.973-.615,1.038.974,1.146,1.719.4,3.042-.648,1.149-1.69,2.025-2.252,3.235A12.99,12.99,0,0,0,47.6,35.8a3.873,3.873,0,0,1-2.962,2.96,13.559,13.559,0,0,0-8.818,8.527,12.21,12.21,0,0,0-.7,4.664c.021.911.364,1.2,1.234.937.585-.178,1.182-.323,1.783-.454a33.246,33.246,0,0,1,27,6A25.348,25.348,0,0,1,70.343,63.6c.71.94,1.333,1.228,2.4.5a10.434,10.434,0,0,1,7.044-1.57,1.8,1.8,0,0,0,2.055-1.111A10.933,10.933,0,0,1,91.8,55.127c4.788-.142,8.212,2.1,10.474,6.183a1.961,1.961,0,0,0,2.171,1.2,10.824,10.824,0,0,1,10.07,4.386c.788,1.027,1.282.84,1.987,0a13.054,13.054,0,0,1,8.615-4.813,9.607,9.607,0,0,1,5.5.927c1.006.483,1.52.309,1.687-.828.892-6.055-.314-11.473-6.638-15.169a3.576,3.576,0,0,1-2.026-3.175,13.949,13.949,0,0,0-13.449-13.36,3.441,3.441,0,0,1-3.052-1.949c-3.725-6.456-10.614-8.941-17.5-6.265a4.538,4.538,0,0,1-4.585-.566,13.828,13.828,0,0,0-18.074,2.48,3.92,3.92,0,0,1-3.629,1.5,18.319,18.319,0,0,0-6.4.309c-1.85.462-2.776-.034-3.233-1.475"/>
        <path id="Trazado_212218" data-name="Trazado 212218" d="M48.542,32.508A6.81,6.81,0,0,1,50.2,29.98a2.723,2.723,0,0,0,.447-3.6A9.749,9.749,0,0,1,53.716,24.5a2.633,2.633,0,0,0,3.328,1.066,13.042,13.042,0,0,1,6.371-.348,3.046,3.046,0,0,0,3.109-1.1c5.244-5.885,12.747-6.834,19.292-2.429a3.185,3.185,0,0,0,3.292.356c7.233-3,14.484-.508,18.386,6.308a3.079,3.079,0,0,0,2.811,1.731,14.124,14.124,0,0,1,13.705,13.62,3.4,3.4,0,0,0,2.07,3.089c6.861,3.748,8.17,11.782,6.055,17.345-6.958-3.757-12.212-1.037-16.779,4.591a11.338,11.338,0,0,0-7.316-5.628,10.238,10.238,0,0,0-4.41-.116c-.893.181-1.095-.133-1.412-.817-1.987-4.289-5.334-6.676-10.1-6.681-4.825-.006-8.213,2.387-10.2,6.757-.284.625-.476.9-1.306.76a10.7,10.7,0,0,0-8.545,2c-.458.345-.729.561-1.2-.054C62.571,54.2,51.532,50.719,38.421,52.773a1.434,1.434,0,0,1-.305-.019,4.167,4.167,0,0,1-.315-3.262A13.42,13.42,0,0,1,46.14,38.728a2.246,2.246,0,0,0,1.7-2.49,11.77,11.77,0,0,1,.7-3.73" fill="#feefae"/>
        <path id="Trazado_212219" data-name="Trazado 212219" d="M26.8,105.827c1.462-1.378,1.566-2.089.539-3.871-2.777-4.818-5.655-9.584-7.161-15.01-1.885-6.787-1.365-13.232,2.7-19.177.313-.458.71-.859,1.067-1.287.433.379.266.852.164,1.284-1.715,7.292-.041,14.071,3.111,20.624,1.574,3.271,3.453,6.374,5.271,9.512a40.006,40.006,0,0,1,3.779,8.517c1.241,4.111,3.089,7.9,6.652,10.578a11.888,11.888,0,0,0,7.681,2.58c1.036-.029,2.151-.33,3.117.372a11.659,11.659,0,0,1-16.886.757c-2.672-2.55-4.044-5.81-5.107-9.249-.571-1.847-1.145-2.227-3.107-2.187L26.8,105.827" fill="#b0705b"/>
        <path id="Trazado_212220" data-name="Trazado 212220" d="M53.72,119.949c-2.427-.092-4.869.309-7.263-.554a14.236,14.236,0,0,1-9.137-9.24c-2.535-8.134-7.331-15.077-10.954-22.626A31.857,31.857,0,0,1,23.107,70.8a39.708,39.708,0,0,1,.838-4.32,23.909,23.909,0,0,1,14.38-8.925c10.246-2.213,19.324.066,26.835,7.637a17.49,17.49,0,0,1,1.477,1.757c1.075,1.418,1.883,2.7,1.328,4.81-.83,3.153.211,6.179,2.235,8.745a2.975,2.975,0,0,1,.589,2.523,40.14,40.14,0,0,1-5.271,14.1c-1.149,2.045-2.334,4.071-3.533,6.088a39.727,39.727,0,0,0-4.11,9.183,17.066,17.066,0,0,1-4.155,7.554" fill="#c28678"/>
        <path id="Trazado_212221" data-name="Trazado 212221" d="M103.077,94.1a25.964,25.964,0,0,1,7.7-10.327c2.875-2.472,5.16-5.226,5.6-9.159a1.248,1.248,0,0,1,.318-.67c1.615-1.707,3.151-3.5,4.9-5.068,2.617-2.345,5.84-2.481,8.257-.571,2.491,1.968,3.086,5.115,1.563,8.277-.99,2.056-.161,3.582,2.06,3.791a6.434,6.434,0,0,1,6.19,6.358,6.51,6.51,0,0,1-6.1,6.489c-2.455.263-3.17,1.638-2.05,3.942a6.445,6.445,0,0,1-1.483,7.935,6.232,6.232,0,0,1-7.92.031,17.19,17.19,0,0,1-2.824-2.8,34.818,34.818,0,0,0-8.794-7.32c-1.38-.8-2.585-.862-3.691.406a3.316,3.316,0,0,1-3.727-1.315" fill="#97c990"/>
        <path id="Trazado_212222" data-name="Trazado 212222" d="M99.206,91.174a54.322,54.322,0,0,0-2.049,6.01,4.953,4.953,0,0,1-2.248,3.114,7.98,7.98,0,0,0-2.483,2.812c-1.633.709-2.659.508-3.437-.673a2.662,2.662,0,0,0-.714-3.069A4.957,4.957,0,0,1,86.9,96.847c-1.693-6.914-5.622-12.384-10.944-16.953A11.281,11.281,0,0,1,73.1,76.535a5.947,5.947,0,0,1,.871-7.092,6.471,6.471,0,0,1,7.181-1.54c.188.08.368.177.552.267,2.377,1.168,3.746.42,3.968-2.169a6.42,6.42,0,0,1,11.752-3.1,6.892,6.892,0,0,1,1.109,3.3c.21,2.285,1.671,3.106,3.719,2.109,3.188-1.552,6.286-.986,8.288,1.514,1.915,2.39,1.721,5.542-.519,8.277-.291.354-.626.672-.932,1.015-.777.872-1.319,1.2-2.206-.1a6.543,6.543,0,0,0-7.368-2.375,6.916,6.916,0,0,0-4.91,6.2c-.028.409-.031.817-.046,1.226a10.108,10.108,0,0,0-.191,1.969A4.122,4.122,0,0,0,97.85,90.39c.513.109,1.3-.147,1.356.784" fill="#c1e3a0"/>
        <path id="Trazado_212223" data-name="Trazado 212223" d="M117.359,112.32a5.319,5.319,0,0,1-2.629,1.449c-1.949.725-2.4,2.326-1.1,3.97,2.422,3.081,2.388,6.484-.088,8.975-2.444,2.458-5.95,2.51-8.98.133-1.806-1.417-3.334-.871-4.134,1.476a6.364,6.364,0,0,1-9.513,3.592c-1.127-.751-1.767-1.452-1.036-3.083,2-4.464.047-10.6-4.007-13.38a2.5,2.5,0,0,0-3.227.277c-.916-.528-1.869-1.025-1.909-2.284a2.782,2.782,0,0,0-.267-3.621,23.691,23.691,0,0,1-4.378-8.987,10.074,10.074,0,0,0-3.4-5.651,1,1,0,0,1-.331-1.423c.526-1.155.961-2.352,1.434-3.531.765-.087,1.037.542,1.408,1a26.964,26.964,0,0,1,5.02,9.872c1.312,4.659,4.533,6.827,9.382,6.283,1.008-.113,1.794-.035,1.98,1.256.532,3.708,1.613,4.579,5.323,4.425a1.917,1.917,0,0,0,1.042-.125c4.113-.157,6.591-1.878,7.488-5.233a7.22,7.22,0,0,0-1.073-5.824c.572-.5.584-.525,1.249-.162a19.632,19.632,0,0,1,4.078,2.967,39.422,39.422,0,0,1,4.771,4.965c.8,1.078,2.194,1.5,2.9,2.667" fill="#97c990"/>
        <path id="Trazado_212224" data-name="Trazado 212224" d="M80.732,113.445l1.909,2.284a2.676,2.676,0,0,0,.706,3.674,9.149,9.149,0,0,1,1.581,1.861,6.12,6.12,0,0,1-.39,7.648,6.448,6.448,0,0,1-7.7,1.435c-.184-.088-.356-.2-.541-.286a2.292,2.292,0,0,0-3.524,1.957c-.427,3.935-2.927,6.388-6.493,6.373-3.485-.016-5.995-2.5-6.385-6.314-.215-2.1-1.77-2.895-3.759-1.915-2.953,1.456-5.833,1.057-7.869-1.093a.733.733,0,0,1-.306-.757c5.163-.916,8.8-4.082,11.644-8.343a16.072,16.072,0,0,0,4.666-.063c4.856-.283,7.775-3.109,7.592-7.352-.138-3.2-2.25-5.5-6.143-6.577,1.368-2.351,2.722-4.679,4.112-7.07a5.007,5.007,0,0,1,1.78,3.1,29.681,29.681,0,0,0,5.113,10.521c1.356,1.781,2.029,1.938,4.01.919" fill="#c1e3a0"/>
        <path id="Trazado_212225" data-name="Trazado 212225" d="M97.941,112.94a4.4,4.4,0,0,1-6.736-3.768c.1-1.263-.351-1.648-1.571-1.432A8.236,8.236,0,0,1,79.98,101.8a28.028,28.028,0,0,0-5.525-10.946,5.557,5.557,0,0,0-.669-.619c.427-1.51.854-3.019,1.285-4.54.567-.068.782.421,1.066.732a25.655,25.655,0,0,1,6.195,11.229,10.539,10.539,0,0,0,2.416,4.7c1.495,1.635,2.642,1.654,4.241.085,1.023.851,2.25.659,3.437.673a7.066,7.066,0,0,0,5.515,9.831" fill="#68b080"/>
        <path id="Trazado_212226" data-name="Trazado 212226" d="M117.359,112.32a13.231,13.231,0,0,1-3.6-2.939,34.128,34.128,0,0,0-8.641-7.559c-.306-.174-.533-.273-.764.061-.362-.35-.662-.849-1.1-1.025-2.4-.974-1.775-2.651-1.1-4.367.31-.794.614-1.591.921-2.387a8.193,8.193,0,0,0,3.726,1.314,2.389,2.389,0,0,0,1.052,3.382,32.062,32.062,0,0,1,8.889,7.592,16.661,16.661,0,0,0,1.267,1.324c1.647,1.573,1.68,2.169.146,3.917a7.238,7.238,0,0,1-.8.687" fill="#68b080"/>
        <path id="Trazado_212227" data-name="Trazado 212227" d="M48.542,32.508c.1,1.733-.495,3.422-.322,5.164.061.61-.359.845-.905,1.034A13.191,13.191,0,0,0,38.26,49.1a23.262,23.262,0,0,0-.144,3.653c-3.646,1.225-3.92,1.091-3.355-2.705a13.71,13.71,0,0,1,9.722-11.642,3.572,3.572,0,0,0,2.779-2.842,7,7,0,0,1,1.28-3.057" fill="#fedf7c"/>
        <path id="Trazado_212228" data-name="Trazado 212228" d="M98.752,103.705a2.3,2.3,0,0,1,0,4.6,2.3,2.3,0,1,1,0-4.6" fill="#fbbf4f"/>
        <path id="Trazado_212229" data-name="Trazado 212229" d="M101.568,85.532A2.362,2.362,0,0,1,99.2,83.215a2.272,2.272,0,0,1,2.238-2.249,2.223,2.223,0,0,1,2.333,2.122,2.309,2.309,0,0,1-2.206,2.444" fill="#fbbf4f"/>
        <path id="Trazado_212230" data-name="Trazado 212230" d="M67.259,112.992a2.3,2.3,0,0,1-2.245,2.254,2.346,2.346,0,0,1-2.334-2.335A2.277,2.277,0,0,1,65.1,110.7a2.229,2.229,0,0,1,2.164,2.3" fill="#fcc04f"/>
        <path id="Trazado_212231" data-name="Trazado 212231" d="M99.206,91.174c-.363-.513-.911-.318-1.4-.359a4.489,4.489,0,0,1-3.255-6.749A7.5,7.5,0,0,0,99.3,89.793c1.079.413,0,.917-.094,1.381" fill="#97c890"/>
        <path id="Trazado_212232" data-name="Trazado 212232" d="M64.268,119.906a4.323,4.323,0,0,1-4.666.063c.378-1.472,1.067-1.812,2.4-.855a8.408,8.408,0,0,0,2.265.792" fill="#95c68e"/>
        <path id="Trazado_212233" data-name="Trazado 212233" d="M74.406,59.283a6.8,6.8,0,0,1-6.857-6.925,6.885,6.885,0,0,1,6.819-6.85A6.962,6.962,0,0,1,81.34,52.4a6.889,6.889,0,0,1-6.934,6.886"/>
        <path id="Trazado_212234" data-name="Trazado 212234" d="M121.644,54.55a6.8,6.8,0,0,1-6.871,6.909,6.883,6.883,0,1,1,6.871-6.909"/>
        <path id="Trazado_212235" data-name="Trazado 212235" d="M45.073,89.657q-7.517,0-15.033,0c-1.929,0-2.991-.841-2.97-2.3s1.084-2.3,3.014-2.3q15.033-.012,30.066,0c2.261,0,3.537,1.51,2.773,3.235a2.4,2.4,0,0,1-2.51,1.369c-5.113-.019-10.227-.009-15.34-.008"/>
        <path id="Trazado_212236" data-name="Trazado 212236" d="M44.822,73.747q-6.511,0-13.023,0a2.253,2.253,0,0,1-2.418-1.7,2.148,2.148,0,0,1,1.015-2.5,2.756,2.756,0,0,1,1.614-.39c8.58,0,17.16-.018,25.739.007,1.83,0,2.8.891,2.786,2.344s-.961,2.234-2.843,2.24c-4.29.014-8.58,0-12.87,0" fill="#010000"/>
        <path id="Trazado_212237" data-name="Trazado 212237" d="M45.938,101.809c2.247,0,4.495-.017,6.742.005,1.735.017,2.655.829,2.649,2.272,0,1.406-.97,2.3-2.661,2.313q-6.819.043-13.638,0a2.413,2.413,0,0,1-2.69-2.325c0-1.348,1.047-2.247,2.7-2.26,2.3-.019,4.6-.005,6.9-.005"/>
        <path id="Trazado_212238" data-name="Trazado 212238" d="M74.463,54.674a2.215,2.215,0,0,1-2.307-2.145,2.3,2.3,0,0,1,2.233-2.409,2.359,2.359,0,0,1,2.342,2.336,2.288,2.288,0,0,1-2.268,2.218" fill="#fcbf4f"/>
        <path id="Trazado_212239" data-name="Trazado 212239" d="M114.823,56.844a2.268,2.268,0,0,1-2.343-2.283,2.307,2.307,0,0,1,2.244-2.257,2.249,2.249,0,0,1,2.308,2.308,2.193,2.193,0,0,1-2.209,2.232" fill="#fcc04f"/>
      </g>
    </g>
  </g>
</svg>
