<svg xmlns="http://www.w3.org/2000/svg" xmlns:xlink="http://www.w3.org/1999/xlink" width="266" height="219" viewBox="0 0 266 219">
  <defs>
    <clipPath id="clip-path">
      <rect id="Rect치ngulo_339488" data-name="Rect치ngulo 339488" width="173.896" height="179.928" fill="none"/>
    </clipPath>
  </defs>
  <g id="Grupo_984366" data-name="Grupo 984366" transform="translate(-5076 8734)">
    <rect id="Rect치ngulo_338861" data-name="Rect치ngulo 338861" width="266" height="219" rx="11" transform="translate(5076 -8734)" fill="#fc5f65"/>
    <g id="Grupo_984365" data-name="Grupo 984365" transform="translate(5122 -8714)">
      <g id="Grupo_984364" data-name="Grupo 984364" clip-path="url(#clip-path)">
        <path id="Trazado_212250" data-name="Trazado 212250" d="M143.79,115.2c1.91.206,2.508,1.421,2.5,3.168-.016,5.562.009,11.125-.012,16.688-.01,2.386-.9,3.269-3.314,3.277-6.206.021-12.412.006-18.618.006H122.44c-.016.194-.074.352-.026.4,5.308,4.962,7.12,11.493,8.285,18.332.488,2.861.543,2.852,3.411,2.852q15.633,0,31.267,0c2.952,0,3.659.777,3.745,3.737.106,3.692-.225,7.251-2.494,10.358a13.641,13.641,0,0,1-11.554,5.9q-18.532.029-37.064.007-49.8,0-99.6,0c-7.047,0-12.525-4.258-14.023-10.9a22.963,22.963,0,0,1-.229-6.821c.117-1.542,1.232-2.273,3.187-2.275q12.119-.015,24.24,0c3.045,0,6.089-.033,9.134.019.935.016,1.337-.231,1.477-1.216.209-1.483.353-3.088,2.062-3.791,2.986-.405,4.278.885,3.816,3.838-.17,1.1-.4,2.186-.654,3.267-.663,2.777-1.675,3.62-4.519,3.647-4.21.041-8.42,0-12.631.015-2.626.006-2.684.066-2.694,2.614,0,1.345.038,2.692-.01,4.034-.045,1.275.5,1.79,1.765,1.775,2.455-.028,4.912-.007,7.369-.006,4.854,0,9.707.018,14.561-.007,3.427-.017,4.606-1.171,4.739-4.637.08-2.1-.018-4.211.04-6.314.06-2.13,1.154-3.5,2.825-3.6a3.5,3.5,0,0,1,3.382,3.378c.2,1.92,0,3.857.114,5.785a16.091,16.091,0,0,1-.319,3.835c-.18,1.044.243,1.552,1.307,1.541.409,0,.818.012,1.227.012q22.093,0,44.188,0c2.584,0,2.57-.026,2.255-2.542a52.346,52.346,0,0,1-.1-8.4,4.452,4.452,0,0,1,.441-1.688,3.131,3.131,0,0,1,3.233-1.9,3.056,3.056,0,0,1,2.535,2.76c.179,2.039.057,4.089.068,6.134a12.073,12.073,0,0,0,.355,3.472,3.382,3.382,0,0,0,3.347,2.124c7.72.1,15.441.04,23.161.041,1.124,0,1.569-.548,1.6-1.6.045-1.814.015-3.627.018-5.439,0-1.362-.93-1.4-1.932-1.4-4.8-.006-9.593.029-14.387-.013a3.565,3.565,0,0,1-3.4-3.211c-.649-3.092-1.332-6.176-1.961-9.271a19.252,19.252,0,0,0-19.139-15.639,3.294,3.294,0,0,1-.526,0c-2.188-.358-3.3.408-4.27,2.622-4.211,9.651-16.1,11.923-23.8,4.712a13.058,13.058,0,0,1-3.443-5.442c-.5-1.5-1.311-2.1-2.817-1.887A19.264,19.264,0,0,0,54,143.605a34.51,34.51,0,0,0-3.5,5.026c-1.1,1.662-2.3,1.968-3.781,1.1-1.675-1.444-1.884-2.357-.925-4.258a26.468,26.468,0,0,1,5.286-7.05c-.766-.037-1.255-.079-1.746-.079q-9.132-.007-18.265,0c-3.555,0-4.139-.6-4.14-4.218q0-17.475.019-34.952A3.324,3.324,0,0,0,25.8,96.462c-5.23-4.986-7.006-11.037-5.109-18.05a8.945,8.945,0,0,1,5.07-5.947,1.805,1.805,0,0,0,1.187-1.983c-.012-6.615-.118-13.235.075-19.845C27.722,26.65,46.373,5.179,69.975.974,71.6.685,73.3.724,74.836,0H77.3A2.687,2.687,0,0,0,79.4,0H93.813a2.687,2.687,0,0,0,2.108,0H98.03c2.364.461,4.739.869,7.09,1.391a53.252,53.252,0,0,1,40.415,42.761c.913,5.411.7,10.843.746,16.276.03,3.452.017,6.9,0,10.357,0,.687.067,1.193.816,1.516,3.842,1.652,5.607,4.832,6.042,8.78a17.386,17.386,0,0,1-5.656,15.344,3.332,3.332,0,0,0-1.217,2.856c.091,2.279-.071,4.569.055,6.844.112,2.027-.545,3.371-2.587,3.878-1.6.146-2.675-.7-3.124-2.507a24.915,24.915,0,0,1-.22-4.019c-.065-.779.465-1.876-.773-2.2a2.682,2.682,0,0,0-2.928,1.695,41.8,41.8,0,0,1-2.206,5.158c-6.6,12.5-16.846,19.725-30.948,21.359a4.732,4.732,0,0,0-.7.086c-.548.15-1.3.177-1.26.95.037.824.812.763,1.354.734a32.814,32.814,0,0,1,10.574,1.29,7.833,7.833,0,0,0,2.1.139q11.228,0,22.458,0c2.245,0,2.34-.1,2.347-2.4.012-3.685-.006-7.37.009-11.054a4.912,4.912,0,0,1,.81-3.171c.644-.814,1.432-1.418,2.569-.857" transform="translate(0.874)"/>
        <path id="Trazado_212251" data-name="Trazado 212251" d="M79.888,0A1.6,1.6,0,0,1,77.78,0Z" transform="translate(16.906)" fill="#212121"/>
        <path id="Trazado_212252" data-name="Trazado 212252" d="M66.321,0a1.6,1.6,0,0,1-2.108,0Z" transform="translate(13.957)" fill="#212121"/>
        <path id="Trazado_212253" data-name="Trazado 212253" d="M57.683,144.22c-.039-1.867-.063-3.735-.123-5.6-.062-1.922-1.057-3.105-2.6-3.14-1.594-.037-2.639,1.193-2.662,3.216-.028,2.4.027,4.8-.017,7.2-.054,2.919-1.449,4.292-4.342,4.3-7.784.013-15.568-.019-23.351.03-1.174.007-1.66-.223-1.59-1.513a53.557,53.557,0,0,0,0-6.142c-.086-1.421.28-1.9,1.788-1.87,4.8.1,9.6.043,14.4.035,2.318,0,2.986-.55,3.474-2.808.246-1.142.475-2.287.7-3.433.6-3-.247-4.048-3.227-4.015a2.187,2.187,0,0,0,1.839-2.317,16.07,16.07,0,0,1,.616-2.886c1.914.51,3.02-.343,3.9-2.02A19.615,19.615,0,0,1,65.8,112.607c.424.655-.032,1.115-.39,1.555-3.188,3.926-4.393,8.613-5.062,13.465-.685,4.983-1.148,9.993-1.786,14.982-.078.616.149,1.478-.876,1.612" transform="translate(4.997 24.458)" fill="#c5cfd9"/>
        <path id="Trazado_212254" data-name="Trazado 212254" d="M126.5,97.26c-2.157.4-2.812,1.161-2.825,3.473-.023,4.217-.049,8.435.018,12.651.019,1.3-.237,1.852-1.715,1.838-8.257-.071-16.516-.03-24.773-.041a5.375,5.375,0,0,1-1.557-.189,31.146,31.146,0,0,0-10.4-1.208c-.769.027-1.629.269-1.7-1.094-.069-1.317.712-1.461,1.6-1.523a35.774,35.774,0,0,0,9.258-1.815c12.288-4.244,20.4-12.62,24.609-24.862.34-.987,3.209-2.266,4.232-1.875.534.2.413.655.418,1.034.019,1.581-.012,3.163.016,4.744.038,2.229.6,2.956,2.766,3.669q.031,2.6.061,5.2" transform="translate(18.158 17.941)" fill="#544f57"/>
        <path id="Trazado_212255" data-name="Trazado 212255" d="M135.34,15.51a2.583,2.583,0,0,1-2.581,2.558c-1.576.069-3.159.068-4.737.011-.861-.032-1.12.275-1.09,1.107.054,1.461.05,2.925,0,4.386-.06,1.884-1.128,2.98-2.763,2.922-1.564-.057-2.457-1.1-2.493-2.968a29.051,29.051,0,0,1,.018-3.507c.15-1.473-.213-2.162-1.865-1.954a23.831,23.831,0,0,1-3.855.017,2.605,2.605,0,1,1-.206-5.207,42.352,42.352,0,0,1,4.734-.032c.915.033,1.232-.259,1.187-1.188-.071-1.46-.046-2.925-.007-4.386a2.588,2.588,0,0,1,2.5-2.81,2.682,2.682,0,0,1,2.746,2.79,30.439,30.439,0,0,1-.007,3.858c-.1,1.3.2,1.9,1.667,1.748a24.218,24.218,0,0,1,4.031,0,2.7,2.7,0,0,1,2.718,2.657" transform="translate(24.619 0.969)"/>
        <path id="Trazado_212256" data-name="Trazado 212256" d="M141.871,107.3c-3.451,0-3.449,0-3.452,3.482a21.984,21.984,0,0,1-.05,2.454,2.507,2.507,0,0,1-2.666,2.454,2.457,2.457,0,0,1-2.521-2.581c-.077-1.518-.084-3.046-.013-4.564.049-1.032-.349-1.309-1.322-1.264-1.46.068-2.927.056-4.387,0a2.5,2.5,0,0,1-2.693-2.593,2.57,2.57,0,0,1,2.687-2.638,25.649,25.649,0,0,1,4.034.011c1.489.158,1.782-.481,1.684-1.783a32.672,32.672,0,0,1,0-3.86,2.613,2.613,0,1,1,5.22-.083,34.016,34.016,0,0,1,.006,4.386c-.083,1.143.348,1.4,1.39,1.331,1.34-.085,2.693-.054,4.037-.012,1.881.06,3.013,1.138,2.953,2.743-.057,1.561-1.105,2.454-2.972,2.516-.644.021-1.288,0-1.932,0" transform="translate(27.119 20.353)"/>
        <path id="Trazado_212257" data-name="Trazado 212257" d="M13.643,47.343c0,3.242,0,3.242,3.3,3.243.878,0,1.76-.051,2.632.029A2.566,2.566,0,0,1,22.025,53.3a2.527,2.527,0,0,1-2.576,2.542c-1.519.061-3.046.079-4.564,0-1.027-.056-1.307.319-1.261,1.293.069,1.46.06,2.927,0,4.387a2.613,2.613,0,1,1-5.221.068c-.086-1.575-.06-3.16-.017-4.739.019-.751-.218-1.027-.991-1-1.519.05-3.043.043-4.564,0A2.6,2.6,0,0,1,0,53.18,2.625,2.625,0,0,1,2.76,50.6c1.52-.054,3.045-.066,4.564,0,.879.04,1.1-.268,1.065-1.1-.063-1.4-.047-2.81-.009-4.213.05-1.909,1.07-3.1,2.612-3.115s2.583,1.174,2.645,3.057c.023.7,0,1.4,0,2.107" transform="translate(0 9.168)"/>
        <path id="Trazado_212258" data-name="Trazado 212258" d="M51.034,56.125c5.877-1.494,11.822-2.723,17.62-4.535,10.005-3.126,19.784-6.751,28.49-12.769,2.559-1.768,2.543-1.787,4.238.751,4.365,6.536,9.417,12.387,16.386,16.3a13.221,13.221,0,0,0,3,1.421c1.686.439,1.989,1.4,1.967,3.023-.1,7.257-.033,14.516-.044,21.774-.027,16.958-11.151,30.266-27.832,33.284a24.9,24.9,0,0,1-2.616.2c-4.43.281-8.865.046-13.3.123a8.053,8.053,0,0,0-1.225.01c-5.627.984-9.98-1.685-13.991-5.042A35.529,35.529,0,0,1,51.639,91.421a3.105,3.105,0,0,1-.13-1.72c.3-.632.957-.8,1.49-1.132,2.983-1.843,2.928-4.589-.1-6.39-.769-.458-1.825-.542-2.2-1.566a2.652,2.652,0,0,1,.155-1.912c.564-.616,1.271-.438,1.967-.363,5.309.582,9.323-1.512,12.2-5.93a3.752,3.752,0,0,0,.632-1.8A2.034,2.034,0,0,0,64.46,68.3a2.071,2.071,0,0,0-2.5.732c-.5.577-.817,1.282-1.259,1.9a7.951,7.951,0,0,1-8.436,2.849c-.823-.269-1.511-.649-1.676-1.6-.228-4.815-.079-9.627-.085-14.439a2.357,2.357,0,0,1,.533-1.618" transform="translate(10.967 8.166)" fill="#fecabd"/>
        <path id="Trazado_212259" data-name="Trazado 212259" d="M68.047,4.394c6.843.024,13.707-.478,20.522.351A46.234,46.234,0,0,1,112.733,15.13a47.346,47.346,0,0,1,16.6,27.159,36.206,36.206,0,0,1,.95,7.811c0,6.324.015,12.648.018,18.973a2.253,2.253,0,0,1-2.354,2.291c-.789-.057-.51-.668-.515-1.054-.032-2.167-.016-4.334-.017-6.5a2.836,2.836,0,0,0-2.113-3.068c-8.038-2.2-13.4-7.824-18.206-14.159a54.281,54.281,0,0,1-4.493-7.115c-1.39-2.58-2.908-2.817-5.126-.842-5.864,5.218-12.8,8.56-20,11.432a164.428,164.428,0,0,1-22.959,6.96,4.619,4.619,0,0,1-.874.044c-.973-1.878-.572-3.911-.421-5.83.374-4.77.282-9.564.965-14.32,1.286-8.949,3.048-17.741,7.314-25.837A40.709,40.709,0,0,1,64.431,6.5a4.419,4.419,0,0,1,3.617-2.106" transform="translate(11.523 0.927)" fill="#544f57"/>
        <path id="Trazado_212260" data-name="Trazado 212260" d="M51.631,144.235c.818-2.431.718-4.995,1.069-7.493.868-6.187.931-12.523,3.535-18.376A14.943,14.943,0,0,1,59.07,113.8a1.672,1.672,0,0,0,.674-1.176c1.808-.463,2.662.049,3.289,2.037a14.191,14.191,0,0,0,26.9-.307c.475-1.534,1.136-1.837,2.638-1.882,5.591-.169,10.654,1.091,15.019,4.742,4.428,3.7,6.375,8.655,7.3,14.165.376,2.245.96,4.456,1.349,6.7a2.916,2.916,0,0,0,2.537,2.712c5.025.262,10.053.049,15.079.112,1.954.024,1.955.007,1.956,2.011,0,1.287-.046,2.576.015,3.86.047.988-.436,1.376-1.317,1.48a13.123,13.123,0,0,1-1.576.068q-11.672,0-23.343,0a3.99,3.99,0,0,1-2.685-.581c-.672-2.712-.214-5.468-.3-8.2-.084-2.717-.814-3.983-2.552-4.042-1.826-.061-2.8,1.287-2.72,4.053.1,3.315-.471,6.67.539,9.935.157.511.027.774-.549.73-.233-.018-.467,0-.7,0q-24.3,0-48.6,0c-.347,0-.694-.039-1.2-.068a21.143,21.143,0,0,0,.8-5.9" transform="translate(11.048 24.443)" fill="#e6ebf0"/>
        <path id="Trazado_212261" data-name="Trazado 212261" d="M73.667,4.371c-3.214,1.058-4.441,3.987-5.891,6.563-3.709,6.587-5.5,13.835-6.733,21.225A108.966,108.966,0,0,0,59.535,48.3c-.049,2.9-.236,5.82-.27,8.736a89.923,89.923,0,0,1-12.292,2.437A106.944,106.944,0,0,1,32.9,60.926a2.651,2.651,0,0,0-2.773,2.942c-.04,1.988.024,3.98-.034,5.966-.015.509.431,1.573-.589,1.4-.81-.141-2.138.016-2.247-1.428-.013-.175-.007-.352-.006-.527.015-6.961-.271-13.94.119-20.88A45.151,45.151,0,0,1,37.451,22.538,47.535,47.535,0,0,1,59.609,6.865,44.923,44.923,0,0,1,73.667,4.371" transform="translate(5.903 0.95)" fill="#454045"/>
        <path id="Trazado_212262" data-name="Trazado 212262" d="M55.346,86.229c2.006,10.244,7.589,17.986,16.3,23.639a14.7,14.7,0,0,0,8.92,2.385c5.082-.178,10.178-.009,15.268.012a8.089,8.089,0,0,1-3.124.259c-8.434.011-16.868.032-25.3-.026-16.685-.113-29.826-11.044-32.956-27.416a29.14,29.14,0,0,1-.493-5.235c-.055-7.613-.029-15.228-.023-22.841,0-.651-.258-1.421.89-1.494,6.664-.427,13.218-1.67,19.8-2.7q0,8.281-.009,16.562c-1.5.375-1.921-1.009-2.72-1.731a15.327,15.327,0,0,1-1.27-1.882c-.784-.958-1.738-1.447-2.908-.747a2.108,2.108,0,0,0-.811,2.913,11.7,11.7,0,0,0,5.535,5.863c.779.385,1.86.415,2.195,1.485l-.018,2.166c-.758.657-1.648.413-2.505.357a10.24,10.24,0,0,0-6.2,1.38c-2.665,1.637-2.692,4.177-.017,5.769a10.85,10.85,0,0,0,7.406,1.366c.676-.1,1.345-.453,2.04-.083" transform="translate(7.371 11.479)" fill="#e9ab9c"/>
        <path id="Trazado_212263" data-name="Trazado 212263" d="M59.994,113.835c-2.782.533-5.463,1.436-8.385,1.385-7.543-.13-15.089-.078-22.633-.012-1.4.012-1.777-.408-1.77-1.785q.082-14.65.01-29.3c0-1.311.235-1.574,1.691-1.415,2.2.241,2.821,1.427,3.538,3.281,4.785,12.357,13.5,20.5,26.384,24.017a1.678,1.678,0,0,1,.429.284c.773,1.072.377,2.387.738,3.545" transform="translate(5.913 17.968)" fill="#454045"/>
        <path id="Trazado_212264" data-name="Trazado 212264" d="M75.151,120.008c-4.918,1.293-10.313-2.712-10.641-7.944-.1-1.575.016-3.163-.067-4.739-.049-.962.329-1.165,1.212-1.16q7.815.053,15.63,0c.864,0,1.324.162,1.219,1.146-.088.81-.061,1.632-.085,2.451a2.955,2.955,0,0,1-2.167.493c-2.751.015-5.5-.013-8.251.012-1.92.018-2.264.41-1.97,2.33.5,3.288,1.91,5.98,5.12,7.411" transform="translate(14.006 23.075)" fill="#e9ab9c"/>
        <path id="Trazado_212265" data-name="Trazado 212265" d="M74.265,119.373a3.428,3.428,0,0,1-3.131-1.5,12,12,0,0,1-2.606-6.888c-.094-1.415.309-1.939,1.818-1.9,3.726.107,7.458.039,11.188.041.354,5.473-2.477,9.466-7.268,10.246" transform="translate(14.892 23.71)" fill="#fecabd"/>
        <path id="Trazado_212266" data-name="Trazado 212266" d="M31.709,81.842c-7.095-.828-12.271-9.48-9.672-15.918A4.718,4.718,0,0,1,26.784,63c2.374.181,3.893,1.517,4.5,4.085a9.186,9.186,0,0,0-5.511-.309c-1.813.576-2.744,1.832-2.352,3.32.411,1.563,1.708,2.227,3.6,1.843,2.549-.517,4.372.907,4.365,3.426a44.136,44.136,0,0,0,.319,6.475" transform="translate(4.642 13.691)" fill="#e9ab9c"/>
        <path id="Trazado_212267" data-name="Trazado 212267" d="M114.239,67.067c.773-2.746,2.53-4.134,4.963-4.077A4.7,4.7,0,0,1,123.829,67a12.647,12.647,0,0,1-8.7,14.695c-1.088.317-1.376.112-1.186-.971a31.041,31.041,0,0,0,.225-5.253c.011-2.672,1.747-4.067,4.436-3.506a2.722,2.722,0,0,0,3.22-1.128,2.383,2.383,0,0,0-.3-3.073c-.984-1.059-2.363-1.186-3.709-1.305a13.155,13.155,0,0,0-3.581.605" transform="translate(24.755 13.691)" fill="#e9ab9c"/>
        <path id="Trazado_212268" data-name="Trazado 212268" d="M96.9,142.694c9.013,0,18.028-.019,27.041.039,1.321.009,1.816-.373,1.658-1.685-.192-1.607.7-3.678-.382-4.721-.992-.953-3.015-.264-4.583-.284-3.394-.04-6.789,0-10.184-.021-.565,0-1.181.181-1.678-.279,5.324-.021,10.648-.021,15.97-.083.981-.012,1.172.382,1.153,1.243-.052,2.4-.072,4.8-.033,7.2.015.863-.3,1.082-1.118,1.08-8.134-.027-16.269,0-24.4-.035a3.367,3.367,0,0,1-3.443-2.452" transform="translate(21.061 29.487)" fill="#c5cfd9"/>
        <path id="Trazado_212269" data-name="Trazado 212269" d="M9.155,139.932a9.5,9.5,0,0,1-.446-1.094c-.788-2.9-.6-3.138,2.381-3.138,2.861,0,5.723.037,8.582-.019.965-.019,1.35.231,1.3,1.255-.1,1.92-.084,3.846-.117,5.768-3.284,1.416-9.147-.122-10.92-2.084a3.912,3.912,0,0,0-.779-.687" transform="translate(1.807 29.491)" fill="#fecabd"/>
        <path id="Trazado_212270" data-name="Trazado 212270" d="M125.113,142.708c-.035-2.037-.057-4.074-.113-6.11-.019-.68.246-.913.923-.908,3.558.023,7.115.03,10.673,0,.814-.009.993.332.941,1.046a5.765,5.765,0,0,1-.774,3.164c-2.155,3.011-8.872,4.12-11.649,2.813" transform="translate(27.169 29.492)" fill="#fecabd"/>
        <path id="Trazado_212271" data-name="Trazado 212271" d="M9,139.173c1.546.478,2.74,1.622,4.289,2.151,2.446.835,4.933.536,7.41.62.215,2.459.213,2.387-2.188,2.475-4.247.156-7.7-1.031-9.511-5.246" transform="translate(1.957 30.25)" fill="#e8ab9c"/>
        <path id="Trazado_212272" data-name="Trazado 212272" d="M125.11,141.956c4.191.338,8.147-.3,11.649-2.813-1.234,3.332-3.822,4.827-7.178,5.236a19.149,19.149,0,0,1-2.275.03c-2.429,0-2.429,0-2.2-2.453" transform="translate(27.172 30.244)" fill="#e8ab9c"/>
        <path id="Trazado_212273" data-name="Trazado 212273" d="M54.287,108.9c-1.561-.908-.355-2.391-.738-3.545,2.255.236,4.466.807,6.75.839,1,.013,1.359.556,1.329,1.591-.034,1.231-.822,1.038-1.562,1.048q-2.891.038-5.78.067" transform="translate(11.62 22.9)" fill="#524e55"/>
        <path id="Trazado_212274" data-name="Trazado 212274" d="M92.2,73.637c-5.091-.252-8.965-2.46-11.391-6.989-.962-1.8-.621-3.373.78-4.137,1.426-.778,2.877-.207,3.836,1.6a7.406,7.406,0,0,0,13.354-.038c.928-1.785,2.431-2.342,3.866-1.548,1.36.754,1.713,2.27.823,3.982-2.37,4.559-6.215,6.814-11.269,7.134" transform="translate(17.445 13.513)"/>
        <path id="Trazado_212275" data-name="Trazado 212275" d="M52.448,73.24a13.522,13.522,0,0,1-7.927-6.649c-.9-1.825-.589-3.354.833-4.1s2.875-.168,3.835,1.606a6.424,6.424,0,0,0,3.238,3.243c3.483,2.236,7.965.309,9.516-2.275.269-.448.5-.919.768-1.367a2.668,2.668,0,0,1,3.573-1.233A2.633,2.633,0,0,1,67.4,66.079,12.542,12.542,0,0,1,58.523,73.3a16.2,16.2,0,0,1-6.075-.062" transform="translate(9.566 13.513)"/>
        <path id="Trazado_212276" data-name="Trazado 212276" d="M73.894,89.324a12.51,12.51,0,0,1-11.267-7.058c-.945-1.788-.528-3.32.962-4.06,1.428-.71,2.749-.169,3.69,1.595a7.434,7.434,0,0,0,13.362.052c.991-1.855,2.364-2.4,3.822-1.595,1.441.794,1.788,2.318.818,4.11a12.543,12.543,0,0,1-11.387,6.956" transform="translate(13.503 16.932)"/>
        <path id="Trazado_212277" data-name="Trazado 212277" d="M53.658,81.864a10.989,10.989,0,0,1-9.895-.99c-2.892-1.764-2.746-4.817.231-6.492a10.122,10.122,0,0,1,6.842-1.351,13.717,13.717,0,0,0,2.1.044c.863.449,1.766.836,2.581,1.36,2.813,1.808,2.754,4.977-.116,6.687a13.6,13.6,0,0,1-1.744.743" transform="translate(9.059 15.844)" fill="#e38fb6"/>
        <path id="Trazado_212278" data-name="Trazado 212278" d="M96.683,82.567a10.219,10.219,0,0,1-6.061-1.88,3.5,3.5,0,0,1,.057-5.993c3.226-2.3,8.791-2.423,12.026-.259,2.951,1.973,2.9,4.839-.173,6.635a10.892,10.892,0,0,1-5.849,1.5" transform="translate(19.336 15.842)" fill="#e38fb6"/>
        <path id="Trazado_212279" data-name="Trazado 212279" d="M73.268,68.082c1.52,0,3.042-.039,4.561.011a2.511,2.511,0,0,1,2.688,2.424A2.54,2.54,0,0,1,77.993,73.3q-4.821.137-9.649,0a2.606,2.606,0,1,1,.187-5.209c1.578-.05,3.158-.011,4.737-.011" transform="translate(14.307 14.795)" fill="#010100"/>
      </g>
    </g>
  </g>
</svg>
