<svg xmlns="http://www.w3.org/2000/svg" xmlns:xlink="http://www.w3.org/1999/xlink" width="610" height="235" viewBox="0 0 610 235">
  <defs>
    <clipPath id="clip-path">
      <rect id="Rect치ngulo_339482" data-name="Rect치ngulo 339482" width="217.167" height="173.285" fill="none"/>
    </clipPath>
    <clipPath id="clip-path-2">
      <rect id="Rect치ngulo_339483" data-name="Rect치ngulo 339483" width="217.167" height="140.024" fill="none"/>
    </clipPath>
  </defs>
  <g id="Grupo_984399" data-name="Grupo 984399" transform="translate(-179 -2199.755)">
    <g id="Grupo_984398" data-name="Grupo 984398">
      <path id="Trazado_212438" data-name="Trazado 212438" d="M15,0H595a15,15,0,0,1,15,15V220a15,15,0,0,1-15,15H15A15,15,0,0,1,0,220V15A15,15,0,0,1,15,0Z" transform="translate(179 2199.755)" fill="#f0f4ff"/>
      <g id="Grupo_984341" data-name="Grupo 984341" transform="translate(448.952 2255.155)" clip-path="url(#clip-path)">
        <path id="Trazado_212121" data-name="Trazado 212121" d="M214.066,11.531H27.291L7.6,73,.021,137.688a3.1,3.1,0,0,0,3.078,3.46H15.03s-1.729,25.314.571,25.314c3.1,0,14.726-25.314,14.726-25.314H199.611a3.1,3.1,0,0,0,3.078-2.739L217.145,14.991a3.1,3.1,0,0,0-3.078-3.46" transform="translate(0 6.822)" fill="#8498d9"/>
        <path id="Trazado_212122" data-name="Trazado 212122" d="M134.072,20.377A4.775,4.775,0,1,1,129.3,15.6a4.775,4.775,0,0,1,4.775,4.775" transform="translate(73.674 9.231)" fill="#fff"/>
        <path id="Trazado_212123" data-name="Trazado 212123" d="M124.072,20.377A4.775,4.775,0,1,1,119.3,15.6a4.775,4.775,0,0,1,4.775,4.775" transform="translate(67.757 9.231)" fill="#fff"/>
        <path id="Trazado_212124" data-name="Trazado 212124" d="M168.214,121H22.419c2.2-11.524,4.393-22.363,5.523-26.437a106.915,106.915,0,0,1,5.619-16.68A53.147,53.147,0,0,1,41.105,65.6C51.626,52.945,65.043,48.536,78.1,46.785c10.935-1.464,21.47-1.353,31.593-.955,10.76.446,21.137,1.83,30.146,5.252,9.025,3.47,16.346,9.168,20.914,17.46,4.632,8.436,7.624,44.837,7.466,52.461" transform="translate(13.264 26.962)" fill="#ffeae0"/>
        <path id="Trazado_212125" data-name="Trazado 212125" d="M126.024,68.3c-4.568-8.293-11.89-13.991-20.914-17.46a86.849,86.849,0,0,0-24-4.87,263.676,263.676,0,0,1,3.549,59.544c-.286,5.093-.732,10.187-1.305,15.248h50.137c.159-7.656-2.849-44.009-7.465-52.461" transform="translate(47.988 27.201)" fill="#ccb16c"/>
        <path id="Trazado_212126" data-name="Trazado 212126" d="M85.846,45.834c-2.563.191-5.143.446-7.753.8-13.05,1.751-26.468,6.176-36.988,18.829a53.11,53.11,0,0,0-7.544,12.272,107.261,107.261,0,0,0-5.619,16.7c-1.13,4.075-3.327,14.914-5.523,26.421H83.57C83,115.771,82.55,110.71,82.279,105.6a265.555,265.555,0,0,1,3.567-59.766" transform="translate(13.264 27.118)" fill="#ccb16c"/>
        <path id="Trazado_212127" data-name="Trazado 212127" d="M87.26,54.067s-5.87,5.065-11.511,5.065c-4.616,0-11.177-5.311-11.177-5.311l1.464-22.169,20.357.458Z" transform="translate(38.205 18.727)" fill="#e0785e"/>
        <path id="Trazado_212128" data-name="Trazado 212128" d="M92.522,11.278c-4.313-5.654-10.959-8.53-17.933-6.537C61.159,8.579,57.24,27.1,59.79,39.295A47.008,47.008,0,0,0,70.357,60.456a11.251,11.251,0,0,0,17.324,0A47.008,47.008,0,0,0,98.248,39.295c.937-4.487,2.3-17.494-5.725-28.016" transform="translate(34.942 2.432)" fill="#e0785e"/>
        <path id="Trazado_212129" data-name="Trazado 212129" d="M71.628,26.127a7.934,7.934,0,1,1-9.814-5.435,7.934,7.934,0,0,1,9.814,5.435" transform="translate(33.172 12.058)" fill="#e0785e"/>
        <path id="Trazado_212130" data-name="Trazado 212130" d="M63.02,19.528s.524,10.788,0,12.114-2.309.936-2.69-.592-1.654-11.169-1.654-11.169Z" transform="translate(34.716 11.554)" fill="#2b244a"/>
        <path id="Trazado_212131" data-name="Trazado 212131" d="M92.888,26.127a7.934,7.934,0,1,1-9.814-5.435,7.934,7.934,0,0,1,9.814,5.435" transform="translate(45.751 12.058)" fill="#e0785e"/>
        <path id="Trazado_212132" data-name="Trazado 212132" d="M81.876,18.751s-.524,12.027,0,13.352,2.309.936,2.69-.594,1.654-11.167,1.654-11.167Z" transform="translate(48.304 11.094)" fill="#2b244a"/>
        <path id="Trazado_212133" data-name="Trazado 212133" d="M73.439,22.107c.705,2.451,2.975.716,5.824,1.555,2.62.77,4.428.571,4.512-.834.1-1.7-2.341-3.758-6.142-3.858-3.559-.1-4.708,1.35-4.194,3.137" transform="translate(43.382 11.221)" fill="#2b244a"/>
        <path id="Trazado_212134" data-name="Trazado 212134" d="M72.921,20.771c-.2,2.543-2.768,1.3-5.391,2.7-2.41,1.283-4.221,1.453-4.587.094-.444-1.641,1.534-4.153,5.237-5.018,3.468-.81,4.885.372,4.742,2.227" transform="translate(37.204 10.818)" fill="#2b244a"/>
        <path id="Trazado_212135" data-name="Trazado 212135" d="M68.828,23.66a1.855,1.855,0,0,0-1.53-.907A1.752,1.752,0,0,0,65.785,24a6.075,6.075,0,0,0-.291,2.152,3.876,3.876,0,0,0,.7,2.415c.933,1.081,2.271.511,2.781-.6a5.374,5.374,0,0,0-.143-4.307" transform="translate(38.749 13.462)" fill="#2b244a"/>
        <path id="Trazado_212136" data-name="Trazado 212136" d="M69.806,32.975a.554.554,0,0,0-.274.926,5.608,5.608,0,0,0,3.931,2.122c3.242-.072,4.431-2.593,4.917-4.18a.557.557,0,0,0-.678-.694c-2.867.71-5.458,1.281-7.9,1.826" transform="translate(41.046 18.419)" fill="#fff"/>
        <path id="Trazado_212137" data-name="Trazado 212137" d="M71.326,24.209q-.666,2.28-1.334,4.558a3.263,3.263,0,0,0-.086,2.147A4.934,4.934,0,0,0,71.142,32.6c.731.719,1.857-.406,1.125-1.125a2.941,2.941,0,0,1-.9-1.2,3.437,3.437,0,0,1,.329-1.649q.583-1.994,1.167-3.989a.8.8,0,0,0-1.534-.423" transform="translate(41.272 13.992)" fill="#2b244a"/>
        <path id="Trazado_212138" data-name="Trazado 212138" d="M72.2,45.594a10.99,10.99,0,0,0,6.432-2.161,20.191,20.191,0,0,0,4.24-4.439.8.8,0,0,0-.285-1.089.813.813,0,0,0-1.089.285C79.232,41.271,76.23,43.97,72.2,44a.8.8,0,0,0,0,1.592" transform="translate(42.262 22.362)" fill="#2b244a"/>
        <path id="Trazado_212139" data-name="Trazado 212139" d="M104.706,15.229c-.594-2.139-1.937-4-4.25-4.36a11.659,11.659,0,0,0-5.073.5C92.974,7.042,90.468,2.1,85.455.483,81.7-.727,75.841.22,74.978,4.638A23.433,23.433,0,0,0,65.19,6.451c-2.459,1.089-5.33,2.965-6.394,5.555-.933,2.274.282,4.068,1.894,5.477a21.492,21.492,0,0,0-4.157,1.977,10.014,10.014,0,0,0-3.885,3.685c-1.639,3.25,1.07,5.736,3.92,6.755a6.6,6.6,0,0,0,4.662,3.849c2.391.606,4.423-.228,6.422-1.547,2.512-1.657,4.624-3.828,6.976-5.689,1.135-.9,2.941-2.518,4.479-2.058.758.228,1.425.665,2.2.856a7.951,7.951,0,0,0,2.469.2c3.39-.259,6.1-2.259,8.582-4.414a21.71,21.71,0,0,0,3.611,6.71,19.2,19.2,0,0,0,7.459,5.351s2.832-12.313,1.275-17.925" transform="translate(30.855 0)" fill="#2b244a"/>
        <path id="Trazado_212140" data-name="Trazado 212140" d="M57.468,11.051a4.66,4.66,0,0,0,3.059,4.175,6.235,6.235,0,0,0,3.153.318,9.27,9.27,0,0,0,1.676-.384c.288-.1.57-.2.85-.32.041-.018.567-.293.551-.3.145.04.6.958.734,1.125a6.515,6.515,0,0,0,.877.9,7.455,7.455,0,0,0,2.233,1.3,7.1,7.1,0,0,0,5.318-.154c.939-.4.129-1.773-.8-1.374a5.5,5.5,0,0,1-4.328-.1,5.586,5.586,0,0,1-1.875-1.342c-.463-.511-.7-1.3-1.283-1.684-.716-.463-1.426-.064-2.126.212a7.682,7.682,0,0,1-2.862.608c-1.7-.016-3.556-1.1-3.581-2.976a.8.8,0,0,0-1.592,0" transform="translate(34.001 6.083)" fill="#8c75b5"/>
        <path id="Trazado_212141" data-name="Trazado 212141" d="M78.312,17.119a23.233,23.233,0,0,0,2.981-9.462.8.8,0,0,0-.8-.8.813.813,0,0,0-.8.8,21.351,21.351,0,0,1-2.765,8.659.8.8,0,0,0,1.375.8" transform="translate(45.454 4.059)" fill="#8c75b5"/>
        <path id="Trazado_212142" data-name="Trazado 212142" d="M67,4.2a50.335,50.335,0,0,1,8.554,1.525.8.8,0,0,0,.423-1.534A52.835,52.835,0,0,0,67,2.609a.8.8,0,0,0-.8.8.813.813,0,0,0,.8.8" transform="translate(39.171 1.542)" fill="#8c75b5"/>
        <path id="Trazado_212143" data-name="Trazado 212143" d="M44.576,80.642a146.539,146.539,0,0,0-.479,19.639c.045,1.02,1.636,1.025,1.592,0a146.539,146.539,0,0,1,.479-19.639c.094-1.02-1.5-1.014-1.592,0" transform="translate(26.011 47.26)" fill="#2b244a"/>
        <path id="Trazado_212144" data-name="Trazado 212144" d="M94.453,80.642a146.538,146.538,0,0,1,.479,19.639c-.045,1.023,1.547,1.022,1.592,0a146.539,146.539,0,0,0-.479-19.639c-.092-1.012-1.686-1.022-1.592,0" transform="translate(55.881 47.26)" fill="#2b244a"/>
        <path id="Trazado_212145" data-name="Trazado 212145" d="M61.64,49.569a22.628,22.628,0,0,0,32.075.392c.737-.715-.39-1.838-1.125-1.125a21.037,21.037,0,0,1-29.824-.392c-.716-.735-1.842.392-1.125,1.125" transform="translate(36.334 28.52)" fill="#2b244a"/>
        <path id="Trazado_212146" data-name="Trazado 212146" d="M84.811,79.231a65.179,65.179,0,0,0,6.936-31.465c-.032-1.022-1.623-1.027-1.592,0a63.466,63.466,0,0,1-6.72,30.662c-.458.912.914,1.719,1.375.8" transform="translate(49.31 27.806)" fill="#2b244a"/>
        <path id="Trazado_212147" data-name="Trazado 212147" d="M62.919,77.916A63.467,63.467,0,0,1,56.2,47.255c.035-1.025-1.557-1.023-1.592,0a65.145,65.145,0,0,0,6.94,31.465c.46.914,1.834.11,1.374-.8" transform="translate(32.286 27.504)" fill="#2b244a"/>
        <path id="Trazado_212148" data-name="Trazado 212148" d="M75.583,26.231c.076-.089.154-.173.239-.255l.115-.1c.1-.086-.081.057.022-.019a2.942,2.942,0,0,1,.291-.189c.045-.025.091-.051.137-.075,0,0,.188-.088.116-.057s.072-.025.084-.03c.062-.021.123-.041.185-.059.1-.029.2-.051.3-.07.059-.013.1-.014.019,0,.064-.006.127-.011.193-.014.116,0,.231,0,.349,0,.064,0,.1.011.013,0l.15.027a2.9,2.9,0,0,1,.326.088c.049.016.1.032.143.049.126.048-.158-.081.053.024.091.046.18.092.266.143.054.033.107.067.159.1.011.008.129.1.072.051s.056.048.065.056q.072.062.138.129c.072.072.138.146.205.223-.072-.084.006.01.035.049s.068.1.1.158a.8.8,0,0,0,1.375-.8,4,4,0,0,0-3.027-1.877,3.9,3.9,0,0,0-3.252,1.331.8.8,0,1,0,1.125,1.125" transform="translate(43.918 14.057)" fill="#2b244a"/>
      </g>
      <g id="Grupo_984343" data-name="Grupo 984343" transform="translate(265.912 2247.787)" clip-path="url(#clip-path-2)">
        <path id="Trazado_212149" data-name="Trazado 212149" d="M199.611,136.156H3.1A3.1,3.1,0,0,1,.021,132.7L14.478,9.277a3.1,3.1,0,0,1,3.078-2.739h196.51A3.1,3.1,0,0,1,217.145,10L202.689,133.416a3.1,3.1,0,0,1-3.078,2.739" transform="translate(0 3.868)" fill="#ffc37a"/>
        <path id="Trazado_212150" data-name="Trazado 212150" d="M134.072,15.383a4.775,4.775,0,1,1-4.775-4.775,4.775,4.775,0,0,1,4.775,4.775" transform="translate(73.674 6.276)" fill="#fff"/>
        <path id="Trazado_212151" data-name="Trazado 212151" d="M124.072,15.383a4.775,4.775,0,1,1-4.775-4.775,4.775,4.775,0,0,1,4.775,4.775" transform="translate(67.757 6.276)" fill="#fff"/>
        <path id="Trazado_212152" data-name="Trazado 212152" d="M126.012,37.111a30.5,30.5,0,0,0-7.325-13.6,11.014,11.014,0,0,0-2.625-6.585c-2.028-2.472-4.786-3.939-7.382-5.708a11.57,11.57,0,0,1-3.4-3.506,24.856,24.856,0,0,0-2.512-3.745,10.932,10.932,0,0,0-6.6-3.333A12.327,12.327,0,0,0,88.127,2.19a5.271,5.271,0,0,0-.829.536A12.193,12.193,0,0,0,78.512.013c-3.379.108-5.892,2-7.949,4.4a19.527,19.527,0,0,0-5.681,3.339,13.393,13.393,0,0,0-4.635,8.681,5.071,5.071,0,0,1-1.509,3.085c-.654.692-1.331,1.362-1.988,2.052a48.814,48.814,0,0,0-3.766,4.38c-2.16,2.9-3.825,6.349-3.611,10.046a27.291,27.291,0,0,0,1.692,6.892c.188.565.385,1.128.6,1.686a25.454,25.454,0,0,0-2,8.495c-.369,4.326.333,9.072,4.8,10.949a11.522,11.522,0,0,0,6.074.645c1.238-.175,2.566-.536,3.775-.032a5.286,5.286,0,0,1,1.99,1.681c1.124,1.418,1.927,3.07,3.194,4.38a6.327,6.327,0,0,0,5.1,1.975c5.273-.417,7.807-5.246,9.647-9.59a23.812,23.812,0,0,0,8.84-3.7c2.676,4.164,6,8.565,11.384,8.807a7.982,7.982,0,0,0,6.263-2.765,15.967,15.967,0,0,1,2.59-2.48c1.214-.8,2.647-.756,4.014-1.081,4.616-1.1,7.368-5.676,8.571-9.948a29.465,29.465,0,0,0,.113-14.794" transform="translate(29.201 0)" fill="#2b244a"/>
        <path id="Trazado_212153" data-name="Trazado 212153" d="M168.813,114.25H27.7c2.34-11.746,1.106-18.742,2.3-22.9,1.579-5.619-4.46-10.023-1.9-15.457A52.873,52.873,0,0,1,36.01,63.615c11-12.658,25.032-17.075,38.691-18.836,11.433-1.466,22.449-1.356,33.049-.958,11.25.436,22.094,1.811,31.524,5.232,9.431,3.468,17.086,9.155,21.869,17.454,4.953,8.66,8.032,41.482,7.669,47.743" transform="translate(16.247 25.774)" fill="#ffeae0"/>
        <path id="Trazado_212154" data-name="Trazado 212154" d="M94.8,75.657q1.366,9.7,2.733,19.4c.142,1.011,1.676.581,1.534-.422q-1.366-9.7-2.733-19.4c-.142-1.009-1.676-.579-1.534.423" transform="translate(56.084 44.172)" fill="#2b244a"/>
        <path id="Trazado_212155" data-name="Trazado 212155" d="M14.523,77.249l4.008,29.611H46.89L35.113,56.053Z" transform="translate(8.593 33.164)" fill="#ffeae0"/>
        <path id="Trazado_212156" data-name="Trazado 212156" d="M31.025,66.047q3.968,12.689,7.936,25.38,1.461,4.672,2.924,9.345c.3.976,1.842.559,1.534-.422q-3.968-12.692-7.936-25.38Q34.02,70.3,32.559,65.623c-.3-.974-1.842-.559-1.534.423" transform="translate(18.332 38.498)" fill="#2b244a"/>
        <path id="Trazado_212157" data-name="Trazado 212157" d="M72.5,52.323q-.487,21.879-.972,43.759l-.277,12.475a.8.8,0,0,0,1.592,0q.487-21.881.973-43.761l.277-12.474a.8.8,0,0,0-1.592,0" transform="translate(42.155 30.502)" fill="#2b244a"/>
        <path id="Trazado_212158" data-name="Trazado 212158" d="M67.59,43.733q-2.33,4.861-4.258,9.9c-.613,1.6-1.241,3.2-1.765,4.832a4.789,4.789,0,0,0,.269,4.138c1.7,2.558,5.079,1.787,7.423.8,3.427-1.444,6.833-2.94,10.25-4.41.936-.4.126-1.775-.805-1.374l-8.533,3.674a14.3,14.3,0,0,1-4.3,1.479,2.72,2.72,0,0,1-2.945-1.531c-.435-1.343.334-2.841.783-4.083q.747-2.075,1.555-4.127,1.7-4.312,3.694-8.495c.441-.92-.931-1.729-1.374-.8" transform="translate(36.227 25.633)" fill="#2b244a"/>
        <path id="Trazado_212159" data-name="Trazado 212159" d="M82.91,44.535q1.963,4.1,3.627,8.324.843,2.137,1.62,4.3c.442,1.224,1.238,2.758.783,4.084-1.023,2.988-5.268.9-7.065.127l-8.706-3.75c-.931-.4-1.744.969-.8,1.374,3.414,1.471,6.819,2.967,10.245,4.412,2.345.988,5.724,1.757,7.425-.8a4.8,4.8,0,0,0,.271-4.137c-.519-1.631-1.154-3.236-1.768-4.832q-1.934-5.033-4.255-9.9c-.441-.923-1.814-.116-1.374.8" transform="translate(42.568 25.633)" fill="#2b244a"/>
        <path id="Trazado_212160" data-name="Trazado 212160" d="M88.127,52.14s-5.7,16.275-11.344,16.275c-4.617,0-11.344-16.521-11.344-16.521L66.9,29.725l20.357.458Z" transform="translate(38.718 17.587)" fill="#e0785e"/>
        <path id="Trazado_212161" data-name="Trazado 212161" d="M93.389,10.9C89.078,5.248,82.431,2.37,75.456,4.365,62.026,8.2,58.107,26.719,60.657,38.918A47.008,47.008,0,0,0,71.224,60.079a11.251,11.251,0,0,0,17.324,0A47.008,47.008,0,0,0,99.115,38.918c.937-4.487,2.3-17.494-5.725-28.016" transform="translate(35.455 2.209)" fill="#e0785e"/>
        <path id="Trazado_212162" data-name="Trazado 212162" d="M72.494,25.75a7.934,7.934,0,1,1-9.814-5.435,7.931,7.931,0,0,1,9.814,5.435" transform="translate(33.685 11.836)" fill="#e0785e"/>
        <path id="Trazado_212163" data-name="Trazado 212163" d="M104.64,32.09a2.408,2.408,0,0,0-1.574-.326c-.864-1.456-.673-4.337-1.708-5.658-1.265-1.616.07-3.7-.708-5.66s-1.581-4.353-2.475-6.277a27.987,27.987,0,0,0-3.1-5.394C92.841,6.155,86.766,3.392,83.524,2.76c-4.092-.8-9.532,1.849-13.359,3.4-2.268.92-3.081,2.717-5.322,3.715-1.009.449-2.1,2.723-3.008,3.4a1.576,1.576,0,0,0-.922-.678c-1.116-.191-1.9,18.568-.772,18.358a20.773,20.773,0,0,0,10.838-5.609,17.734,17.734,0,0,0,1.751-1.571c.544-.562,1.154-1.639,1.873-1.913a11.754,11.754,0,0,1,2.252-.24A16.914,16.914,0,0,0,79,21.152a18.036,18.036,0,0,0,4.106-1.8,18.209,18.209,0,0,0,2.924-2.208,7.332,7.332,0,0,0,2.354,3.771,11.7,11.7,0,0,0,4,1.931,9.371,9.371,0,0,1,2.02.68c.442.272.355.167.2.641-.115.369-.251.726-.352,1.1a14.123,14.123,0,0,0,4.968,14.7c.955.692,6.362-7.194,5.415-7.882" transform="translate(35.258 1.547)" fill="#2b244a"/>
        <path id="Trazado_212164" data-name="Trazado 212164" d="M74.044,20.394c.2,2.543,2.768,1.3,5.391,2.7,2.41,1.283,4.221,1.453,4.587.094.444-1.641-1.534-4.153-5.237-5.018-3.468-.81-4.885.372-4.742,2.227" transform="translate(43.802 10.595)" fill="#2b244a"/>
        <path id="Trazado_212165" data-name="Trazado 212165" d="M73.544,20.394c-.2,2.543-2.768,1.3-5.391,2.7-2.41,1.283-4.221,1.453-4.587.094-.444-1.641,1.534-4.153,5.237-5.018,3.468-.81,4.885.372,4.742,2.227" transform="translate(37.573 10.595)" fill="#2b244a"/>
        <path id="Trazado_212166" data-name="Trazado 212166" d="M79.055,23.283a1.856,1.856,0,0,0-1.53-.907,1.75,1.75,0,0,0-1.514,1.245,6.071,6.071,0,0,0-.291,2.15,3.875,3.875,0,0,0,.7,2.416c.933,1.081,2.271.511,2.781-.6a5.374,5.374,0,0,0-.143-4.307" transform="translate(44.8 13.239)" fill="#2b244a"/>
        <path id="Trazado_212167" data-name="Trazado 212167" d="M69.451,23.283a1.856,1.856,0,0,0-1.53-.907,1.75,1.75,0,0,0-1.514,1.245,6.071,6.071,0,0,0-.291,2.15,3.875,3.875,0,0,0,.7,2.416c.933,1.081,2.271.511,2.781-.6a5.374,5.374,0,0,0-.143-4.307" transform="translate(39.117 13.239)" fill="#2b244a"/>
        <path id="Trazado_212168" data-name="Trazado 212168" d="M59.509,23.941a35.892,35.892,0,0,0,3.15,13.976c.419.934,1.791.126,1.374-.8A33.935,33.935,0,0,1,61.1,23.941a.8.8,0,0,0-1.592,0" transform="translate(35.209 13.71)" fill="#2b244a"/>
        <path id="Trazado_212169" data-name="Trazado 212169" d="M72.013,24.466q-.341,1.743-.681,3.487c-.221,1.13-.517,2.273-.633,3.419a2.174,2.174,0,0,0,1.179,2.408,4.369,4.369,0,0,0,2.8-.107.8.8,0,0,0-.423-1.534,4.708,4.708,0,0,1-1.157.231,1.858,1.858,0,0,1-.686-.081c-.065-.033-.062-.07-.032-.014-.064-.118-.006.022-.027-.04a1.456,1.456,0,0,1-.089-.458,5.913,5.913,0,0,1,.164-1.179q.559-2.855,1.116-5.708a.816.816,0,0,0-.555-.979.8.8,0,0,0-.979.555" transform="translate(41.818 14.132)" fill="#2b244a"/>
        <path id="Trazado_212170" data-name="Trazado 212170" d="M69.847,31.556a.554.554,0,0,0-.485.836,5.606,5.606,0,0,0,3.317,2.991c3.167.7,4.918-1.469,5.767-2.894a.557.557,0,0,0-.493-.836c-2.954.01-5.607-.048-8.1-.1" transform="translate(40.992 18.67)" fill="#2b244a"/>
        <path id="Trazado_212171" data-name="Trazado 212171" d="M72.21,44.373c4.96.415,9.361-2.37,12.733-5.741a.8.8,0,0,0-1.127-1.125c-3.1,3.1-7.048,5.657-11.606,5.275-1.02-.086-1.015,1.507,0,1.592" transform="translate(42.271 22.052)" fill="#2b244a"/>
        <path id="Trazado_212172" data-name="Trazado 212172" d="M83.828,26.907c2.516,3.914,6.539,7.864,11.632,6.807.74-.153,1.426-.552,2.1-.03.4.314.7.764,1.1,1.092a4.809,4.809,0,0,0,2.485,1.035,5.194,5.194,0,0,0,4.863-2.069c.611-.823-.77-1.617-1.375-.8a3.637,3.637,0,0,1-4.38.985c-.8-.39-1.23-1.176-1.943-1.676a2.826,2.826,0,0,0-2.615-.237C91.094,33.3,87.471,29.633,85.2,26.1c-.551-.858-1.929-.062-1.374.8" transform="translate(49.521 15.226)" fill="#8c75b5"/>
        <path id="Trazado_212173" data-name="Trazado 212173" d="M73.776,1.428A6.609,6.609,0,0,0,73.8,9.736a21.459,21.459,0,0,0,3.371,3.086,2.722,2.722,0,0,1,1.264,2.039,5.781,5.781,0,0,1-1.015,2.711.8.8,0,0,0,1.374.8c.783-1.378,1.6-3.031,1.055-4.643-.489-1.447-1.885-2.271-3-3.2A8.016,8.016,0,0,1,74.1,7.04a4.959,4.959,0,0,1,.8-4.487c.626-.8-.493-1.931-1.125-1.125" transform="translate(42.789 0.681)" fill="#8c75b5"/>
        <path id="Trazado_212174" data-name="Trazado 212174" d="M55.874,11.842c-.234,2.284-.331,4.759,1.2,6.647,1.566,1.931,4.032,1.9,6.163.985a28.735,28.735,0,0,1,3.433-1.625c.659-.183.844.3,1.24.778a9.314,9.314,0,0,0,1.211,1.243c1.488,1.23,3.885,1.721,5.278.057.654-.78-.466-1.912-1.125-1.125-1.39,1.66-3.384-.263-4.323-1.4-.552-.672-1.086-1.28-2.028-1.227a7.583,7.583,0,0,0-2.777,1.089c-1.67.861-4.013,2.1-5.628.466-1.514-1.534-1.253-3.931-1.052-5.884.105-1.019-1.488-1.011-1.592,0" transform="translate(32.979 6.556)" fill="#8c75b5"/>
        <path id="Trazado_212175" data-name="Trazado 212175" d="M81.685,18.077a12.633,12.633,0,0,0,4.571,3.987,6.135,6.135,0,0,0,5.536-.275,5.929,5.929,0,0,0,1.958-1.849c.11-.162.215-.457.39-.551.244-.131.673-.006.93,0a5.6,5.6,0,0,0,1.313-.14,5.526,5.526,0,0,0,3.97-3.543c.347-.965-1.191-1.382-1.534-.422A3.934,3.934,0,0,1,95.069,17.8c-.872-.019-1.571-.075-2.2.629a10.339,10.339,0,0,1-1.45,1.714c-3.32,2.45-6.593-.657-8.608-3.186-.638-.8-1.757.331-1.125,1.125" transform="translate(48.218 8.72)" fill="#8c75b5"/>
        <path id="Trazado_212176" data-name="Trazado 212176" d="M46.773,47.164c-.263-1.343-.957-2.641-2.387-2.548a3.94,3.94,0,0,0-2.7,1.878c-1.447,2.134-4.332,10.177-4.254,10.389-1.943-5.209-4.024-10.107-5.969-15.316a62.629,62.629,0,0,0-4.141-9.652A3.4,3.4,0,0,0,24.86,30.05a2.622,2.622,0,0,0-2.376,1.5,6.533,6.533,0,0,0-.583,2.889,56.4,56.4,0,0,0,1.132,11.032,103.233,103.233,0,0,0-8.455-11.98c-.974-1.162-2.44-2.411-3.823-1.787a3.05,3.05,0,0,0-1.4,3.188c.8,6.322,4.161,12.722,6.534,18.406-2.52-3.427-8.272-9.652-9.3-10.056a2.943,2.943,0,0,0-3.1.441,3.433,3.433,0,0,0-.718,3.39c2.4,7.528,3.976,12.025,7.8,18.473,2.4,4.051,6.2,10.591,9.119,14.288,2.992,3.8,6.588,4.831,11.686,4.332,9.289-.909,11.992-10.5,13.478-18.21.746-3.869,1.421-7.755,1.894-11.668a22.827,22.827,0,0,0,.035-7.121" transform="translate(1.537 17.776)" fill="#e0785e"/>
        <path id="Trazado_212177" data-name="Trazado 212177" d="M13.122,64.606l2.23,13.231s14.035-.236,26.83-6.9L37.764,55.055Z" transform="translate(7.764 32.573)" fill="#e0785e"/>
        <path id="Trazado_212178" data-name="Trazado 212178" d="M14.6,39.767q2.273,7,5.1,13.8c.387.933,1.927.524,1.534-.423q-2.827-6.795-5.1-13.8c-.315-.969-1.851-.555-1.534.423" transform="translate(8.61 22.952)" fill="#37374c"/>
        <path id="Trazado_212179" data-name="Trazado 212179" d="M9.968,44.073q2.359,4.742,4.719,9.483c.455.917,1.829.111,1.374-.8q-2.359-4.742-4.719-9.483c-.455-.917-1.829-.111-1.374.8" transform="translate(5.844 25.361)" fill="#37374c"/>
        <path id="Trazado_212180" data-name="Trazado 212180" d="M13.989,55.683a23.062,23.062,0,0,1,11.277-6.655.8.8,0,0,0-.423-1.534,24.594,24.594,0,0,0-11.979,7.064c-.7.748.425,1.877,1.125,1.125" transform="translate(7.481 28.084)" fill="#37374c"/>
        <path id="Trazado_212181" data-name="Trazado 212181" d="M21.232,60.3a22.406,22.406,0,0,1,3.732-11.7c.567-.856-.812-1.655-1.375-.8A23.983,23.983,0,0,0,19.64,60.3c-.03,1.025,1.561,1.023,1.592,0" transform="translate(11.62 28.062)" fill="#37374c"/>
        <path id="Trazado_212182" data-name="Trazado 212182" d="M16.337,80.942a45.677,45.677,0,0,0,28.747-5.886.8.8,0,0,0-.8-1.374A44.3,44.3,0,0,1,16.337,79.35c-1.014-.127-1,1.466,0,1.592" transform="translate(9.218 43.523)" fill="#2b244a"/>
      </g>
      <path id="Trazado_212439" data-name="Trazado 212439" d="M-2419.764,11740H-2430a5,5,0,0,1-5-5v-30a5,5,0,0,1,5-5h160a5,5,0,0,1,5,5v30a5,5,0,0,1-5,5h-135.236l-7.263,13Z" transform="translate(2937.001 -9485.246)" fill="#c4d1ff"/>
      <path id="Trazado_212440" data-name="Trazado 212440" d="M4.914,17a2.281,2.281,0,0,1-.086-.766,2.863,2.863,0,0,1-2.156.922,2.594,2.594,0,0,1-1.84-.723,2.186,2.186,0,0,1-.684-1.746,2.527,2.527,0,0,1,1.16-2.121,5.266,5.266,0,0,1,2.965-.738l1.031.016.109-.508a1.764,1.764,0,0,0,.023-.492.846.846,0,0,0-.277-.574.955.955,0,0,0-.629-.215,1.345,1.345,0,0,0-.875.254,1.231,1.231,0,0,0-.461.777l-2.211.008A2.457,2.457,0,0,1,2.1,9.129a4.312,4.312,0,0,1,2.613-.738,3.117,3.117,0,0,1,2.25.855,2.5,2.5,0,0,1,.68,2.121l-.648,4.047-.039.5a2.412,2.412,0,0,0,.133.938L7.078,17Zm-1.7-1.555a2.017,2.017,0,0,0,1.664-.828l.273-1.461-.766-.008a2.139,2.139,0,0,0-1.758.742,1.292,1.292,0,0,0-.242.633.75.75,0,0,0,.176.668A.891.891,0,0,0,3.219,15.445Zm8.688-6.906-.187,1A3.042,3.042,0,0,1,14.18,8.391a2.028,2.028,0,0,1,1.766.875,3.526,3.526,0,0,1,.414,2.359L15.469,17h-2.2l.906-5.4a2.528,2.528,0,0,0,.016-.555.9.9,0,0,0-1-.82,1.9,1.9,0,0,0-1.555.8L10.578,17h-2.2L9.844,8.547Zm13.25,8.617a3.677,3.677,0,0,1-1.965-.543,3.292,3.292,0,0,1-1.277-1.469,4.093,4.093,0,0,1-.328-2.059l.023-.312a5.465,5.465,0,0,1,.719-2.266,4.341,4.341,0,0,1,1.547-1.59,3.827,3.827,0,0,1,2.094-.527,2.924,2.924,0,0,1,2.473,1.2,4.117,4.117,0,0,1,.637,2.962l-.125.962h-5.18a1.814,1.814,0,0,0,.4,1.313,1.521,1.521,0,0,0,1.172.508,2.7,2.7,0,0,0,2.109-.937l1.008,1.25a3.135,3.135,0,0,1-1.375,1.121A4.5,4.5,0,0,1,25.156,17.156Zm.7-6.945a1.565,1.565,0,0,0-1.082.383,3.363,3.363,0,0,0-.848,1.383h3.031l.047-.2a2.071,2.071,0,0,0,.008-.594,1.134,1.134,0,0,0-.383-.707A1.2,1.2,0,0,0,25.859,10.211Zm4.172,2.555a5.849,5.849,0,0,1,1.277-3.184,3.242,3.242,0,0,1,2.629-1.2,2.37,2.37,0,0,1,2.016.977l.289-.82,2.023.008-1.383,8.164a3.983,3.983,0,0,1-1.437,2.672,4.471,4.471,0,0,1-3,.953,4.168,4.168,0,0,1-1.672-.379,3.575,3.575,0,0,1-1.312-1l1.094-1.344a2.349,2.349,0,0,0,1.844.961,2.166,2.166,0,0,0,1.469-.449,2.4,2.4,0,0,0,.828-1.355l.125-.508a2.749,2.749,0,0,1-2.07.891,2.428,2.428,0,0,1-1.961-.918,3.947,3.947,0,0,1-.8-2.348A7.89,7.89,0,0,1,30.031,12.766Zm2.164.927A2.02,2.02,0,0,0,32.5,14.87a1.08,1.08,0,0,0,.895.466,1.972,1.972,0,0,0,1.594-.767l.656-3.583a1.3,1.3,0,0,0-1.242-.767,1.728,1.728,0,0,0-1.43.681,3.561,3.561,0,0,0-.734,1.87A8.214,8.214,0,0,0,32.2,13.693Zm6.773-.927a5.849,5.849,0,0,1,1.277-3.184,3.242,3.242,0,0,1,2.629-1.2,2.37,2.37,0,0,1,2.016.977l.289-.82,2.023.008L45.82,16.711a3.983,3.983,0,0,1-1.437,2.672,4.471,4.471,0,0,1-3,.953,4.168,4.168,0,0,1-1.672-.379,3.575,3.575,0,0,1-1.312-1l1.094-1.344a2.349,2.349,0,0,0,1.844.961,2.166,2.166,0,0,0,1.469-.449,2.4,2.4,0,0,0,.828-1.355l.125-.508a2.749,2.749,0,0,1-2.07.891,2.428,2.428,0,0,1-1.961-.918,3.947,3.947,0,0,1-.8-2.348A7.89,7.89,0,0,1,38.969,12.766Zm2.164.927a2.02,2.02,0,0,0,.309,1.178,1.08,1.08,0,0,0,.895.466,1.972,1.972,0,0,0,1.594-.767l.656-3.583a1.3,1.3,0,0,0-1.242-.767,1.728,1.728,0,0,0-1.43.681,3.561,3.561,0,0,0-.734,1.87A8.214,8.214,0,0,0,41.133,13.693Zm12.078-1.88h9.3l-.961-.937V9.719l2.5,2.594v.031l-2.5,2.594V13.781l.945-.922H53.211Zm16.547,6.164H68.023l6.2-12.352h1.742ZM83.891,17a2.281,2.281,0,0,1-.086-.766,2.863,2.863,0,0,1-2.156.922,2.594,2.594,0,0,1-1.84-.723,2.186,2.186,0,0,1-.684-1.746,2.527,2.527,0,0,1,1.16-2.121,5.266,5.266,0,0,1,2.965-.738l1.031.016.109-.508a1.764,1.764,0,0,0,.023-.492.846.846,0,0,0-.277-.574.955.955,0,0,0-.629-.215,1.345,1.345,0,0,0-.875.254,1.231,1.231,0,0,0-.461.777l-2.211.008a2.457,2.457,0,0,1,1.113-1.965,4.312,4.312,0,0,1,2.613-.738,3.117,3.117,0,0,1,2.25.855,2.5,2.5,0,0,1,.68,2.121l-.648,4.047-.039.5a2.412,2.412,0,0,0,.133.938L86.055,17Zm-1.7-1.555a2.017,2.017,0,0,0,1.664-.828l.273-1.461-.766-.008a2.139,2.139,0,0,0-1.758.742,1.292,1.292,0,0,0-.242.633.75.75,0,0,0,.176.668A.891.891,0,0,0,82.2,15.445Zm8.688-6.906-.187,1a3.042,3.042,0,0,1,2.461-1.148,2.028,2.028,0,0,1,1.766.875,3.526,3.526,0,0,1,.414,2.359L94.445,17h-2.2l.906-5.4a2.528,2.528,0,0,0,.016-.555.9.9,0,0,0-1-.82,1.9,1.9,0,0,0-1.555.8L89.555,17h-2.2L88.82,8.547Zm9.3,8.617a3.677,3.677,0,0,1-1.965-.543,3.292,3.292,0,0,1-1.277-1.469,4.093,4.093,0,0,1-.328-2.059l.023-.312a5.465,5.465,0,0,1,.719-2.266,4.341,4.341,0,0,1,1.547-1.59A3.827,3.827,0,0,1,101,8.391a2.924,2.924,0,0,1,2.473,1.2,4.117,4.117,0,0,1,.637,2.962l-.125.962H98.8a1.814,1.814,0,0,0,.4,1.313,1.521,1.521,0,0,0,1.172.508,2.7,2.7,0,0,0,2.109-.937l1.008,1.25a3.135,3.135,0,0,1-1.375,1.121A4.5,4.5,0,0,1,100.188,17.156Zm.7-6.945a1.565,1.565,0,0,0-1.082.383,3.363,3.363,0,0,0-.848,1.383h3.031l.047-.2a2.071,2.071,0,0,0,.008-.594,1.134,1.134,0,0,0-.383-.707A1.2,1.2,0,0,0,100.891,10.211Zm4.172,2.555a5.849,5.849,0,0,1,1.277-3.184,3.242,3.242,0,0,1,2.629-1.2,2.37,2.37,0,0,1,2.016.977l.289-.82,2.023.008-1.383,8.164a3.983,3.983,0,0,1-1.437,2.672,4.471,4.471,0,0,1-3,.953,4.168,4.168,0,0,1-1.672-.379,3.575,3.575,0,0,1-1.312-1l1.094-1.344a2.349,2.349,0,0,0,1.844.961,2.166,2.166,0,0,0,1.469-.449,2.4,2.4,0,0,0,.828-1.355l.125-.508a2.749,2.749,0,0,1-2.07.891,2.428,2.428,0,0,1-1.961-.918,3.947,3.947,0,0,1-.8-2.348A7.89,7.89,0,0,1,105.063,12.766Zm2.164.927a2.02,2.02,0,0,0,.309,1.178,1.08,1.08,0,0,0,.895.466,1.972,1.972,0,0,0,1.594-.767l.656-3.583a1.3,1.3,0,0,0-1.242-.767,1.728,1.728,0,0,0-1.43.681,3.561,3.561,0,0,0-.734,1.87A8.213,8.213,0,0,0,107.227,13.693ZM114,12.766a5.849,5.849,0,0,1,1.277-3.184,3.242,3.242,0,0,1,2.629-1.2,2.37,2.37,0,0,1,2.016.977l.289-.82,2.023.008-1.383,8.164a3.983,3.983,0,0,1-1.437,2.672,4.471,4.471,0,0,1-3,.953,4.168,4.168,0,0,1-1.672-.379,3.575,3.575,0,0,1-1.312-1l1.094-1.344a2.349,2.349,0,0,0,1.844.961,2.166,2.166,0,0,0,1.469-.449,2.4,2.4,0,0,0,.828-1.355l.125-.508a2.749,2.749,0,0,1-2.07.891,2.428,2.428,0,0,1-1.961-.918,3.947,3.947,0,0,1-.8-2.348A7.89,7.89,0,0,1,114,12.766Zm2.164.927a2.02,2.02,0,0,0,.309,1.178,1.08,1.08,0,0,0,.895.466,1.972,1.972,0,0,0,1.594-.767l.656-3.583a1.3,1.3,0,0,0-1.242-.767,1.728,1.728,0,0,0-1.43.681,3.561,3.561,0,0,0-.734,1.87A8.213,8.213,0,0,0,116.164,13.693Zm10.875,4.284H125.3l6.2-12.352h1.742Z" transform="translate(515.001 2222.755)" fill="#12263f"/>
      <path id="Trazado_212441" data-name="Trazado 212441" d="M-2419.764,11740H-2430a5,5,0,0,1-5-5v-30a5,5,0,0,1,5-5h160a5,5,0,0,1,5,5v30a5,5,0,0,1-5,5h-135.236l-7.263,13Z" transform="translate(3043.001 -9437.156)" fill="#c4d1ff"/>
      <path id="Trazado_212442" data-name="Trazado 212442" d="M3.508,8.539l-.187,1A3.042,3.042,0,0,1,5.781,8.391a2.028,2.028,0,0,1,1.766.875,3.526,3.526,0,0,1,.414,2.359L7.07,17h-2.2l.906-5.4a2.528,2.528,0,0,0,.016-.555.9.9,0,0,0-1-.82,1.9,1.9,0,0,0-1.555.8L2.18,17h-2.2L1.445,8.547Zm10.125-.148a3.39,3.39,0,0,1,1.926.574A3.234,3.234,0,0,1,16.746,10.5a4.762,4.762,0,0,1,.27,2.176,5.143,5.143,0,0,1-1.4,3.262,3.96,3.96,0,0,1-3.02,1.215,3.38,3.38,0,0,1-1.906-.566A3.222,3.222,0,0,1,9.5,15.063a4.657,4.657,0,0,1-.273-2.156,5.3,5.3,0,0,1,1.422-3.328A3.878,3.878,0,0,1,13.633,8.391Zm-2.227,5.315a1.95,1.95,0,0,0,.352,1.182,1.168,1.168,0,0,0,.945.449A1.712,1.712,0,0,0,14.3,14.4a4.647,4.647,0,0,0,.539-2.531,2.122,2.122,0,0,0-.363-1.2,1.149,1.149,0,0,0-.949-.464,1.715,1.715,0,0,0-1.574.924A4.6,4.6,0,0,0,11.406,13.706ZM22.117,6.469,21.75,8.547h1.406L22.867,10.2H21.461l-.719,4.234a1.077,1.077,0,0,0,.063.609q.109.211.531.227.125.008.672-.039l-.156,1.727a3.706,3.706,0,0,1-1.266.18,1.985,1.985,0,0,1-1.617-.68,2.456,2.456,0,0,1-.437-1.8l.727-4.461h-1.2l.289-1.656h1.2l.359-2.078Zm9.266,0-.367,2.078h1.406L32.133,10.2H30.727l-.719,4.234a1.077,1.077,0,0,0,.063.609q.109.211.531.227.125.008.672-.039l-.156,1.727a3.706,3.706,0,0,1-1.266.18,1.985,1.985,0,0,1-1.617-.68,2.456,2.456,0,0,1-.437-1.8l.727-4.461h-1.2l.289-1.656h1.2l.359-2.078Zm5.453,1.922a3.39,3.39,0,0,1,1.926.574A3.234,3.234,0,0,1,39.949,10.5a4.762,4.762,0,0,1,.27,2.176,5.143,5.143,0,0,1-1.4,3.262,3.96,3.96,0,0,1-3.02,1.215,3.38,3.38,0,0,1-1.906-.566A3.222,3.222,0,0,1,32.7,15.063a4.657,4.657,0,0,1-.273-2.156,5.3,5.3,0,0,1,1.422-3.328A3.878,3.878,0,0,1,36.836,8.391Zm-2.227,5.315a1.95,1.95,0,0,0,.352,1.182,1.168,1.168,0,0,0,.945.449A1.712,1.712,0,0,0,37.5,14.4a4.647,4.647,0,0,0,.539-2.531,2.122,2.122,0,0,0-.363-1.2,1.149,1.149,0,0,0-.949-.464,1.715,1.715,0,0,0-1.574.924A4.6,4.6,0,0,0,34.609,13.706ZM45.688,8.391a3.39,3.39,0,0,1,1.926.574A3.234,3.234,0,0,1,48.8,10.5a4.762,4.762,0,0,1,.27,2.176,5.143,5.143,0,0,1-1.4,3.262,3.96,3.96,0,0,1-3.02,1.215,3.38,3.38,0,0,1-1.906-.566,3.222,3.222,0,0,1-1.187-1.527,4.657,4.657,0,0,1-.273-2.156A5.3,5.3,0,0,1,42.7,9.578,3.878,3.878,0,0,1,45.688,8.391Zm-2.227,5.315a1.95,1.95,0,0,0,.352,1.182,1.168,1.168,0,0,0,.945.449,1.712,1.712,0,0,0,1.594-.932,4.647,4.647,0,0,0,.539-2.531,2.122,2.122,0,0,0-.363-1.2,1.149,1.149,0,0,0-.949-.464A1.715,1.715,0,0,0,44,11.135,4.6,4.6,0,0,0,43.461,13.706ZM55.43,11.813h9.3l-.961-.937V9.719l2.5,2.594v.031l-2.5,2.594V13.781l.945-.922H55.43Zm16.547,6.164H70.242l6.2-12.352h1.742ZM84.7,8.539l-.187,1a3.042,3.042,0,0,1,2.461-1.148,2.028,2.028,0,0,1,1.766.875,3.526,3.526,0,0,1,.414,2.359L88.266,17h-2.2l.906-5.4a2.528,2.528,0,0,0,.016-.555.9.9,0,0,0-1-.82,1.9,1.9,0,0,0-1.555.8L83.375,17h-2.2l1.469-8.453Zm10.125-.148a3.39,3.39,0,0,1,1.926.574A3.234,3.234,0,0,1,97.941,10.5a4.762,4.762,0,0,1,.27,2.176,5.143,5.143,0,0,1-1.4,3.262,3.96,3.96,0,0,1-3.02,1.215,3.38,3.38,0,0,1-1.906-.566A3.222,3.222,0,0,1,90.7,15.063a4.657,4.657,0,0,1-.273-2.156,5.3,5.3,0,0,1,1.422-3.328A3.878,3.878,0,0,1,94.828,8.391ZM92.6,13.706a1.95,1.95,0,0,0,.352,1.182,1.168,1.168,0,0,0,.945.449,1.712,1.712,0,0,0,1.594-.932,4.647,4.647,0,0,0,.539-2.531,2.122,2.122,0,0,0-.363-1.2,1.149,1.149,0,0,0-.949-.464,1.715,1.715,0,0,0-1.574.924A4.6,4.6,0,0,0,92.6,13.706Zm10.711-7.237-.367,2.078h1.406l-.289,1.656h-1.406l-.719,4.234a1.077,1.077,0,0,0,.063.609q.109.211.531.227.125.008.672-.039l-.156,1.727a3.706,3.706,0,0,1-1.266.18,1.985,1.985,0,0,1-1.617-.68,2.456,2.456,0,0,1-.437-1.8l.727-4.461h-1.2l.289-1.656h1.2l.359-2.078Zm5.32,0-.367,2.078h1.406l-.289,1.656h-1.406l-.719,4.234a1.077,1.077,0,0,0,.063.609q.109.211.531.227.125.008.672-.039l-.156,1.727a3.706,3.706,0,0,1-1.266.18,1.985,1.985,0,0,1-1.617-.68,2.456,2.456,0,0,1-.437-1.8l.727-4.461h-1.2l.289-1.656h1.2l.359-2.078Zm5.453,1.922a3.39,3.39,0,0,1,1.926.574A3.234,3.234,0,0,1,117.2,10.5a4.762,4.762,0,0,1,.27,2.176,5.143,5.143,0,0,1-1.4,3.262,3.96,3.96,0,0,1-3.02,1.215,3.38,3.38,0,0,1-1.906-.566,3.222,3.222,0,0,1-1.187-1.527,4.657,4.657,0,0,1-.273-2.156A5.3,5.3,0,0,1,111.1,9.578,3.878,3.878,0,0,1,114.086,8.391Zm-2.227,5.315a1.95,1.95,0,0,0,.352,1.182,1.168,1.168,0,0,0,.945.449,1.712,1.712,0,0,0,1.594-.932,4.647,4.647,0,0,0,.539-2.531,2.122,2.122,0,0,0-.363-1.2,1.149,1.149,0,0,0-.949-.464,1.715,1.715,0,0,0-1.574.924A4.6,4.6,0,0,0,111.859,13.706Zm11.078-5.315a3.39,3.39,0,0,1,1.926.574,3.234,3.234,0,0,1,1.188,1.539,4.762,4.762,0,0,1,.27,2.176,5.143,5.143,0,0,1-1.4,3.262,3.96,3.96,0,0,1-3.02,1.215,3.38,3.38,0,0,1-1.906-.566,3.222,3.222,0,0,1-1.187-1.527,4.657,4.657,0,0,1-.273-2.156,5.3,5.3,0,0,1,1.422-3.328A3.878,3.878,0,0,1,122.938,8.391Zm-2.227,5.315a1.95,1.95,0,0,0,.352,1.182,1.168,1.168,0,0,0,.945.449A1.712,1.712,0,0,0,123.6,14.4a4.647,4.647,0,0,0,.539-2.531,2.122,2.122,0,0,0-.363-1.2,1.149,1.149,0,0,0-.949-.464,1.715,1.715,0,0,0-1.574.924A4.6,4.6,0,0,0,120.711,13.706Zm10.766,4.271h-1.734l6.2-12.352h1.742Z" transform="translate(621.001 2270.843)" fill="#12263f"/>
      <path id="Trazado_212443" data-name="Trazado 212443" d="M5,53a5,5,0,0,1-5-5V18a5,5,0,0,1,5-5H15.237L22.5,0l7.264,13H186a5,5,0,0,1,5,5V48a5,5,0,0,1-5,5Z" transform="translate(557.533 2347.998)" fill="#c4d1ff"/>
      <path id="Trazado_212444" data-name="Trazado 212444" d="M3.383,9.484A2.946,2.946,0,0,1,5.672,8.391a2.143,2.143,0,0,1,1.848.9,3.548,3.548,0,0,1,.441,2.379L7.07,17h-2.2l.9-5.358a2.6,2.6,0,0,0,.016-.563.885.885,0,0,0-.984-.868,1.9,1.9,0,0,0-1.562.766L2.172,17h-2.2L2.047,5H4.258ZM13.625,8.391a3.39,3.39,0,0,1,1.926.574A3.234,3.234,0,0,1,16.738,10.5a4.762,4.762,0,0,1,.27,2.176,5.143,5.143,0,0,1-1.4,3.262,3.96,3.96,0,0,1-3.02,1.215,3.38,3.38,0,0,1-1.906-.566,3.222,3.222,0,0,1-1.187-1.527,4.657,4.657,0,0,1-.273-2.156,5.3,5.3,0,0,1,1.422-3.328A3.878,3.878,0,0,1,13.625,8.391ZM11.4,13.706a1.95,1.95,0,0,0,.352,1.182,1.168,1.168,0,0,0,.945.449,1.712,1.712,0,0,0,1.594-.932,4.647,4.647,0,0,0,.539-2.531,2.122,2.122,0,0,0-.363-1.2,1.149,1.149,0,0,0-.949-.464,1.715,1.715,0,0,0-1.574.924A4.6,4.6,0,0,0,11.4,13.706Zm13.875.216,2.008-5.375h2.2L25.922,17H24.078l-.625-5.289L20.984,17H19.141l-.625-8.453h2.063l.133,5.32,2.414-5.32h1.594Zm15.43,0,2.008-5.375h2.2L41.352,17H39.508l-.625-5.289L36.414,17H34.57l-.625-8.453h2.063l.133,5.32,2.414-5.32h1.594ZM49.445,17a2.281,2.281,0,0,1-.086-.766,2.863,2.863,0,0,1-2.156.922,2.594,2.594,0,0,1-1.84-.723,2.186,2.186,0,0,1-.684-1.746,2.527,2.527,0,0,1,1.16-2.121,5.266,5.266,0,0,1,2.965-.738l1.031.016.109-.508a1.764,1.764,0,0,0,.023-.492.846.846,0,0,0-.277-.574.955.955,0,0,0-.629-.215,1.345,1.345,0,0,0-.875.254,1.231,1.231,0,0,0-.461.777l-2.211.008a2.457,2.457,0,0,1,1.113-1.965,4.312,4.312,0,0,1,2.613-.738,3.117,3.117,0,0,1,2.25.855,2.5,2.5,0,0,1,.68,2.121l-.648,4.047-.039.5a2.412,2.412,0,0,0,.133.938L51.609,17Zm-1.7-1.555a2.017,2.017,0,0,0,1.664-.828l.273-1.461-.766-.008a2.139,2.139,0,0,0-1.758.742,1.292,1.292,0,0,0-.242.633.75.75,0,0,0,.176.668A.891.891,0,0,0,47.75,15.445Zm10.1-.828q.125-.625-.867-.906l-.711-.18q-2.523-.7-2.453-2.453a2.428,2.428,0,0,1,1.059-1.949,3.942,3.942,0,0,1,2.457-.738,3.536,3.536,0,0,1,2.313.758,2.5,2.5,0,0,1,.9,1.977l-2.187-.008a.963.963,0,0,0-1.078-1.1,1.552,1.552,0,0,0-.895.258,1.061,1.061,0,0,0-.465.7q-.117.625.945.883l.313.07a6.285,6.285,0,0,1,1.648.59,2.488,2.488,0,0,1,.879.824,2.04,2.04,0,0,1,.285,1.18,2.251,2.251,0,0,1-.52,1.406,3.18,3.18,0,0,1-1.359.93,4.736,4.736,0,0,1-1.816.3,3.568,3.568,0,0,1-2.344-.809A2.607,2.607,0,0,1,53,14.3l2.078.016a1.142,1.142,0,0,0,1.3,1.227,1.845,1.845,0,0,0,1-.25A.987.987,0,0,0,57.852,14.617Zm8.883-2.8h9.3l-.961-.937V9.719l2.5,2.594v.031l-2.5,2.594V13.781l.945-.922H66.734Zm16.547,6.164H81.547l6.2-12.352h1.742Zm12.6-8.492a2.946,2.946,0,0,1,2.289-1.094,2.143,2.143,0,0,1,1.848.9,3.548,3.548,0,0,1,.441,2.379L99.57,17h-2.2l.9-5.358a2.6,2.6,0,0,0,.016-.563.885.885,0,0,0-.984-.868,1.9,1.9,0,0,0-1.562.766L94.672,17h-2.2L94.547,5h2.211Zm10.242-1.094a3.39,3.39,0,0,1,1.926.574,3.234,3.234,0,0,1,1.188,1.539,4.762,4.762,0,0,1,.27,2.176,5.143,5.143,0,0,1-1.4,3.262,3.96,3.96,0,0,1-3.02,1.215,3.38,3.38,0,0,1-1.906-.566,3.222,3.222,0,0,1-1.187-1.527,4.657,4.657,0,0,1-.273-2.156,5.3,5.3,0,0,1,1.422-3.328A3.878,3.878,0,0,1,106.125,8.391ZM103.9,13.706a1.95,1.95,0,0,0,.352,1.182,1.168,1.168,0,0,0,.945.449,1.712,1.712,0,0,0,1.594-.932,4.647,4.647,0,0,0,.539-2.531,2.122,2.122,0,0,0-.363-1.2,1.149,1.149,0,0,0-.949-.464,1.715,1.715,0,0,0-1.574.924A4.6,4.6,0,0,0,103.9,13.706Zm13.875.216,2.008-5.375h2.2L118.422,17h-1.844l-.625-5.289L113.484,17h-1.844l-.625-8.453h2.063l.133,5.32,2.414-5.32h1.594Zm11.484,0,2.008-5.375h2.2L129.906,17h-1.844l-.625-5.289L124.969,17h-1.844L122.5,8.547h2.063l.133,5.32,2.414-5.32H128.7ZM138,17a2.281,2.281,0,0,1-.086-.766,2.863,2.863,0,0,1-2.156.922,2.594,2.594,0,0,1-1.84-.723,2.186,2.186,0,0,1-.684-1.746,2.527,2.527,0,0,1,1.16-2.121,5.266,5.266,0,0,1,2.965-.738l1.031.016.109-.508a1.764,1.764,0,0,0,.023-.492.846.846,0,0,0-.277-.574.955.955,0,0,0-.629-.215,1.345,1.345,0,0,0-.875.254,1.231,1.231,0,0,0-.461.777l-2.211.008a2.457,2.457,0,0,1,1.113-1.965,4.312,4.312,0,0,1,2.613-.738,3.117,3.117,0,0,1,2.25.855,2.5,2.5,0,0,1,.68,2.121l-.648,4.047-.039.5a2.412,2.412,0,0,0,.133.938l-.008.148Zm-1.7-1.555a2.017,2.017,0,0,0,1.664-.828l.273-1.461-.766-.008a2.139,2.139,0,0,0-1.758.742,1.292,1.292,0,0,0-.242.633.75.75,0,0,0,.176.668A.891.891,0,0,0,136.3,15.445Zm10.1-.828q.125-.625-.867-.906l-.711-.18q-2.523-.7-2.453-2.453a2.428,2.428,0,0,1,1.059-1.949,3.942,3.942,0,0,1,2.457-.738,3.536,3.536,0,0,1,2.313.758,2.5,2.5,0,0,1,.9,1.977l-2.187-.008a.963.963,0,0,0-1.078-1.1,1.552,1.552,0,0,0-.895.258,1.061,1.061,0,0,0-.465.7q-.117.625.945.883l.313.07a6.285,6.285,0,0,1,1.648.59,2.488,2.488,0,0,1,.879.824,2.04,2.04,0,0,1,.285,1.18,2.251,2.251,0,0,1-.52,1.406,3.18,3.18,0,0,1-1.359.93,4.736,4.736,0,0,1-1.816.3,3.568,3.568,0,0,1-2.344-.809,2.607,2.607,0,0,1-.953-2.051l2.078.016a1.142,1.142,0,0,0,1.3,1.227,1.845,1.845,0,0,0,1-.25A.987.987,0,0,0,146.406,14.617Zm7.68,3.359h-1.734l6.2-12.352H160.3Z" transform="translate(568.035 2370.997)" fill="#12263f"/>
      <path id="Trazado_212445" data-name="Trazado 212445" d="M5,53a5,5,0,0,1-5-5V18a5,5,0,0,1,5-5H15.237L22.5,0l7.264,13H173a5,5,0,0,1,5,5V48a5,5,0,0,1-5,5Z" transform="translate(367.001 2273.188) rotate(180)" fill="#c4d1ff"/>
      <path id="Trazado_212446" data-name="Trazado 212446" d="M3.727,15.344a1.447,1.447,0,0,0,1.016-.332,1.632,1.632,0,0,0,.531-.926l2.07-.008a3.037,3.037,0,0,1-.559,1.6,3.394,3.394,0,0,1-1.344,1.109,3.847,3.847,0,0,1-1.77.375A3.123,3.123,0,0,1,1.234,16.1a3.965,3.965,0,0,1-.867-2.766l.023-.43L.4,12.82a5.284,5.284,0,0,1,1.391-3.27A3.761,3.761,0,0,1,4.7,8.391a3.047,3.047,0,0,1,2.27.934A3.3,3.3,0,0,1,7.8,11.7H5.742a1.73,1.73,0,0,0-.3-1.07,1.128,1.128,0,0,0-.891-.422q-1.578-.047-1.914,2.3a7.782,7.782,0,0,0-.086,1.438Q2.633,15.32,3.727,15.344ZM10.523,17H8.3L10.391,5H12.6Zm5.883.156a3.677,3.677,0,0,1-1.965-.543,3.292,3.292,0,0,1-1.277-1.469,4.093,4.093,0,0,1-.328-2.059l.023-.312a5.465,5.465,0,0,1,.719-2.266,4.341,4.341,0,0,1,1.547-1.59,3.827,3.827,0,0,1,2.094-.527,2.924,2.924,0,0,1,2.473,1.2,4.117,4.117,0,0,1,.637,2.962l-.125.962h-5.18a1.814,1.814,0,0,0,.4,1.313,1.521,1.521,0,0,0,1.172.508A2.7,2.7,0,0,0,18.7,14.4l1.008,1.25a3.135,3.135,0,0,1-1.375,1.121A4.5,4.5,0,0,1,16.406,17.156Zm.7-6.945a1.565,1.565,0,0,0-1.082.383,3.363,3.363,0,0,0-.848,1.383h3.031l.047-.2a2.071,2.071,0,0,0,.008-.594,1.134,1.134,0,0,0-.383-.707A1.2,1.2,0,0,0,17.109,10.211ZM25.75,17a2.281,2.281,0,0,1-.086-.766,2.863,2.863,0,0,1-2.156.922,2.594,2.594,0,0,1-1.84-.723,2.186,2.186,0,0,1-.684-1.746,2.527,2.527,0,0,1,1.16-2.121,5.266,5.266,0,0,1,2.965-.738l1.031.016.109-.508a1.764,1.764,0,0,0,.023-.492A.846.846,0,0,0,26,10.27a.955.955,0,0,0-.629-.215,1.345,1.345,0,0,0-.875.254,1.231,1.231,0,0,0-.461.777l-2.211.008a2.457,2.457,0,0,1,1.113-1.965,4.312,4.312,0,0,1,2.613-.738,3.117,3.117,0,0,1,2.25.855,2.5,2.5,0,0,1,.68,2.121l-.648,4.047-.039.5a2.412,2.412,0,0,0,.133.938L27.914,17Zm-1.7-1.555a2.017,2.017,0,0,0,1.664-.828l.273-1.461-.766-.008a2.139,2.139,0,0,0-1.758.742,1.292,1.292,0,0,0-.242.633.75.75,0,0,0,.176.668A.891.891,0,0,0,24.055,15.445Zm8.688-6.906-.187,1a3.042,3.042,0,0,1,2.461-1.148,2.028,2.028,0,0,1,1.766.875,3.526,3.526,0,0,1,.414,2.359L36.3,17H34.1l.906-5.4a2.528,2.528,0,0,0,.016-.555.9.9,0,0,0-1-.82,1.9,1.9,0,0,0-1.555.8L31.414,17h-2.2L30.68,8.547Zm14.469,7.586a2.919,2.919,0,0,1-2.328,1.031,2.172,2.172,0,0,1-1.844-.875,3.2,3.2,0,0,1-.484-2.266l.914-5.469h2.2l-.93,5.5a2.175,2.175,0,0,0-.008.485.8.8,0,0,0,.867.806,2.014,2.014,0,0,0,1.7-.79l1.055-6H50.57L49.1,17H47.047ZM58.859,12.8a6.981,6.981,0,0,1-.7,2.359,3.826,3.826,0,0,1-1.32,1.531,3.058,3.058,0,0,1-1.75.477,2.44,2.44,0,0,1-1.937-.914l-.773,4h-2.2L52.2,8.547l2.031-.008-.148.852a2.7,2.7,0,0,1,2.156-1,2.4,2.4,0,0,1,1.93.9,3.922,3.922,0,0,1,.734,2.363A9.132,9.132,0,0,1,58.859,12.8Zm-2.187-.16.047-.751a2.089,2.089,0,0,0-.277-1.205,1,1,0,0,0-.855-.462A1.818,1.818,0,0,0,54,11.032l-.633,3.49a1.233,1.233,0,0,0,1.242.822,1.59,1.59,0,0,0,1.328-.618A4.234,4.234,0,0,0,56.672,12.636Zm8.609-.824h9.3l-.961-.937V9.719l2.5,2.594v.031l-2.5,2.594V13.781l.945-.922H65.281Zm16.547,6.164H80.094L86.3,5.625h1.742Zm12.945-2.633a1.447,1.447,0,0,0,1.016-.332,1.632,1.632,0,0,0,.531-.926l2.07-.008a3.037,3.037,0,0,1-.559,1.6,3.394,3.394,0,0,1-1.344,1.109,3.847,3.847,0,0,1-1.77.375A3.123,3.123,0,0,1,92.281,16.1a3.965,3.965,0,0,1-.867-2.766l.023-.43.008-.086a5.284,5.284,0,0,1,1.391-3.27,3.761,3.761,0,0,1,2.914-1.16,3.047,3.047,0,0,1,2.27.934,3.3,3.3,0,0,1,.824,2.379H96.789a1.73,1.73,0,0,0-.3-1.07,1.128,1.128,0,0,0-.891-.422q-1.578-.047-1.914,2.3a7.782,7.782,0,0,0-.086,1.438Q93.68,15.32,94.773,15.344ZM101.57,17H99.352l2.086-12h2.211Zm5.883.156a3.677,3.677,0,0,1-1.965-.543,3.292,3.292,0,0,1-1.277-1.469,4.093,4.093,0,0,1-.328-2.059l.023-.312a5.465,5.465,0,0,1,.719-2.266,4.341,4.341,0,0,1,1.547-1.59,3.827,3.827,0,0,1,2.094-.527,2.924,2.924,0,0,1,2.473,1.2,4.117,4.117,0,0,1,.637,2.962l-.125.962h-5.18a1.814,1.814,0,0,0,.4,1.313,1.521,1.521,0,0,0,1.172.508,2.7,2.7,0,0,0,2.109-.937l1.008,1.25a3.135,3.135,0,0,1-1.375,1.121A4.5,4.5,0,0,1,107.453,17.156Zm.7-6.945a1.565,1.565,0,0,0-1.082.383,3.363,3.363,0,0,0-.848,1.383h3.031l.047-.2a2.071,2.071,0,0,0,.008-.594,1.134,1.134,0,0,0-.383-.707A1.2,1.2,0,0,0,108.156,10.211ZM116.8,17a2.281,2.281,0,0,1-.086-.766,2.863,2.863,0,0,1-2.156.922,2.594,2.594,0,0,1-1.84-.723,2.186,2.186,0,0,1-.684-1.746,2.527,2.527,0,0,1,1.16-2.121,5.266,5.266,0,0,1,2.965-.738l1.031.016.109-.508a1.764,1.764,0,0,0,.023-.492.846.846,0,0,0-.277-.574.955.955,0,0,0-.629-.215,1.345,1.345,0,0,0-.875.254,1.231,1.231,0,0,0-.461.777l-2.211.008a2.457,2.457,0,0,1,1.113-1.965,4.312,4.312,0,0,1,2.613-.738,3.117,3.117,0,0,1,2.25.855,2.5,2.5,0,0,1,.68,2.121l-.648,4.047-.039.5a2.412,2.412,0,0,0,.133.938l-.008.148Zm-1.7-1.555a2.017,2.017,0,0,0,1.664-.828l.273-1.461-.766-.008a2.139,2.139,0,0,0-1.758.742,1.292,1.292,0,0,0-.242.633.75.75,0,0,0,.176.668A.891.891,0,0,0,115.1,15.445Zm8.688-6.906-.187,1a3.042,3.042,0,0,1,2.461-1.148,2.028,2.028,0,0,1,1.766.875,3.526,3.526,0,0,1,.414,2.359L127.352,17h-2.2l.906-5.4a2.528,2.528,0,0,0,.016-.555.9.9,0,0,0-1-.82,1.9,1.9,0,0,0-1.555.8L122.461,17h-2.2l1.469-8.453Zm10.523,7.586a2.919,2.919,0,0,1-2.328,1.031,2.172,2.172,0,0,1-1.844-.875,3.2,3.2,0,0,1-.484-2.266l.914-5.469h2.2l-.93,5.5a2.175,2.175,0,0,0-.008.485.8.8,0,0,0,.867.806,2.014,2.014,0,0,0,1.7-.79l1.055-6h2.219L136.2,17h-2.055ZM145.961,12.8a6.981,6.981,0,0,1-.7,2.359,3.826,3.826,0,0,1-1.32,1.531,3.058,3.058,0,0,1-1.75.477,2.44,2.44,0,0,1-1.937-.914l-.773,4h-2.2l2.023-11.7,2.031-.008-.148.852a2.7,2.7,0,0,1,2.156-1,2.4,2.4,0,0,1,1.93.9,3.922,3.922,0,0,1,.734,2.363A9.131,9.131,0,0,1,145.961,12.8Zm-2.187-.16.047-.751a2.089,2.089,0,0,0-.277-1.205,1,1,0,0,0-.855-.462,1.818,1.818,0,0,0-1.586.814l-.633,3.49a1.233,1.233,0,0,0,1.242.822,1.59,1.59,0,0,0,1.328-.618A4.234,4.234,0,0,0,143.773,12.636Zm7.406,5.34h-1.734l6.2-12.352h1.742Z" transform="translate(195.5 2227.688)" fill="#12263f"/>
      <path id="Trazado_212447" data-name="Trazado 212447" d="M15.235,40H5a5,5,0,0,1-5-5V5A5,5,0,0,1,5,0H149a5,5,0,0,1,5,5V35a5,5,0,0,1-5,5H29.765L22.5,53Z" transform="translate(357.001 2361.188) rotate(180)" fill="#c4d1ff"/>
      <path id="Trazado_212448" data-name="Trazado 212448" d="M.445,12.766A5.849,5.849,0,0,1,1.723,9.582a3.242,3.242,0,0,1,2.629-1.2,2.37,2.37,0,0,1,2.016.977l.289-.82,2.023.008L7.3,16.711a3.983,3.983,0,0,1-1.437,2.672,4.471,4.471,0,0,1-3,.953,4.168,4.168,0,0,1-1.672-.379,3.575,3.575,0,0,1-1.312-1L.969,17.617a2.349,2.349,0,0,0,1.844.961,2.166,2.166,0,0,0,1.469-.449,2.4,2.4,0,0,0,.828-1.355l.125-.508a2.749,2.749,0,0,1-2.07.891A2.428,2.428,0,0,1,1.2,16.238a3.947,3.947,0,0,1-.8-2.348A7.89,7.89,0,0,1,.445,12.766Zm2.164.927a2.02,2.02,0,0,0,.309,1.178,1.08,1.08,0,0,0,.895.466,1.972,1.972,0,0,0,1.594-.767l.656-3.583a1.3,1.3,0,0,0-1.242-.767,1.728,1.728,0,0,0-1.43.681,3.561,3.561,0,0,0-.734,1.87A8.214,8.214,0,0,0,2.609,13.693ZM13.8,8.391a3.39,3.39,0,0,1,1.926.574A3.234,3.234,0,0,1,16.91,10.5a4.762,4.762,0,0,1,.27,2.176,5.143,5.143,0,0,1-1.4,3.262,3.96,3.96,0,0,1-3.02,1.215,3.38,3.38,0,0,1-1.906-.566,3.222,3.222,0,0,1-1.187-1.527,4.657,4.657,0,0,1-.273-2.156,5.3,5.3,0,0,1,1.422-3.328A3.878,3.878,0,0,1,13.8,8.391ZM11.57,13.706a1.95,1.95,0,0,0,.352,1.182,1.168,1.168,0,0,0,.945.449,1.712,1.712,0,0,0,1.594-.932A4.647,4.647,0,0,0,15,11.872a2.122,2.122,0,0,0-.363-1.2,1.149,1.149,0,0,0-.949-.464,1.715,1.715,0,0,0-1.574.924A4.6,4.6,0,0,0,11.57,13.706ZM26.594,8.391a3.39,3.39,0,0,1,1.926.574A3.234,3.234,0,0,1,29.707,10.5a4.762,4.762,0,0,1,.27,2.176,5.143,5.143,0,0,1-1.4,3.262,3.96,3.96,0,0,1-3.02,1.215,3.38,3.38,0,0,1-1.906-.566,3.222,3.222,0,0,1-1.187-1.527,4.657,4.657,0,0,1-.273-2.156,5.3,5.3,0,0,1,1.422-3.328A3.878,3.878,0,0,1,26.594,8.391Zm-2.227,5.315a1.95,1.95,0,0,0,.352,1.182,1.168,1.168,0,0,0,.945.449,1.712,1.712,0,0,0,1.594-.932,4.647,4.647,0,0,0,.539-2.531,2.122,2.122,0,0,0-.363-1.2,1.149,1.149,0,0,0-.949-.464,1.715,1.715,0,0,0-1.574.924A4.6,4.6,0,0,0,24.367,13.706Zm9.727-5.167-.187,1a3.042,3.042,0,0,1,2.461-1.148,2.028,2.028,0,0,1,1.766.875,3.526,3.526,0,0,1,.414,2.359L37.656,17h-2.2l.906-5.4a2.528,2.528,0,0,0,.016-.555.9.9,0,0,0-1-.82,1.9,1.9,0,0,0-1.555.8L32.766,17h-2.2l1.469-8.453Zm11.016,3.273h9.3l-.961-.937V9.719l2.5,2.594v.031l-2.5,2.594V13.781l.945-.922H45.109Zm16.391.953a5.849,5.849,0,0,1,1.277-3.184,3.242,3.242,0,0,1,2.629-1.2,2.37,2.37,0,0,1,2.016.977l.289-.82,2.023.008-1.383,8.164a3.983,3.983,0,0,1-1.437,2.672,4.471,4.471,0,0,1-3,.953,4.168,4.168,0,0,1-1.672-.379,3.575,3.575,0,0,1-1.312-1l1.094-1.344a2.349,2.349,0,0,0,1.844.961,2.166,2.166,0,0,0,1.469-.449,2.4,2.4,0,0,0,.828-1.355l.125-.508a2.749,2.749,0,0,1-2.07.891,2.428,2.428,0,0,1-1.961-.918,3.947,3.947,0,0,1-.8-2.348A7.89,7.89,0,0,1,61.5,12.766Zm2.164.927a2.02,2.02,0,0,0,.309,1.178,1.08,1.08,0,0,0,.895.466,1.972,1.972,0,0,0,1.594-.767l.656-3.583a1.3,1.3,0,0,0-1.242-.767,1.728,1.728,0,0,0-1.43.681,3.561,3.561,0,0,0-.734,1.87A8.214,8.214,0,0,0,63.664,13.693Zm11.188-5.3a3.39,3.39,0,0,1,1.926.574A3.234,3.234,0,0,1,77.965,10.5a4.762,4.762,0,0,1,.27,2.176,5.143,5.143,0,0,1-1.4,3.262,3.96,3.96,0,0,1-3.02,1.215,3.38,3.38,0,0,1-1.906-.566,3.222,3.222,0,0,1-1.187-1.527,4.657,4.657,0,0,1-.273-2.156,5.3,5.3,0,0,1,1.422-3.328A3.878,3.878,0,0,1,74.852,8.391Zm-2.227,5.315a1.95,1.95,0,0,0,.352,1.182,1.168,1.168,0,0,0,.945.449,1.712,1.712,0,0,0,1.594-.932,4.647,4.647,0,0,0,.539-2.531,2.122,2.122,0,0,0-.363-1.2,1.149,1.149,0,0,0-.949-.464,1.715,1.715,0,0,0-1.574.924A4.6,4.6,0,0,0,72.625,13.706Zm10.766,4.271H81.656l6.2-12.352H89.6Zm12.93-4.055,2.008-5.375h2.2L96.969,17H95.125L94.5,11.711,92.031,17H90.188l-.625-8.453h2.063l.133,5.32,2.414-5.32h1.594Zm4.43,4.055H99.016l6.2-12.352h1.742Zm14.078-9.586a3.39,3.39,0,0,1,1.926.574,3.234,3.234,0,0,1,1.188,1.539,4.762,4.762,0,0,1,.27,2.176,5.143,5.143,0,0,1-1.4,3.262,3.96,3.96,0,0,1-3.02,1.215,3.38,3.38,0,0,1-1.906-.566,3.222,3.222,0,0,1-1.187-1.527,4.657,4.657,0,0,1-.273-2.156,5.3,5.3,0,0,1,1.422-3.328A3.878,3.878,0,0,1,114.828,8.391ZM112.6,13.706a1.95,1.95,0,0,0,.352,1.182,1.168,1.168,0,0,0,.945.449,1.712,1.712,0,0,0,1.594-.932,4.647,4.647,0,0,0,.539-2.531,2.122,2.122,0,0,0-.363-1.2,1.149,1.149,0,0,0-.949-.464,1.715,1.715,0,0,0-1.574.924A4.6,4.6,0,0,0,112.6,13.706Zm9.727-5.167-.187,1A3.042,3.042,0,0,1,124.6,8.391a2.028,2.028,0,0,1,1.766.875,3.526,3.526,0,0,1,.414,2.359L125.891,17h-2.2l.906-5.4a2.528,2.528,0,0,0,.016-.555.9.9,0,0,0-1-.82,1.9,1.9,0,0,0-1.555.8L121,17h-2.2l1.469-8.453Z" transform="translate(213.502 2329.688)" fill="#12263f"/>
      <path id="Trazado_212449" data-name="Trazado 212449" d="M5,53a5,5,0,0,1-5-5V18a5,5,0,0,1,5-5H15.235L22.5,0l7.265,13H159a5,5,0,0,1,5,5V48a5,5,0,0,1-5,5Z" transform="translate(357.001 2366.188)" fill="#c4d1ff"/>
      <path id="Trazado_212450" data-name="Trazado 212450" d="M2.6,17H.313L2.281,5.625H4.57Zm10.859,0a2.281,2.281,0,0,1-.086-.766,2.863,2.863,0,0,1-2.156.922,2.594,2.594,0,0,1-1.84-.723A2.186,2.186,0,0,1,8.7,14.688a2.527,2.527,0,0,1,1.16-2.121,5.266,5.266,0,0,1,2.965-.738l1.031.016.109-.508a1.764,1.764,0,0,0,.023-.492.846.846,0,0,0-.277-.574.955.955,0,0,0-.629-.215,1.345,1.345,0,0,0-.875.254,1.231,1.231,0,0,0-.461.777l-2.211.008a2.457,2.457,0,0,1,1.113-1.965,4.312,4.312,0,0,1,2.613-.738,3.117,3.117,0,0,1,2.25.855,2.5,2.5,0,0,1,.68,2.121l-.648,4.047-.039.5a2.412,2.412,0,0,0,.133.938L15.625,17Zm-1.7-1.555a2.017,2.017,0,0,0,1.664-.828l.273-1.461-.766-.008a2.139,2.139,0,0,0-1.758.742,1.292,1.292,0,0,0-.242.633.75.75,0,0,0,.176.668A.891.891,0,0,0,11.766,15.445Zm5.625-2.68a5.849,5.849,0,0,1,1.277-3.184,3.242,3.242,0,0,1,2.629-1.2,2.37,2.37,0,0,1,2.016.977l.289-.82,2.023.008-1.383,8.164A3.983,3.983,0,0,1,22.8,19.383a4.471,4.471,0,0,1-3,.953,4.168,4.168,0,0,1-1.672-.379,3.575,3.575,0,0,1-1.312-1l1.094-1.344a2.349,2.349,0,0,0,1.844.961,2.166,2.166,0,0,0,1.469-.449,2.4,2.4,0,0,0,.828-1.355l.125-.508a2.749,2.749,0,0,1-2.07.891,2.428,2.428,0,0,1-1.961-.918,3.947,3.947,0,0,1-.8-2.348A7.89,7.89,0,0,1,17.391,12.766Zm2.164.927a2.02,2.02,0,0,0,.309,1.178,1.08,1.08,0,0,0,.895.466,1.972,1.972,0,0,0,1.594-.767l.656-3.583a1.3,1.3,0,0,0-1.242-.767,1.728,1.728,0,0,0-1.43.681,3.561,3.561,0,0,0-.734,1.87A8.214,8.214,0,0,0,19.555,13.693ZM31.7,10.664a4.548,4.548,0,0,0-.742-.078,2.136,2.136,0,0,0-1.867.883L28.109,17h-2.2l1.469-8.453,2.07-.008-.2,1.031a2.325,2.325,0,0,1,1.969-1.2,3.214,3.214,0,0,1,.766.109Zm3.969,6.492a3.677,3.677,0,0,1-1.965-.543,3.292,3.292,0,0,1-1.277-1.469,4.093,4.093,0,0,1-.328-2.059l.023-.312a5.465,5.465,0,0,1,.719-2.266,4.341,4.341,0,0,1,1.547-1.59,3.827,3.827,0,0,1,2.094-.527,2.924,2.924,0,0,1,2.473,1.2,4.117,4.117,0,0,1,.637,2.962l-.125.962h-5.18a1.814,1.814,0,0,0,.4,1.313,1.521,1.521,0,0,0,1.172.508,2.7,2.7,0,0,0,2.109-.937l1.008,1.25a3.135,3.135,0,0,1-1.375,1.121A4.5,4.5,0,0,1,35.664,17.156Zm.7-6.945a1.565,1.565,0,0,0-1.082.383,3.363,3.363,0,0,0-.848,1.383h3.031l.047-.2a2.071,2.071,0,0,0,.008-.594,1.134,1.134,0,0,0-.383-.707A1.2,1.2,0,0,0,36.367,10.211Zm7.766,6.945a3.677,3.677,0,0,1-1.965-.543,3.292,3.292,0,0,1-1.277-1.469,4.093,4.093,0,0,1-.328-2.059l.023-.312a5.465,5.465,0,0,1,.719-2.266,4.341,4.341,0,0,1,1.547-1.59,3.827,3.827,0,0,1,2.094-.527,2.924,2.924,0,0,1,2.473,1.2,4.117,4.117,0,0,1,.637,2.962l-.125.962H42.75a1.814,1.814,0,0,0,.4,1.313,1.521,1.521,0,0,0,1.172.508A2.7,2.7,0,0,0,46.43,14.4l1.008,1.25a3.135,3.135,0,0,1-1.375,1.121A4.5,4.5,0,0,1,44.133,17.156Zm.7-6.945a1.565,1.565,0,0,0-1.082.383,3.363,3.363,0,0,0-.848,1.383h3.031l.047-.2a2.071,2.071,0,0,0,.008-.594,1.134,1.134,0,0,0-.383-.707A1.2,1.2,0,0,0,44.836,10.211Zm9.477,1.6h9.3l-.961-.937V9.719l2.5,2.594v.031l-2.5,2.594V13.781l.945-.922H54.313ZM72.859,17H70.57L72.539,5.625h2.289Zm6.547.977H77.672l6.2-12.352h1.742Zm9.1-9.43-1.516,8.914a3.516,3.516,0,0,1-1.02,2.2,2.984,2.984,0,0,1-2.168.773,6.8,6.8,0,0,1-1.172-.148l.18-1.8a4.309,4.309,0,0,0,.68.1,1.2,1.2,0,0,0,1.266-1.125l1.531-8.922ZM86.5,6.4a1.1,1.1,0,0,1,.328-.855,1.328,1.328,0,0,1,1.77-.035,1.108,1.108,0,0,1,.363.813,1.113,1.113,0,0,1-.328.863,1.257,1.257,0,0,1-.883.355,1.235,1.235,0,0,1-.863-.3A1.091,1.091,0,0,1,86.5,6.4Zm2.891,11.578H87.656l6.2-12.352H95.6ZM103.523,17a2.281,2.281,0,0,1-.086-.766,2.863,2.863,0,0,1-2.156.922,2.594,2.594,0,0,1-1.84-.723,2.186,2.186,0,0,1-.684-1.746,2.527,2.527,0,0,1,1.16-2.121,5.266,5.266,0,0,1,2.965-.738l1.031.016.109-.508a1.764,1.764,0,0,0,.023-.492.846.846,0,0,0-.277-.574.955.955,0,0,0-.629-.215,1.345,1.345,0,0,0-.875.254,1.231,1.231,0,0,0-.461.777l-2.211.008a2.457,2.457,0,0,1,1.113-1.965,4.312,4.312,0,0,1,2.613-.738,3.117,3.117,0,0,1,2.25.855,2.5,2.5,0,0,1,.68,2.121l-.648,4.047-.039.5a2.412,2.412,0,0,0,.133.938l-.008.148Zm-1.7-1.555a2.017,2.017,0,0,0,1.664-.828l.273-1.461L103,13.148a2.139,2.139,0,0,0-1.758.742,1.292,1.292,0,0,0-.242.633.75.75,0,0,0,.176.668A.891.891,0,0,0,101.828,15.445Zm5.625-2.68a5.849,5.849,0,0,1,1.277-3.184,3.242,3.242,0,0,1,2.629-1.2,2.37,2.37,0,0,1,2.016.977l.289-.82,2.023.008L114.3,16.711a3.983,3.983,0,0,1-1.437,2.672,4.471,4.471,0,0,1-3,.953,4.168,4.168,0,0,1-1.672-.379,3.575,3.575,0,0,1-1.312-1l1.094-1.344a2.349,2.349,0,0,0,1.844.961,2.166,2.166,0,0,0,1.469-.449,2.4,2.4,0,0,0,.828-1.355l.125-.508a2.749,2.749,0,0,1-2.07.891,2.428,2.428,0,0,1-1.961-.918,3.947,3.947,0,0,1-.8-2.348A7.89,7.89,0,0,1,107.453,12.766Zm2.164.927a2.02,2.02,0,0,0,.309,1.178,1.08,1.08,0,0,0,.895.466,1.972,1.972,0,0,0,1.594-.767l.656-3.583a1.3,1.3,0,0,0-1.242-.767,1.728,1.728,0,0,0-1.43.681,3.561,3.561,0,0,0-.734,1.87A8.213,8.213,0,0,0,109.617,13.693Zm12.141-3.029a4.548,4.548,0,0,0-.742-.078,2.136,2.136,0,0,0-1.867.883L118.172,17h-2.2l1.469-8.453,2.07-.008-.2,1.031a2.325,2.325,0,0,1,1.969-1.2,3.214,3.214,0,0,1,.766.109Zm3.969,6.492a3.677,3.677,0,0,1-1.965-.543,3.292,3.292,0,0,1-1.277-1.469,4.093,4.093,0,0,1-.328-2.059l.023-.312a5.465,5.465,0,0,1,.719-2.266,4.341,4.341,0,0,1,1.547-1.59,3.827,3.827,0,0,1,2.094-.527,2.924,2.924,0,0,1,2.473,1.2,4.117,4.117,0,0,1,.637,2.962l-.125.962h-5.18a1.814,1.814,0,0,0,.4,1.313,1.521,1.521,0,0,0,1.172.508,2.7,2.7,0,0,0,2.109-.937l1.008,1.25a3.135,3.135,0,0,1-1.375,1.121A4.5,4.5,0,0,1,125.727,17.156Zm.7-6.945a1.565,1.565,0,0,0-1.082.383,3.363,3.363,0,0,0-.848,1.383h3.031l.047-.2a2.071,2.071,0,0,0,.008-.594,1.134,1.134,0,0,0-.383-.707A1.2,1.2,0,0,0,126.43,10.211Zm7.766,6.945a3.677,3.677,0,0,1-1.965-.543,3.292,3.292,0,0,1-1.277-1.469,4.093,4.093,0,0,1-.328-2.059l.023-.312a5.465,5.465,0,0,1,.719-2.266,4.341,4.341,0,0,1,1.547-1.59,3.827,3.827,0,0,1,2.094-.527,2.924,2.924,0,0,1,2.473,1.2,4.117,4.117,0,0,1,.637,2.962l-.125.962h-5.18a1.814,1.814,0,0,0,.4,1.313,1.521,1.521,0,0,0,1.172.508,2.7,2.7,0,0,0,2.109-.937l1.008,1.25a3.135,3.135,0,0,1-1.375,1.121A4.5,4.5,0,0,1,134.2,17.156Zm.7-6.945a1.565,1.565,0,0,0-1.082.383,3.363,3.363,0,0,0-.848,1.383H136l.047-.2a2.071,2.071,0,0,0,.008-.594,1.134,1.134,0,0,0-.383-.707A1.2,1.2,0,0,0,134.9,10.211Z" transform="translate(365.001 2387.688)" fill="#12263f"/>
    </g>
  </g>
</svg>
