<svg xmlns="http://www.w3.org/2000/svg" xmlns:xlink="http://www.w3.org/1999/xlink" width="266" height="219" viewBox="0 0 266 219">
  <defs>
    <clipPath id="clip-path">
      <rect id="Rect치ngulo_339487" data-name="Rect치ngulo 339487" width="164.098" height="163.624" fill="none"/>
    </clipPath>
  </defs>
  <g id="Grupo_984363" data-name="Grupo 984363" transform="translate(-4157 8734)">
    <rect id="Rect치ngulo_338859" data-name="Rect치ngulo 338859" width="266" height="219" rx="11" transform="translate(4157 -8734)" fill="#fc5f65"/>
    <g id="Grupo_984362" data-name="Grupo 984362" transform="translate(4208 -8706)">
      <g id="Grupo_984361" data-name="Grupo 984361" clip-path="url(#clip-path)">
        <path id="Trazado_212240" data-name="Trazado 212240" d="M35.542,130.922A2.64,2.64,0,0,1,31.905,130c-4.263-6.083-10.059-10.315-16.484-13.818-9.568-5.215-14.253-13.5-15.1-24.173C.293,91.713.41,91.348,0,91.2V84.15c.411-1.061-.046-2.194.267-3.264A37.993,37.993,0,0,1,14.417,53.753,122.556,122.556,0,0,1,31.69,42.234,32.676,32.676,0,0,0,46.195,25.2a66.82,66.82,0,0,1,5.986-12.506C56.631,5.852,63.214,2.3,71.032,1a62.774,62.774,0,0,1,29.736,1.75c7.857,2.5,14.159,7.264,19.514,13.4,4,4.587,7.568,9.52,11.355,14.278a2.715,2.715,0,0,1,.087,3.762c-.8,1.205-1.848,1.128-2.924.482a8.719,8.719,0,0,1-2.266-2.239c-3.165-4.029-6.238-8.127-9.515-12.07-7.132-8.578-16.1-13.636-27.292-14.689-2.457-.23-4.9-.223-7.349-.255a42.245,42.245,0,0,0-14.849,1.8,20.559,20.559,0,0,0-12.2,10.431C53.5,21.154,52,24.8,50.466,28.444a40.4,40.4,0,0,1-5.484,9.544C41.9,41.879,37.8,44.467,33.7,47.07c-5.582,3.544-11.383,6.759-16.429,11.1A33.226,33.226,0,0,0,5.542,80.219a50.719,50.719,0,0,0,.641,15.592,21.3,21.3,0,0,0,9.687,14.458c2.957,1.915,6.034,3.631,8.995,5.541,4.611,2.975,8.156,7,11.385,11.346,1.1,1.477.8,2.769-.708,3.766" transform="translate(0 0)"/>
        <path id="Trazado_212241" data-name="Trazado 212241" d="M71.072,156.691c-10.143-.773-18.788-4.995-26.4-11.539a105.753,105.753,0,0,1-11.623-12.062c-1.013-1.2-1.345-2.377-.4-3.74a2.538,2.538,0,0,1,4-.031c1.811,1.953,3.578,3.948,5.36,5.927a55.555,55.555,0,0,0,15.114,12.169,37.223,37.223,0,0,0,11.815,3.835c9.814,1.691,18.345-1.009,25.824-7.452,2.992-2.577,6.047-5.083,9.135-7.546a43.284,43.284,0,0,1,16.118-7.909c7.973-2.132,14.309-6.82,19.408-13.181a57.225,57.225,0,0,0,12.4-31.572,63.27,63.27,0,0,0-2.5-24.827,31.477,31.477,0,0,0-10.115-14.515c-2.924-2.5-6-4.8-8.943-7.28a7.255,7.255,0,0,1-1.359-1.351,2.263,2.263,0,0,1,.524-3.317,2.468,2.468,0,0,1,3.236-.079c4.4,3.632,9.053,6.958,13.1,11.018,5.667,5.683,8.8,12.632,10.227,20.394,2.52,13.734,1.7,27.2-3.808,40.173-4.772,11.253-11.869,20.541-22.831,26.475a37.119,37.119,0,0,1-9.07,3.473c-5.754,1.371-10.557,4.431-15.063,8.1-4.422,3.6-8.551,7.58-13.5,10.509a30.252,30.252,0,0,1-12.75,4.3c-.223.021-.415.05-.478.3H74.65c-1.167-.424-2.4.063-3.578-.276" transform="translate(6.747 6.655)"/>
        <path id="Trazado_212242" data-name="Trazado 212242" d="M64.3,134.984a7.008,7.008,0,0,1,3.578.276H64.352a.519.519,0,0,0-.053-.276" transform="translate(13.52 28.363)" fill="#535353"/>
        <path id="Trazado_212243" data-name="Trazado 212243" d="M.269,66.838A5.835,5.835,0,0,1,0,70.1V66.9a.191.191,0,0,1,.269-.059" transform="translate(0 14.048)" fill="#585858"/>
        <path id="Trazado_212244" data-name="Trazado 212244" d="M123.043,38.1c-1.031,1.814-.9,2.694.692,4q4.577,3.76,9.187,7.478c7.634,6.142,11.338,14.348,12.52,23.862.96,7.724,1.109,15.445-.593,23.093-2.885,12.978-8.7,24.221-19.542,32.406a33.749,33.749,0,0,1-12.482,5.9c-6.649,1.61-12.23,5.111-17.424,9.394-4.113,3.391-7.989,7.091-12.609,9.831-6.347,3.765-13.176,4.58-20.343,3.269,6.427-3.113,11.452-8.125,16.927-12.523a39.884,39.884,0,0,1,15.184-7.965c11.335-2.886,19.489-10,25.664-19.65a61.067,61.067,0,0,0,8.692-23.574,69.636,69.636,0,0,0,.266-17.364A51.272,51.272,0,0,0,125.835,61.5,34.415,34.415,0,0,0,115.75,48.057c-3.958-3.334-8.225-6.312-11.941-9.924-4.027-3.915-7.337-8.46-10.759-12.9a106.2,106.2,0,0,0-10.1-11.777A38.276,38.276,0,0,0,70.562,5.376c-.591-.238-1.424-.282-1.336-1.265,13.818-.376,25.66,3.835,34.691,14.762,3.672,4.442,7.116,9.058,10.71,13.557,1.345,1.683,2.079,1.838,3.967.9a29.676,29.676,0,0,0,4.449,4.764" transform="translate(13.131 0.86)" fill="#e1e1e1"/>
        <path id="Trazado_212245" data-name="Trazado 212245" d="M81.526,4.118a1.22,1.22,0,0,0,.824.681C89.312,7.311,94.727,11.872,99.5,17.41c5.1,5.917,9.544,12.356,14.681,18.238a61.673,61.673,0,0,0,7.7,6.935c4.48,3.66,9.191,7.032,12.695,11.783a39.083,39.083,0,0,1,6.508,15.615,66.172,66.172,0,0,1,1.249,15.044c-.326,13.813-4.364,26.475-13.013,37.414a42.288,42.288,0,0,1-23.858,15.305c-5.15,1.239-9.4,4.144-13.472,7.351-4.96,3.9-9.453,8.405-15.012,11.537a4.5,4.5,0,0,1-2.234.712,36.473,36.473,0,0,1-17.6-7.337c-5.489-4.034-10.056-9.025-14.459-14.177-1.428-1.671-2.283-1.783-4.128-.677-.825-2.044-2.4-3.519-3.855-5.084,1.31-1.721,1.26-2.376-.012-4.092a46.24,46.24,0,0,0-15.149-13.3,53.188,53.188,0,0,1-6.575-4.247c-4.785-3.616-7.268-8.577-8.224-14.34a47.008,47.008,0,0,1,.8-20.93,33.411,33.411,0,0,1,11.013-16.5C21.85,52.2,27.818,48.752,33.727,45.254A36.265,36.265,0,0,0,49.6,26.664c1.214-3.119,2.657-6.153,4.08-9.187,3.49-7.437,9.6-11.3,17.5-12.669a45.1,45.1,0,0,1,10.353-.69" transform="translate(0.831 0.852)" fill="#fff"/>
        <path id="Trazado_212246" data-name="Trazado 212246" d="M119.137,76.8A33.206,33.206,0,1,1,86.059,43.558,33.208,33.208,0,0,1,119.137,76.8" transform="translate(11.087 9.159)"/>
        <path id="Trazado_212247" data-name="Trazado 212247" d="M61.876,92.088c-6.745-8.9-6.857-22.407-.267-32.1a28.407,28.407,0,0,1,39.139-7.763,4.078,4.078,0,0,1,.466.418,11.776,11.776,0,0,1,1.921,6.509c.353,5.124.16,10.2-1.844,15.1A31.052,31.052,0,0,1,81.52,92.722a30.092,30.092,0,0,1-16.571.624,6.717,6.717,0,0,1-3.073-1.259" transform="translate(11.931 9.995)" fill="#fbce3f"/>
        <path id="Trazado_212248" data-name="Trazado 212248" d="M60.984,91.2a37.485,37.485,0,0,0,10.975,1.641A30.435,30.435,0,0,0,90.6,85.986a29.166,29.166,0,0,0,10.735-17.419,30.6,30.6,0,0,0-.542-15.133c-.171-.557-.317-1.122-.476-1.682,8.217,5.826,12.419,13.8,12.2,23.846a28.119,28.119,0,0,1-30.51,27.692A27.191,27.191,0,0,1,60.984,91.2" transform="translate(12.823 10.882)" fill="#eea235"/>
        <path id="Trazado_212249" data-name="Trazado 212249" d="M61.748,72.546a21.812,21.812,0,0,1,8.379-15.858c1.278-1.034,2.659-1.03,3.576-.033a2.413,2.413,0,0,1-.451,3.64,17.9,17.9,0,0,0-6.765,13.72,2.418,2.418,0,0,1-2.528,2.511c-1.491-.106-2.309-1.308-2.21-3.981" transform="translate(12.982 11.756)"/>
      </g>
    </g>
  </g>
</svg>
