<svg xmlns="http://www.w3.org/2000/svg" xmlns:xlink="http://www.w3.org/1999/xlink" width="315" height="576" viewBox="0 0 315 576">
  <defs>
    <clipPath id="clip-path">
      <rect id="Rectángulo_338976" data-name="Rectángulo 338976" width="315" height="576" fill="#fff" stroke="#707070" stroke-width="1"/>
    </clipPath>
    <clipPath id="clip-path-2">
      <rect id="Rectángulo_339074" data-name="Rectángulo 339074" width="372.849" height="548.258" fill="none"/>
    </clipPath>
    <clipPath id="clip-path-4">
      <rect id="Rectángulo_339065" data-name="Rectángulo 339065" width="146.914" height="217.204" fill="none"/>
    </clipPath>
    <clipPath id="clip-path-5">
      <rect id="Rectángulo_339066" data-name="Rectángulo 339066" width="2.315" height="7.399" fill="none"/>
    </clipPath>
    <clipPath id="clip-path-6">
      <rect id="Rectángulo_339067" data-name="Rectángulo 339067" width="2.131" height="8.458" fill="none"/>
    </clipPath>
    <clipPath id="clip-path-7">
      <rect id="Rectángulo_339068" data-name="Rectángulo 339068" width="101.304" height="124.465" fill="none"/>
    </clipPath>
    <clipPath id="clip-path-8">
      <rect id="Rectángulo_339069" data-name="Rectángulo 339069" width="162.24" height="170.167" fill="none"/>
    </clipPath>
    <clipPath id="clip-path-9">
      <rect id="Rectángulo_339070" data-name="Rectángulo 339070" width="60.099" height="136.996" fill="none"/>
    </clipPath>
    <clipPath id="clip-path-10">
      <rect id="Rectángulo_339071" data-name="Rectángulo 339071" width="155.37" height="200.775" fill="none"/>
    </clipPath>
    <clipPath id="clip-path-11">
      <rect id="Rectángulo_339072" data-name="Rectángulo 339072" width="91.11" height="53.84" fill="none"/>
    </clipPath>
  </defs>
  <g id="Enmascarar_grupo_558" data-name="Enmascarar grupo 558" clip-path="url(#clip-path)">
    <g id="Grupo_983718" data-name="Grupo 983718" transform="translate(-21.761)">
      <rect id="Rectángulo_338970" data-name="Rectángulo 338970" width="317" height="576" transform="translate(18.761)" fill="#6b8dfc"/>
      <g id="Grupo_983717" data-name="Grupo 983717" transform="translate(0 21.851)">
        <g id="Grupo_983707" data-name="Grupo 983707" transform="translate(0 94.258)">
          <g id="Grupo_983704" data-name="Grupo 983704" transform="translate(2.9 147.51)">
            <rect id="Rectángulo_338971" data-name="Rectángulo 338971" width="239.913" height="312.34" transform="translate(96.826)" fill="#6b8dfc"/>
            <path id="Rectángulo_338972" data-name="Rectángulo 338972" d="M139,0H336.739a0,0,0,0,1,0,0V142.2a0,0,0,0,1,0,0H0a0,0,0,0,1,0,0V139A139,139,0,0,1,139,0Z" transform="translate(0 170.143)" fill="#3c3fa7"/>
          </g>
        </g>
        <g id="Grupo_983851" data-name="Grupo 983851" transform="translate(2.9 5.85)">
          <g id="Grupo_983850" data-name="Grupo 983850" clip-path="url(#clip-path-2)">
            <g id="Grupo_983849" data-name="Grupo 983849">
              <g id="Grupo_983848" data-name="Grupo 983848" clip-path="url(#clip-path-2)">
                <path id="Trazado_210132" data-name="Trazado 210132" d="M72.276,379.78l18.735,8.582c63.926-90.514,73.546-215.317,77.175-263.2,1.144-15.1-1.194-25.878-4.932-33.558-9.521-19.564-35.109-18-42.241,2.289a104.785,104.785,0,0,0-4.93,23.779C109.952,176.426,72.276,379.78,72.276,379.78" transform="translate(80.506 86.622)" fill="#c27559"/>
                <path id="Trazado_210133" data-name="Trazado 210133" d="M101.668,223.406s2.953,33.441-1.7,44.956a.871.871,0,0,1-1.6.114c-.881-1.437-1.926-4.906-1.609-13.262,0,0-5.006,17.031-7.819,18.564s.478-21.016.478-21.016-7.667,18.543-10.58,18.826,2.981-21.576,2.981-21.576-9,18.651-10.4,17.687c-3.473-2.4,8.455-28.93,5.536-29.888-2.585-.848-7.828,4.059-10.068,7.026a1.212,1.212,0,0,1-1.873.142c-1.095-1.1-2.272-3.245-.123-6.519C68.208,233.4,75.517,222.638,89.5,215.3Z" transform="translate(70.942 239.818)" fill="#c27559"/>
                <path id="Trazado_210134" data-name="Trazado 210134" d="M248.029,378.548C253,325.795,259.818,239.5,253.322,220c-9.512-28.537-31.886-67.644-31.886-67.644H116.8s-27.3,52.318-27.831,95.653c-.334,27.377,4.6,88.92,8.288,130.536Z" transform="translate(99.081 169.709)" fill="#3d1525"/>
                <g id="Grupo_983826" data-name="Grupo 983826" transform="translate(189.636 331.053)" opacity="0.5" style="mix-blend-mode: multiply;isolation: isolate">
                  <g id="Grupo_983825" data-name="Grupo 983825">
                    <g id="Grupo_983824" data-name="Grupo 983824" clip-path="url(#clip-path-4)">
                      <path id="Trazado_210135" data-name="Trazado 210135" d="M96.827,245.128c-.173,13.651-.156,27.3-.245,40.956l.021,3.579c-1.416.044-2.833.068-4.251.12,1.418.053,2.835.074,4.253.121l.22,37.136.1,7.065c-.82.027-1.64.04-2.461.07.822.03,1.642.042,2.463.07l.19,13.275c.175,6.826.279,13.651.518,20.477.241-6.826.342-13.651.518-20.477l.192-13.235q11.364.371,22.726.545l.061,15.991.209,22.993h1.207l.209-22.993.059-15.96c2.4.038,4.792.089,7.187.123,8.644.127,17.287.159,25.933.2l.074,19.868.169,18.765h1.287l.169-18.765.074-19.86c2.611.013,5.221.021,7.832.04,9.483-.065,18.966-.093,28.446-.18l.072,19.207.175,19.557h1.275l.175-19.557.072-19.224c1.774-.017,3.549-.019,5.325-.044l17.769-.3c1.385-.04,2.769-.074,4.156-.11l.118,26.808.133,12.423h1.359l.133-12.423.118-26.857c3.917-.1,7.834-.2,11.751-.359-3.915-.159-7.832-.26-11.747-.359l.12-27.121-.076-16.621c3.021-.08,6.041-.167,9.06-.29-3.021-.123-6.041-.209-9.062-.29L224.75,252c-.038-4.1-.093-8.2-.137-12.3,1.186-.04,2.372-.068,3.556-.116-1.186-.049-2.372-.076-3.558-.116-.15-14.053-.334-28.108-.67-42.161-.334,14.038-.518,28.079-.668,42.117-4.137-.129-8.274-.233-12.411-.357l-15.118-.258-.059-15.607q-.149-19.443-.4-38.889l11.347-.228c4.887-.175,9.777-.279,14.664-.518-4.887-.239-9.777-.342-14.664-.518l-11.37-.228c-.11-8.384-.22-16.765-.389-25.149-.167,8.377-.277,16.755-.387,25.132l-2.52-.051c-9.777-.167-19.553-.159-29.33-.241-1.816.015-3.634.021-5.452.034-.106-7.764-.205-15.526-.361-23.289-.154,7.764-.254,15.529-.359,23.293-7.72.044-15.438.07-23.157.207q-5.473.1-10.95.228c-.114-8.792-.235-17.581-.412-26.371-.178,8.8-.3,17.592-.41,26.387-5.853.137-11.7.3-17.558.564,5.847.26,11.694.427,17.539.564q-.235,18.609-.381,37.221l-.066,17.48q-11.355.174-22.711.5c-.156-11.719-.349-23.439-.723-35.156-.374,11.732-.567,23.464-.723,35.2-2.4.072-4.8.118-7.2.209,2.4.091,4.8.137,7.2.209-.023,1.78-.057,3.56-.08,5.34m122.027,88.529-17.769-.3c-1.774-.023-3.547-.027-5.318-.044l.159-42.7c.881-.011,1.765-.008,2.649-.021l17.7-.3c2.228-.065,4.456-.12,6.682-.178l-.074,16.571.121,27.072c-1.385-.036-2.767-.07-4.152-.11m-7.993-93.56c4.135-.125,8.272-.228,12.406-.357-.042,4.086-.1,8.172-.135,12.258l-.169,37.445c-2.228-.057-4.456-.112-6.686-.178l-17.7-.3c-.882-.013-1.763-.011-2.644-.021l0-.222-.182-48.372ZM165.545,333.12c-2.609.019-5.217.027-7.823.04l.156-42.347c1.763.008,3.526.013,5.289.025,10.221-.072,20.441-.091,30.66-.2l.159,42.662c-9.481-.087-18.959-.114-28.44-.18m28.275-44.393v.2c-10.216-.11-20.435-.129-30.653-.2-1.763.013-3.526.017-5.289.025l-.182-48.127c.414,0,.829,0,1.243.006,11.54-.082,23.077-.074,34.615-.241l.448-.008Zm-31.182-104.11c9.777-.082,19.553-.074,29.33-.241l2.5-.051q-.247,19.437-.4,38.872l-.057,15.577-.454-.008c-11.538-.167-23.075-.159-34.615-.241-.416,0-.833,0-1.251.006l-.053-14.013q-.155-19.967-.416-39.935c1.807.013,3.615.019,5.42.034M130.007,333.366c-2.4.034-4.788.085-7.181.123l.161-42.977c1.592.025,3.183.059,4.773.082,9.339.137,18.676.163,28.015.207l.156,42.368c-8.642.038-17.283.07-25.925.2m25.768-44.6c-9.339.044-18.676.07-28.015.207-1.59.023-3.177.057-4.767.082l.011-2.972-.175-45.723,1.5.027c10.544.159,21.088.165,31.632.23Zm-22.466-104.4c7.709.137,15.419.163,23.126.207q-.263,19.97-.419,39.939l-.053,14.021c-10.546.066-21.092.072-31.638.23l-1.5.027-.068-17.45q-.146-18.6-.381-37.2,5.466.127,10.933.228m-12.244,55.961-.173,45.753.011,3.008q-11.114.178-22.229.512l.021-3.52c-.089-13.651-.072-27.3-.247-40.956-.021-1.765-.055-3.53-.078-5.3q11.348.33,22.7.5M98.451,327.041l.22-37.077q11.12.339,22.238.512l.161,43.045q-11.361.19-22.72.545Z" transform="translate(-89.71 -156.61)" fill="#3d1525"/>
                    </g>
                  </g>
                </g>
                <path id="Trazado_210136" data-name="Trazado 210136" d="M229.182,116.571a29.019,29.019,0,0,0-18.961-7.525c-1.353-.042-2.664-.148-3.911-.3a37.364,37.364,0,0,1-4.608-.782h-.021a36.809,36.809,0,0,1-7.8-2.674,74.426,74.426,0,0,1-1.926-10.749c-2.283-21.266,1.628-48.26,2.516-54.073.042-.233.085-.423.106-.592a4.934,4.934,0,0,1,.085-.55l-8.371,4.841L158.135,60.49,138.433,71.9a15.2,15.2,0,0,1,1.8,6.215v.021a60.977,60.977,0,0,1-.592,14.48c-.127.972-.275,1.924-.423,2.875-.482,3.01-1.048,5.855-1.583,8.3a28,28,0,0,1-3.384,4.365h-.021c-4.016,4.249-9.111,6.87-15.579,10.337-2.9,1.543-6.046,3.234-9.512,5.327-18.5,11.119-20.4,43-13.254,74.535s22.365,79.1,22.365,79.1l95.23-1.247c-3.086-28.6,16.89-69.969,24.944-116.9,4.016-23.485-2.114-36.042-9.238-42.742" transform="translate(102.506 43.809)" fill="#c27559"/>
                <path id="Trazado_210137" data-name="Trazado 210137" d="M114.354,84.272c30.848,3.49,45.97-33.49,46.522-34.87-5.568,9.1-13.753,13.772-21.777,16.053a60.381,60.381,0,0,1-23.553,1.509c-.063-.021-.127-.019-.19-.04.573,5.046-.063,11.48-1,17.349" transform="translate(127.376 55.027)" fill="#b06043"/>
                <path id="Trazado_210138" data-name="Trazado 210138" d="M136.528,106.8S148.27,85.919,181.8,92.816a16.25,16.25,0,0,1,6.766,3.167c8.31,6.538,33.8,24.66,50.128,15.04,0,0-21.49,82.794-19.376,109.217,0,0-54.257,14.091-104.637,0,0,0-28.186-99.7-23.253-114.855s32.765-15.5,45.1,1.41" transform="translate(101.198 101.829)" fill="#ffe9c7"/>
                <path id="Trazado_210139" data-name="Trazado 210139" d="M159.6,72.582c-.021.021-.021.021-.042.021-24.246,5.39-23.485,43.313-23.485,43.694a1.06,1.06,0,0,1-1.036,1.078h-.021a1.055,1.055,0,0,1-1.057-1.036c0-.38-.7-35.7,21.012-44.539h.021a37.364,37.364,0,0,0,4.608.782" transform="translate(149.213 79.976)" fill="#ffe9c7"/>
                <path id="Trazado_210140" data-name="Trazado 210140" d="M118.895,75.11c-.118-.057-.243-.108-.359-.167-2.152,1.264-4.494,2.507-7.06,3.883-14.14,15.495-13,39.191-12.979,39.508a1.062,1.062,0,0,0,1.057.994h.066a1.034,1.034,0,0,0,.991-1.12c-.017-.336-1.37-29.2,18.285-43.1" transform="translate(109.678 83.477)" fill="#ffe9c7"/>
                <g id="Grupo_983829" data-name="Grupo 983829" transform="translate(236.031 208.449)" opacity="0.5" style="mix-blend-mode: multiply;isolation: isolate">
                  <g id="Grupo_983828" data-name="Grupo 983828">
                    <g id="Grupo_983827" data-name="Grupo 983827" clip-path="url(#clip-path-5)">
                      <path id="Trazado_210141" data-name="Trazado 210141" d="M112.825,98.61a14.511,14.511,0,0,1,.972,3.636,14.175,14.175,0,0,1,.085,3.763,5.025,5.025,0,0,1-1.057-7.4" transform="translate(-111.659 -98.61)" fill="#ffe9c7"/>
                    </g>
                  </g>
                </g>
                <path id="Trazado_210142" data-name="Trazado 210142" d="M180.871,382.808l20.46,2.461c33.268-105.7,4.363-227.491-6.788-274.2-3.515-14.729-9.028-24.28-14.932-30.455-15.034-15.725-38.925-6.426-39.529,15.066a104.835,104.835,0,0,0,2.558,24.151c12.083,57.827,38.232,262.982,38.232,262.982" transform="translate(156.002 81.026)" fill="#c27559"/>
                <path id="Trazado_210143" data-name="Trazado 210143" d="M184.433,220.807s13.013,30.947,12.093,43.332a.873.873,0,0,1-1.492.6c-1.277-1.1-3.331-4.084-5.578-12.14,0,0,.429,17.746-1.782,20.063s-5.957-20.16-5.957-20.16-1.645,20-4.333,21.156-3.742-21.456-3.742-21.456-2.883,20.507-4.5,20.014c-4.042-1.224-.774-30.131-3.845-30.152-2.721-.019-6.217,6.255-7.445,9.764a1.212,1.212,0,0,1-1.74.706c-1.38-.717-3.156-2.4-2.108-6.17,1.617-5.826,5.3-18.31,16.378-29.562Z" transform="translate(171.183 241.486)" fill="#c27559"/>
                <g id="Grupo_983832" data-name="Grupo 983832" transform="translate(359.637 317.317)" opacity="0.5" style="mix-blend-mode: multiply;isolation: isolate">
                  <g id="Grupo_983831" data-name="Grupo 983831">
                    <g id="Grupo_983830" data-name="Grupo 983830" clip-path="url(#clip-path-6)">
                      <path id="Trazado_210144" data-name="Trazado 210144" d="M171.45,150.112a8.358,8.358,0,0,1,.8,4.291,8.24,8.24,0,0,1-1.306,4.166,9.02,9.02,0,0,1,.5-8.458" transform="translate(-170.133 -150.112)" fill="#c27559"/>
                    </g>
                  </g>
                </g>
                <path id="Trazado_210145" data-name="Trazado 210145" d="M199.5,75.252a16.982,16.982,0,0,1-7.568,6.49,20.431,20.431,0,0,1-6.532.74h-.063a51.622,51.622,0,0,1-7.61,18.5A44.577,44.577,0,0,1,131.854,120.3c-.233-.042-.465-.085-.7-.148-10.527-2.156-25.6-8.688-29.531-19.3a27.145,27.145,0,0,1-1.226-8.942l-.063-2.093c-.169-6.722-.233-13.782-.063-20.948.4-16.721,2.241-33.906,7.8-48.767,7.145-19.109,41.918-26.952,66.5-6.13,11.415,9.682,14.036,27.438,13.592,43.715a6.518,6.518,0,0,1,1.437-.613c4.925-1.289,9.935,2.368,11.478,7A13.424,13.424,0,0,1,199.5,75.252" transform="translate(111.58 1.798)" fill="#c27559"/>
                <path id="Trazado_210146" data-name="Trazado 210146" d="M100.342,54.568a10.811,10.811,0,1,0,2.492-21.3,10.169,10.169,0,0,0-2.554.351c-.184,7.147-.11,14.207.061,20.948" transform="translate(111.58 37.056)" fill="#b06043"/>
                <path id="Trazado_210147" data-name="Trazado 210147" d="M143.441,43.609a10.808,10.808,0,1,1-10.948-10.667,10.81,10.81,0,0,1,10.948,10.667" transform="translate(135.698 36.693)" fill="#b06043"/>
                <path id="Trazado_210148" data-name="Trazado 210148" d="M112.46,31.709c.047,3.528-1.315,6.407-3.038,6.43s-3.158-2.82-3.2-6.35,1.315-6.407,3.038-6.43,3.158,2.822,3.2,6.35" transform="translate(118.311 28.247)" fill="#3d1525"/>
                <path id="Trazado_210149" data-name="Trazado 210149" d="M104.652,24.73a9.162,9.162,0,0,0,2.148,2.7,7.4,7.4,0,0,0,3.287,1.647l.053.013a1.156,1.156,0,1,0,.488-2.26,1.249,1.249,0,0,0-.3-.023,6.736,6.736,0,0,1-5.039-2.471l-.023-.025a.372.372,0,0,0-.609.421" transform="translate(116.521 26.937)" fill="#3d1525"/>
                <path id="Trazado_210150" data-name="Trazado 210150" d="M119.006,31.624c.047,3.528,1.48,6.371,3.2,6.35s3.084-2.9,3.038-6.43-1.48-6.371-3.2-6.35-3.084,2.9-3.038,6.43" transform="translate(132.556 28.063)" fill="#3d1525"/>
                <path id="Trazado_210151" data-name="Trazado 210151" d="M126.385,24.1a6.74,6.74,0,0,1-4.974,2.6,1.155,1.155,0,0,0-.061,2.308,1.177,1.177,0,0,0,.3-.03l.057-.015a7.435,7.435,0,0,0,3.245-1.731,9.241,9.241,0,0,0,2.076-2.754.374.374,0,0,0-.621-.406Z" transform="translate(133.917 26.671)" fill="#3d1525"/>
                <path id="Trazado_210152" data-name="Trazado 210152" d="M108.663,37.674a15.293,15.293,0,0,0,4.775,5.289,11.94,11.94,0,0,0,7.016,2.228,12.107,12.107,0,0,0,6.923-2.488,23.158,23.158,0,0,0,2.663-2.433c.721-.955,1.427-1.911,2.059-2.9-.955.717-1.824,1.48-2.7,2.22-.974.609-1.843,1.355-2.83,1.869a12.9,12.9,0,0,1-6.149,1.833A12.575,12.575,0,0,1,114.2,41.7a26.969,26.969,0,0,1-5.54-4.027" transform="translate(121.037 41.628)" fill="#3d1525"/>
                <path id="Trazado_210153" data-name="Trazado 210153" d="M112.72,42.868a5.137,5.137,0,0,0,3.3,1.072,5.391,5.391,0,0,0,3.274-1.156,17.085,17.085,0,0,1-3.285.41,14.184,14.184,0,0,1-3.289-.326" transform="translate(125.556 47.655)" fill="#3d1525"/>
                <path id="Trazado_210154" data-name="Trazado 210154" d="M117.912,18.751a7.419,7.419,0,0,1,4.813-1.854,14.894,14.894,0,0,1,5.16.666,12.565,12.565,0,0,1,4.568,2.539,13.178,13.178,0,0,1,3.148,3.928,1.494,1.494,0,0,1-2.294,1.856l-.127-.114a18.476,18.476,0,0,0-3.114-2.408,10.848,10.848,0,0,0-3.422-1.355,13.312,13.312,0,0,0-3.691-.309,14.1,14.1,0,0,1-3.944-.178l-.4-.091a1.564,1.564,0,0,1-1.173-1.875,1.548,1.548,0,0,1,.471-.805" transform="translate(130.768 18.808)" fill="#3d1525"/>
                <path id="Trazado_210155" data-name="Trazado 210155" d="M119.6,18.773a7.42,7.42,0,0,0-4.86-1.725,14.86,14.86,0,0,0-5.141.8,12.574,12.574,0,0,0-4.5,2.655,13.182,13.182,0,0,0-3.044,4.01A1.494,1.494,0,0,0,104.4,26.3l.125-.118a18.57,18.57,0,0,1,3.05-2.488,10.847,10.847,0,0,1,3.384-1.44,13.245,13.245,0,0,1,3.682-.406,14.057,14.057,0,0,0,3.938-.279l.393-.1a1.561,1.561,0,0,0,1.125-1.9,1.578,1.578,0,0,0-.493-.793" transform="translate(113.478 18.988)" fill="#3d1525"/>
                <path id="Trazado_210156" data-name="Trazado 210156" d="M115.7,23.686c-.522,2.414-.9,4.811-1.313,7.185-.431,2.368-.835,4.731-1.48,6.976-.148.567-.315,1.12-.507,1.657a5.83,5.83,0,0,0-.514,2.069,4.15,4.15,0,0,0,2.289,3.758,5.033,5.033,0,0,0,4.076.165,9.933,9.933,0,0,0,3.2-1.97c-2.228.871-4.839,1.56-6.43.391a2.463,2.463,0,0,1-1.137-2.264,4.717,4.717,0,0,1,.45-1.425c.233-.6.438-1.2.609-1.814a34.033,34.033,0,0,0,1.076-7.367,39,39,0,0,0-.319-7.363" transform="translate(124.621 26.383)" fill="#3d1525"/>
                <path id="Trazado_210157" data-name="Trazado 210157" d="M152.847,35.475a5.316,5.316,0,0,0-1.719-4.207,4.95,4.95,0,0,0-4.828-.4,9.064,9.064,0,0,0-3.854,2.89,14.51,14.51,0,0,0-2.368,4.111,1.067,1.067,0,0,0,1.763,1.125l.07-.074a9.409,9.409,0,0,1,3.543-2.577,1.656,1.656,0,0,1,1.505.146,3.984,3.984,0,0,1,1.095,1.645c.562,1.393.913,3.027-.275,3.693-1.243.729-3.082.579-4.724.385a7.444,7.444,0,0,0,5.206.63,2.932,2.932,0,0,0,1.8-2.473,7.653,7.653,0,0,0-.34-2.826,5.327,5.327,0,0,0-1.547-2.592,3.576,3.576,0,0,0-3.276-.632,10.28,10.28,0,0,0-4.617,3.194l1.831,1.053c.947-2.461,2.52-5.027,4.826-6.2a4,4,0,0,1,3.629-.268,5.338,5.338,0,0,1,2.277,3.382" transform="translate(155.949 33.896)" fill="#3d1525"/>
                <path id="Trazado_210158" data-name="Trazado 210158" d="M205,130.793c.1-.055.2-.11.3-.167,1-.562,1.991-1.141,2.953-1.74.125-.078.249-.152.374-.23q1.408-.888,2.731-1.828c.125-.089.252-.173.374-.262q1.313-.951,2.513-1.953c.078-.063.167-.125.245-.19,0,0,2.114-86.922-25.366-107.554,0,0-36.386-36.817-73.379-1.664-36.993,35.133-11.726,125.071-11.726,125.071s17.059,1.437,31.645-3.847a60.977,60.977,0,0,0,.592-14.48c-10.527-2.156-25.6-8.688-29.531-19.3a27.145,27.145,0,0,1-1.226-8.942l-.063-2.093c-.169-6.722-.233-13.782-.063-20.948.12-5.033.4-10.1.839-15.144,21.232-2.718,53.572-24.111,53.572-24.111S164.426,51.6,179.006,61.27c3.864,22.394-4.025,61.37-16.581,82.177,0,0,26.2-4.374,39.229-10.895.046-.023.1-.049.144-.072q1.617-.815,3.2-1.687" transform="translate(106.481 0.001)" fill="#fdd190"/>
                <g id="Grupo_983835" data-name="Grupo 983835" transform="translate(210.228 9.02)" opacity="0.5" style="mix-blend-mode: screen;isolation: isolate">
                  <g id="Grupo_983834" data-name="Grupo 983834">
                    <g id="Grupo_983833" data-name="Grupo 983833" clip-path="url(#clip-path-7)">
                      <path id="Trazado_210159" data-name="Trazado 210159" d="M129.091,14a106.459,106.459,0,0,1,17.285,23.549A83.911,83.911,0,0,1,155.59,65.41a75.449,75.449,0,0,1-2.057,29.277,49.186,49.186,0,0,1-5.851,13.514,25.986,25.986,0,0,1-10.836,9.69,26.648,26.648,0,0,0,9.954-10.235,48.4,48.4,0,0,0,5.16-13.377A77.065,77.065,0,0,0,153.5,65.685a86.377,86.377,0,0,0-8.561-27.4,109.424,109.424,0,0,0-7.242-12.546A143.531,143.531,0,0,0,129.091,14" transform="translate(-66.437 6.573)" fill="#fdd190"/>
                      <path id="Trazado_210160" data-name="Trazado 210160" d="M134.147,12.674q2.277,2.327,4.519,4.714l4.162,5.054,3.746,5.382,3.384,5.625a97.708,97.708,0,0,1,12.089,50.57l-.476,6.547-.909,6.494-1.429,6.39q-.92,3.142-1.9,6.249.65-3.2,1.353-6.371l.951-6.422.6-6.449.182-6.466a106.657,106.657,0,0,0-3.046-25.584,106.671,106.671,0,0,0-8.849-24.2,108.539,108.539,0,0,0-14.381-21.534" transform="translate(-60.805 5.097)" fill="#fdd190"/>
                      <path id="Trazado_210161" data-name="Trazado 210161" d="M138.463,9.023a31.645,31.645,0,0,1,9.88,9.656,31.5,31.5,0,0,1,5.111,12.833c-2.23-4.054-4.365-7.954-6.87-11.662-2.456-3.742-5.236-7.213-8.121-10.827" transform="translate(-55.998 1.031)" fill="#fdd190"/>
                      <path id="Trazado_210162" data-name="Trazado 210162" d="M154.826,11.208c-.723,1.127-1.465,2.249-2.23,3.357l-2.484,3.192-2.748,2.976-2.938,2.8a60.727,60.727,0,0,1-13.476,9.056,60.742,60.742,0,0,1-15.385,5.19l-4.012.626-4.035.37-4.044.027q-2.02-.1-4.023-.273c1.342-.116,2.674-.216,4-.287l3.964-.5,3.923-.66,3.866-.892a77.005,77.005,0,0,0,14.808-5.5,76.79,76.79,0,0,0,13.372-8.4,78.808,78.808,0,0,0,11.438-11.087" transform="translate(-99.452 3.464)" fill="#fdd190"/>
                      <path id="Trazado_210163" data-name="Trazado 210163" d="M149.026,6.833a51.6,51.6,0,0,1-9.233,9.994,58.547,58.547,0,0,1-11.432,7.53A58.536,58.536,0,0,1,115.5,29.05l-3.353.683-3.376.505-3.4.241c-1.135.032-2.27.038-3.4.023,1.116-.214,2.226-.41,3.336-.579l3.293-.708,3.26-.786,3.209-.947a83.369,83.369,0,0,0,12.343-5.01,83.345,83.345,0,0,0,11.383-6.919,91.476,91.476,0,0,0,10.231-8.72" transform="translate(-96.645 -1.409)" fill="#fdd190"/>
                      <path id="Trazado_210164" data-name="Trazado 210164" d="M134.8,4.267a30.648,30.648,0,0,1-12.662,8.887,30.548,30.548,0,0,1-15.349,1.911,76.046,76.046,0,0,0,14.59-3.883A75.171,75.171,0,0,0,134.8,4.267" transform="translate(-91.273 -4.267)" fill="#fdd190"/>
                    </g>
                  </g>
                </g>
                <path id="Trazado_210165" data-name="Trazado 210165" d="M99.9,218.251q-10.584,3.719-21.249,7.206Q84.77,237.116,91.9,248.291l19.391-7.561s-1.325-9.7-3.429-25.445c-2.642,1.027-5.3,2.029-7.967,2.966" transform="translate(87.603 239.8)" fill="#d88567"/>
                <path id="Trazado_210166" data-name="Trazado 210166" d="M86.831,229.419s-4.646,33.249-.507,45a.89.89,0,0,0,1.619.2c.962-1.389,2.192-4.8,2.285-13.163,0,0,4.224,17.283,6.995,18.968s.56-21.02.56-21.02,6.84,18.938,9.779,19.378-1.949-21.716-1.949-21.716,8.185,19.118,9.646,18.232c3.638-2.209-7.126-29.362-4.122-30.159,2.659-.708,7.724,4.477,9.844,7.563a1.242,1.242,0,0,0,1.89.243c1.165-1.042,2.461-3.12.448-6.507a66.531,66.531,0,0,0-23.773-24.466Z" transform="translate(94.241 247.255)" fill="#f2ae96"/>
                <path id="Trazado_210167" data-name="Trazado 210167" d="M79.629,230.156c1.167,2.991,4.133,10.235,6.635,13.36a2.273,2.273,0,0,0,2.522.706c4.4-1.52,18.42-6.49,24.21-10.087a2.3,2.3,0,0,0,.977-2.712c-.96-2.8-2.94-8.513-4.147-11.43a2.294,2.294,0,0,0-2.613-1.363c-5.447,1.177-21.91,4.982-26.9,8.908a2.271,2.271,0,0,0-.687,2.619" transform="translate(88.517 243.465)" fill="#3b3348"/>
                <path id="Trazado_210168" data-name="Trazado 210168" d="M83.831,81.715s16.911-4.228,23.253,16.558S139.5,374.133,139.5,374.133,118.71,382.589,108.141,384c0,0-48.619-92.306-52.494-192.715,0,0-13.74-106.75,28.184-109.568" transform="translate(59.584 90.627)" fill="#3b3348"/>
                <path id="Trazado_210169" data-name="Trazado 210169" d="M10.528,358.867H174.04c4.705-45.526,8.117-87.952,7.073-107.807-1.917-36.441-18.321-81.031-18.321-81.031l-148.675.7S-.68,203.145.024,248.946c.271,17.577,4.9,61.934,10.5,109.921" transform="translate(-0.001 189.39)" fill="#a5b1c7"/>
                <g id="Grupo_983838" data-name="Grupo 983838" transform="translate(7.775 378.091)" opacity="0.5" style="mix-blend-mode: multiply;isolation: isolate">
                  <g id="Grupo_983837" data-name="Grupo 983837">
                    <g id="Grupo_983836" data-name="Grupo 983836" clip-path="url(#clip-path-8)">
                      <path id="Trazado_210170" data-name="Trazado 210170" d="M53.76,328.7l1.748-45.015c.8-22.819,1.583-45.638,2.215-68.462l16.558-18.112L57.111,214.835a.377.377,0,0,0-.1.23c-1.218,22.845-2.287,45.7-3.331,68.546l-1.9,45.089Z" transform="translate(49.908 -158.534)" fill="#a5b1c7"/>
                      <path id="Trazado_210171" data-name="Trazado 210171" d="M3.678,181.362c6.684,1.45,13.389,2.773,20.143,3.8,6.735,1.135,13.5,2.059,20.278,2.854a404.3,404.3,0,0,0,40.81,2.759,310.537,310.537,0,0,0,40.825-1.75l10.147-1.277c3.382-.44,6.707-1.218,10.068-1.8l5.039-.907c1.678-.317,3.315-.81,4.974-1.2l9.954-2.475a213.118,213.118,0,0,1-39.986,9.28c-3.38.624-6.815.755-10.227,1.112-3.418.3-6.832.666-10.261.738l-10.282.416-10.29-.019a362.447,362.447,0,0,1-40.977-3.264,302.245,302.245,0,0,1-40.216-8.263" transform="translate(-3.679 -176.077)" fill="#a5b1c7"/>
                      <path id="Trazado_210172" data-name="Trazado 210172" d="M39.985,178.862a25.41,25.41,0,0,1,1.057,7.663,25.146,25.146,0,0,1-1.057,7.663,25.146,25.146,0,0,1-1.057-7.663,25.409,25.409,0,0,1,1.057-7.663" transform="translate(35.585 -178.862)" fill="#a5b1c7"/>
                    </g>
                  </g>
                </g>
                <path id="Trazado_210173" data-name="Trazado 210173" d="M147.054,130.383c-17.526-9.935-27.618-11.208-33.826-27.269-.294-1.416-.583-2.9-.852-4.433-1.015-5.855-1.733-12.282-1.226-17.334v-.021a15.011,15.011,0,0,1,1.712-6.236L56.21,43.234c.042.19.063.359.106.55.9,5.264,7.739,46.6.706,68.477a46.113,46.113,0,0,1-16.852,3.558A31.868,31.868,0,0,0,20.1,123.4c-7.553,6.714-14.057,19.293-9.857,42.759,8.4,46.928,16,89.51,12.681,118.123l122.782-.254s1.393-46.294,5.209-80.532c3.477-31.222,15.67-62.04-3.86-73.11" transform="translate(9.937 48.157)" fill="#f2ae96"/>
                <path id="Trazado_210174" data-name="Trazado 210174" d="M82.611,87.52c-30.8,3.89-46.4-32.892-46.97-34.266,5.686,9.026,13.93,13.592,21.986,15.769a60.335,60.335,0,0,0,23.568,1.2c.063-.021.127-.021.19-.042-.507,5.052.211,11.478,1.226,17.334" transform="translate(39.699 59.318)" fill="#e6987c"/>
                <path id="Trazado_210175" data-name="Trazado 210175" d="M115.439,105.469,66.292,78.253l1.057-11.891s-22.2,5.285-30.915,20.874c0,0-20.61,7.4-24.838,32.237-3.534,20.765.133,104.188,1.431,131a25,25,0,0,1-3.754,14.36c-3.881,6.285-8.739,16.351-6.4,24.546,3.7,12.947,147.443,21.667,168.581,4.492,13.081-10.626,5.623-21.154-1.964-27.635a24.939,24.939,0,0,1-8.794-20.082c1.347-29.973,4.612-99.9,6.266-111.881,2.114-15.326-6.606-55.489-48.091-63.68,0,0,1.321,15.061,7.663,20.874Z" transform="translate(2.521 73.919)" fill="#3b3348"/>
                <g id="Grupo_983841" data-name="Grupo 983841" transform="translate(109.388 180.322)" opacity="0.5" style="mix-blend-mode: multiply;isolation: isolate">
                  <g id="Grupo_983840" data-name="Grupo 983840">
                    <g id="Grupo_983839" data-name="Grupo 983839" clip-path="url(#clip-path-9)">
                      <path id="Trazado_210176" data-name="Trazado 210176" d="M51.748,90.553a17.5,17.5,0,0,0,5.946,2.289,14.366,14.366,0,0,0,11.523-2.788,17.55,17.55,0,0,0,4.245-4.75,11.139,11.139,0,0,1-3.152,5.982,12.785,12.785,0,0,1-6.058,3.46,12.273,12.273,0,0,1-12.5-4.194" transform="translate(-51.747 -85.304)" fill="#3b3348"/>
                      <path id="Trazado_210177" data-name="Trazado 210177" d="M83.211,104.862c-.171,7.995-.548,15.972-.939,23.95l-1.361,23.912L79.29,176.613q-.457,5.971-.8,11.943c-.283,3.983-.539,7.961-.562,11.958-.734-7.98-.435-16-.26-23.982.226-7.99.714-15.966,1.137-23.942.592-7.967,1.12-15.939,1.854-23.893s1.514-15.907,2.554-23.836" transform="translate(-23.112 -63.519)" fill="#3b3348"/>
                    </g>
                  </g>
                </g>
                <path id="Trazado_210178" data-name="Trazado 210178" d="M136.921,181.558c-2.467-1.27-21.2-10.922-47.323-24.531-2.137,9.422-4.2,18.852-6.263,28.262q-1.116,5.111-2.207,10.237a324.059,324.059,0,0,0,51.141,6.388l.085-.338,4.841-19.892s-.085-.042-.273-.127" transform="translate(90.365 174.908)" fill="#d88567"/>
                <path id="Trazado_210179" data-name="Trazado 210179" d="M103.894,187.522s24.565,22.883,36.568,26.237a.89.89,0,0,0,1.093-1.211c-.583-1.583-2.67-4.547-9.468-9.424,0,0,16.579,6.458,19.547,5.154S134.74,195.76,134.74,195.76s19.437,5.264,21.481,3.109-18.9-10.863-18.9-10.863,20.357,4.264,20.469,2.558c.277-4.245-28.136-11.007-27.068-13.926.947-2.585,8.1-3.756,11.844-3.723a1.242,1.242,0,0,0,1.283-1.408c-.186-1.552-1.141-3.807-5.071-4.1a66.523,66.523,0,0,0-33.676,5.433Z" transform="translate(115.725 186.149)" fill="#f2ae96"/>
                <path id="Trazado_210180" data-name="Trazado 210180" d="M109.314,164.63a82.116,82.116,0,0,1,9.428,3.921,3.158,3.158,0,0,1,1.659,2.484c.44,4.71,1.184,19.708-5.6,30.7a3.1,3.1,0,0,1-2.613,1.437c-3.008.034-9.453-.192-14.8-2.4a3.165,3.165,0,0,1-1.894-3.443c1.08-6.6,4.564-25.25,10.335-31.8a3.189,3.189,0,0,1,3.482-.907" transform="translate(106.325 183.167)" fill="#3b3348"/>
                <path id="Trazado_210181" data-name="Trazado 210181" d="M31.03,86.65S9.891,89.821,10.948,118.887,53.226,236.206,68.023,247.3c14.222,10.667,83.606,42.324,125.577,44.3a6.928,6.928,0,0,0,6.815-4.572c2.357-6.513,5.991-18.923,4.944-31.268a6.988,6.988,0,0,0-3.486-5.452c-13.859-7.993-71.445-40.973-89.987-47.928,0,0-45.448-129.475-80.856-115.734" transform="translate(12.152 95.38)" fill="#3b3348"/>
                <g id="Grupo_983844" data-name="Grupo 983844" transform="translate(28.914 173.616)" opacity="0.5" style="mix-blend-mode: multiply;isolation: isolate">
                  <g id="Grupo_983843" data-name="Grupo 983843">
                    <g id="Grupo_983842" data-name="Grupo 983842" clip-path="url(#clip-path-10)">
                      <path id="Trazado_210182" data-name="Trazado 210182" d="M13.678,114.362l9.73,21.728c3.238,7.244,6.5,14.476,9.844,21.667,6.705,14.362,13.3,28.823,21.09,42.567a81.341,81.341,0,0,0,6.335,9.859,14.376,14.376,0,0,0,1.909,1.945c.687.554,1.615,1.023,2.412,1.539,1.7.966,3.422,1.924,5.181,2.822,7.016,3.644,14.216,6.978,21.359,10.421,7.16,3.412,14.36,6.743,21.568,10.062L134.7,247.007q-22.107-8.866-43.84-18.619Q79.963,223.562,69.3,218.2c-1.782-.892-3.537-1.845-5.293-2.828-.871-.554-1.742-.97-2.611-1.642a16.034,16.034,0,0,1-2.279-2.264,82.12,82.12,0,0,1-6.608-10.1c-3.9-6.963-7.413-14.1-10.842-21.268-3.41-7.179-6.743-14.389-9.889-21.68-6.35-14.558-12.432-29.226-18.1-44.059" transform="translate(-13.678 -46.232)" fill="#3b3348"/>
                      <path id="Trazado_210183" data-name="Trazado 210183" d="M41.678,104.112C48.2,116.941,54.446,129.9,60.707,142.847l9.221,19.5c3.08,6.5,6.149,13,9.132,19.547l-.442-.467c9.914,5.357,19.883,10.609,29.732,16.093q14.824,8.12,29.51,16.509-15.195-7.429-30.207-15.2c-10.058-5.086-19.993-10.4-29.983-15.615a.979.979,0,0,1-.435-.452l-.008-.015c-3.095-6.49-6.1-13.024-9.1-19.56l-9.011-19.6c-5.893-13.123-11.8-26.237-17.435-39.479" transform="translate(17.51 -57.649)" fill="#3b3348"/>
                      <path id="Trazado_210184" data-name="Trazado 210184" d="M50.928,140.423a29.041,29.041,0,0,1,8.318-.5,35.9,35.9,0,0,1,8.208,1.632l.047.017a1.017,1.017,0,0,1-.059,1.949,52.962,52.962,0,0,0-10.643,4.23,22.71,22.71,0,0,1,10.079-6.2l-.013,1.964c-2.589-.712-5.2-1.33-7.851-1.807-2.651-.518-5.333-.865-8.086-1.287" transform="translate(27.813 -17.861)" fill="#3b3348"/>
                      <path id="Trazado_210185" data-name="Trazado 210185" d="M22.169,83.028a26.941,26.941,0,0,1,33.439,22.817A33.763,33.763,0,0,0,42.862,88.613a33.688,33.688,0,0,0-20.693-5.585" transform="translate(-4.221 -82.132)" fill="#3b3348"/>
                    </g>
                  </g>
                </g>
                <path id="Trazado_210186" data-name="Trazado 210186" d="M116.594,23.326C109.2,4.3,74.317-3.1,50.007,18.042,38.715,27.861,36.322,45.659,36.992,61.907a8.329,8.329,0,0,0-1.446-.579c-4.949-1.235-9.92,2.5-11.4,7.149a13.4,13.4,0,0,0,1.735,11.155,16.866,16.866,0,0,0,7.665,6.405,21.678,21.678,0,0,0,6.6.651A49.091,49.091,0,0,0,56.336,114.25,44.417,44.417,0,0,0,94.1,123.807c10.525-2.184,26.1-8.929,29.968-19.853a27.7,27.7,0,0,0,1.135-8.931c.281-23.024-.148-49.947-8.608-71.7" transform="translate(26.285 5.854)" fill="#f2ae96"/>
                <path id="Trazado_210187" data-name="Trazado 210187" d="M63.3,35.232c0,3.528,1.4,6.39,3.122,6.39s3.12-2.862,3.12-6.39-1.4-6.39-3.12-6.39S63.3,31.7,63.3,35.232" transform="translate(70.502 32.126)" fill="#3d1525"/>
                <path id="Trazado_210188" data-name="Trazado 210188" d="M56.749,35.232c0,3.528-1.4,6.39-3.122,6.39s-3.12-2.862-3.12-6.39,1.4-6.39,3.12-6.39,3.122,2.86,3.122,6.39" transform="translate(56.258 32.126)" fill="#3d1525"/>
                <path id="Trazado_210189" data-name="Trazado 210189" d="M63.4,46.37a5.137,5.137,0,0,1-3.285,1.114,5.381,5.381,0,0,1-3.289-1.114,16.839,16.839,0,0,0,3.289.368A14.1,14.1,0,0,0,63.4,46.37" transform="translate(63.293 51.65)" fill="#3d1525"/>
                <path id="Trazado_210190" data-name="Trazado 210190" d="M62.861,45.463c0,3.188-1.281,5.771-2.862,5.771s-2.862-2.583-2.862-5.771S58.418,39.7,60,39.7s2.862,2.583,2.862,5.767" transform="translate(63.643 44.216)" fill="#3d1525"/>
                <path id="Trazado_210191" data-name="Trazado 210191" d="M64.07,22.327a7.405,7.405,0,0,0-4.837-1.79,14.882,14.882,0,0,0-5.151.731,12.532,12.532,0,0,0-4.534,2.6,13.221,13.221,0,0,0-3.1,3.968,1.494,1.494,0,0,0,2.317,1.826l.127-.116A18.436,18.436,0,0,1,51.976,27.1a10.807,10.807,0,0,1,3.4-1.4,13.285,13.285,0,0,1,3.687-.357,14.167,14.167,0,0,0,3.942-.228l.393-.1a1.563,1.563,0,0,0,.668-2.689" transform="translate(51.531 22.87)" fill="#3d1525"/>
                <path id="Trazado_210192" data-name="Trazado 210192" d="M62.346,22.327a7.4,7.4,0,0,1,4.837-1.79,14.882,14.882,0,0,1,5.151.731,12.532,12.532,0,0,1,4.534,2.6,13.221,13.221,0,0,1,3.1,3.968,1.494,1.494,0,0,1-2.317,1.826l-.127-.116A18.523,18.523,0,0,0,74.439,27.1a10.807,10.807,0,0,0-3.4-1.4,13.285,13.285,0,0,0-3.687-.357,14.167,14.167,0,0,1-3.942-.228l-.4-.1a1.563,1.563,0,0,1-.666-2.689" transform="translate(68.858 22.87)" fill="#3d1525"/>
                <path id="Trazado_210193" data-name="Trazado 210193" d="M64.254,26.965c.552,2.408.958,4.8,1.4,7.168.463,2.361.9,4.718,1.568,6.957.156.562.33,1.114.531,1.649A5.906,5.906,0,0,1,68.3,44.8a4.154,4.154,0,0,1-2.239,3.788,5.038,5.038,0,0,1-4.076.218,9.962,9.962,0,0,1-3.226-1.93c2.241.841,4.858,1.5,6.435.309A2.465,2.465,0,0,0,66.3,44.908a4.562,4.562,0,0,0-.469-1.418q-.361-.9-.632-1.805a34.021,34.021,0,0,1-1.171-7.352,39.014,39.014,0,0,1,.226-7.367" transform="translate(65.449 30.036)" fill="#3d1525"/>
                <path id="Trazado_210194" data-name="Trazado 210194" d="M25.585,39.2a5.314,5.314,0,0,1,1.664-4.228,4.952,4.952,0,0,1,4.822-.465,9.072,9.072,0,0,1,3.892,2.839,14.543,14.543,0,0,1,2.42,4.082,1.066,1.066,0,0,1-1.748,1.146l-.07-.072a9.4,9.4,0,0,0-3.577-2.53,1.661,1.661,0,0,0-1.5.165A3.974,3.974,0,0,0,30.411,41.8c-.545,1.4-.873,3.04.321,3.689,1.254.712,3.09.539,4.729.323a7.446,7.446,0,0,1-5.2.7,2.933,2.933,0,0,1-1.835-2.45,7.594,7.594,0,0,1,.3-2.83,5.308,5.308,0,0,1,1.511-2.611,3.583,3.583,0,0,1,3.27-.674,10.273,10.273,0,0,1,4.657,3.135l-1.818,1.074c-.979-2.446-2.585-4.993-4.906-6.139a4,4,0,0,0-3.632-.22,5.323,5.323,0,0,0-2.232,3.41" transform="translate(28.496 37.986)" fill="#3d1525"/>
                <path id="Trazado_210195" data-name="Trazado 210195" d="M133.1,42.345a9.155,9.155,0,0,0,5.919-6.786,13.131,13.131,0,0,0-1.607-9.111,17.025,17.025,0,0,0-17.334-8.35,7.093,7.093,0,0,0,1.564-6.976,12.23,12.23,0,0,0-4.439-5.94C112.173,1.314,105.557.194,99.215.025A73.583,73.583,0,0,0,52.16,15.646c-8.646,6.807-18.031,12.387-21.583,22.809C27.407,47.8,26.9,57.8,26.688,67.69a8.612,8.612,0,0,1,2.955-.71c1.742,2.67,7,5.576,11.523,7.7a9.059,9.059,0,0,0,11.8-3.818A54.283,54.283,0,0,0,59.7,39.871S71.058,25.6,87.7,39.607A90.922,90.922,0,0,0,119.84,56.655c.8,5.938,1.3,11.971,1.592,17.968a29.862,29.862,0,0,0,11.626-5.137c4.376-3.319,7.61-8.392,7.906-13.867A13.757,13.757,0,0,0,133.1,42.345" transform="translate(29.727 0)" fill="#e35e4d"/>
                <g id="Grupo_983847" data-name="Grupo 983847" transform="translate(65.334 10.59)" opacity="0.5" style="mix-blend-mode: screen;isolation: isolate">
                  <g id="Grupo_983846" data-name="Grupo 983846">
                    <g id="Grupo_983845" data-name="Grupo 983845" clip-path="url(#clip-path-11)">
                      <path id="Trazado_210196" data-name="Trazado 210196" d="M30.907,48.394c1.336,2.175,4.158,2.744,6.416,2.186a7.908,7.908,0,0,0,5.116-4.526c2.19-4.327,1.537-9.354,2.188-14.362a22.137,22.137,0,0,1,7.139-13.307,24.372,24.372,0,0,1,13.751-6.437c5.217-.562,10.364,1.025,14.78,3.393a102.326,102.326,0,0,1,12.425,8.25l11.941,8.756c3.936,2.981,7.914,5.9,11.814,8.935-4.175-2.64-8.272-5.395-12.411-8.088L91.786,24.924c-4.126-2.716-8.062-5.7-12.375-7.874-4.268-2.215-9.007-3.56-13.673-3-9.354.913-17.953,8.47-19.513,17.892-.829,4.659-.321,10-2.877,14.6a8.7,8.7,0,0,1-5.912,4.589c-2.469.476-5.4-.421-6.53-2.731" transform="translate(-30.908 2.592)" fill="#e35e4d"/>
                      <path id="Trazado_210197" data-name="Trazado 210197" d="M47.206,7.888a27.114,27.114,0,0,1,7.316,1.687c2.355.9,4.6,2.019,6.834,3.133a87.984,87.984,0,0,0,13.423,6.018A69.158,69.158,0,0,0,89.073,21.9a77.1,77.1,0,0,0,14.791.18,52.552,52.552,0,0,1-7.386,1.292,59.338,59.338,0,0,1-7.536.148,54.176,54.176,0,0,1-14.837-2.795,64.417,64.417,0,0,1-13.531-6.6c-2.124-1.281-4.247-2.535-6.46-3.6a32.586,32.586,0,0,0-6.908-2.632" transform="translate(-12.753 -1.804)" fill="#e35e4d"/>
                      <path id="Trazado_210198" data-name="Trazado 210198" d="M56.191,5.155a69.565,69.565,0,0,0,10.889.894,70.33,70.33,0,0,0,10.876-1.04A19.663,19.663,0,0,1,67.094,8.161a19.737,19.737,0,0,1-10.9-3.006" transform="translate(-2.745 -5.011)" fill="#e35e4d"/>
                    </g>
                  </g>
                </g>
              </g>
            </g>
          </g>
        </g>
      </g>
    </g>
  </g>
</svg>
