<svg id="Grupo_984383" data-name="Grupo 984383" xmlns="http://www.w3.org/2000/svg" xmlns:xlink="http://www.w3.org/1999/xlink" width="53.419" height="46.91" viewBox="0 0 53.419 46.91">
  <defs>
    <clipPath id="clip-path">
      <rect id="Rectángulo_339496" data-name="Rectángulo 339496" width="53.419" height="46.91" fill="none"/>
    </clipPath>
  </defs>
  <path id="Trazado_212349" data-name="Trazado 212349" d="M10.726,6.374,53.218,4.851l3.72,2.474L53.218,49.11H45.271l-.558.793L5.741,48.046,10.63,16.6l-1.713-.807Z" transform="translate(-4.282 -3.618)" fill="#fff"/>
  <g id="Grupo_984382" data-name="Grupo 984382">
    <g id="Grupo_984381" data-name="Grupo 984381" clip-path="url(#clip-path)">
      <path id="Trazado_212350" data-name="Trazado 212350" d="M58.4,1.007A26.105,26.105,0,0,1,57.2,10.8l.97-.739L24.389,11.6c-1.568.071-3.136.161-4.7.211a7.62,7.62,0,0,1-3.9-.616l.462,1.136,1.808-9.161-.97.739,14.318-.642L54.2,2.246l5.2-.233c1.29-.058,1.3-2.071,0-2.013L45.085.642l-22.8,1.022-5.2.233a1.025,1.025,0,0,0-.97.739q-.9,4.58-1.809,9.161a1.035,1.035,0,0,0,.462,1.136c2.251,1.2,4.822.9,7.275.787l8.7-.4,17.559-.8,9.867-.45a1.041,1.041,0,0,0,.97-.739A27.7,27.7,0,0,0,60.41,1.007c-.086-1.285-2.1-1.3-2.013,0" transform="translate(-10.654 0.001)" fill="#040405"/>
      <path id="Trazado_212351" data-name="Trazado 212351" d="M5.635,42.016Q2.827,57.862.019,73.708a1.021,1.021,0,0,0,.97,1.274c13.228-.354,26.444.466,39.64,1.294a1.014,1.014,0,0,0,.97-.739,313,313,0,0,0,6.7-35.152c.072-.543-.514-1-1.006-1.006a1.031,1.031,0,0,0-1.006,1.006A308.436,308.436,0,0,1,39.659,75l.97-.739c-13.2-.828-26.412-1.648-39.64-1.294l.97,1.274L7.575,42.551c.224-1.266-1.715-1.81-1.941-.535" transform="translate(0 -29.367)" fill="#040405"/>
      <path id="Trazado_212352" data-name="Trazado 212352" d="M186.376,2.168c.727.61,1.462,1.212,2.182,1.83.272.234.429.315.4.669-.035.446-.114.892-.174,1.335l-.4,2.963-.2,1.481-.086.635q-.029.212-.057.423-.072.255.03.065l.444-.259A4.162,4.162,0,0,1,187.1,11.2l-1.669-.172c-1.03-.106-1.317,1.4-.508,1.875l.258.15a1.007,1.007,0,0,0,1.016-1.738l-.258-.15-.508,1.875,2.294.236c.749.077,1.566.166,2.027-.582a5.6,5.6,0,0,0,.431-2.134l.316-2.328q.158-1.164.316-2.328a4.786,4.786,0,0,0,.052-2.155,3.553,3.553,0,0,0-1.272-1.5L187.8.745a1.033,1.033,0,0,0-1.423,0,1.014,1.014,0,0,0,0,1.423" transform="translate(-137.556 -0.343)" fill="#040405"/>
      <path id="Trazado_212353" data-name="Trazado 212353" d="M168.415,46.242q-.4,10.133-1.249,20.242-.418,4.97-.944,9.93-.07.661-.142,1.322a3.593,3.593,0,0,1-.142,1.116q.346-.3-.081-.21l-.663-.029-.994-.043-5.3-.23c-1.295-.056-1.292,1.956,0,2.012l4.309.187,1.989.086a3.566,3.566,0,0,0,1.849-.184c1.068-.568.975-2.009,1.086-3.036q.233-2.149.445-4.3.841-8.52,1.363-17.068.3-4.9.492-9.8c.051-1.3-1.961-1.293-2.013,0" transform="translate(-117.773 -33.762)" fill="#040405"/>
      <path id="Trazado_212354" data-name="Trazado 212354" d="M185.432,45.662c-1.4,11.079-2.526,22.192-4.121,33.246-.14.971,1.346,1.391,1.488.41,1.615-11.19,2.76-22.441,4.176-33.656.124-.983-1.42-.974-1.543,0" transform="translate(-135.206 -33.506)" fill="#040405"/>
      <path id="Trazado_212355" data-name="Trazado 212355" d="M172.993,48.616q-1.935,16.253-5.453,32.261c-.212.968,1.275,1.381,1.488.41q3.552-16.19,5.509-32.671c.117-.984-1.427-.976-1.543,0" transform="translate(-124.927 -35.707)" fill="#040405"/>
      <path id="Trazado_212356" data-name="Trazado 212356" d="M44.445,74.1l13.727-.544,6.781-.268c2.188-.086,4.5-.379,6.647.155a1.007,1.007,0,0,0,.535-1.941,23.056,23.056,0,0,0-6.52-.253l-7.112.281-14.058.557c-1.291.051-1.3,2.064,0,2.013" transform="translate(-32.421 -53.053)" fill="#040405"/>
      <path id="Trazado_212357" data-name="Trazado 212357" d="M44.425,101.221q13.063.2,26.126-.062a1.007,1.007,0,0,0,0-2.013q-13.062.259-26.126.062a1.007,1.007,0,0,0,0,2.013" transform="translate(-32.406 -73.938)" fill="#040405"/>
      <path id="Trazado_212358" data-name="Trazado 212358" d="M35.236,130.5l27.613.543a1.007,1.007,0,0,0,0-2.013l-27.613-.543a1.007,1.007,0,0,0,0,2.013" transform="translate(-25.553 -95.819)" fill="#040405"/>
      <path id="Trazado_212359" data-name="Trazado 212359" d="M5.848,155.838l2.137,3.39a.772.772,0,0,0,1.332-.779l-2.137-3.39a.772.772,0,1,0-1.332.779" transform="translate(-4.282 -115.35)" fill="#040405"/>
      <path id="Trazado_212360" data-name="Trazado 212360" d="M8.321,140.844a33.77,33.77,0,0,0,5.742,8.578c.672.734,1.761-.36,1.091-1.091a32.454,32.454,0,0,1-5.5-8.266.778.778,0,0,0-1.055-.277.789.789,0,0,0-.277,1.056" transform="translate(-6.136 -104.173)" fill="#040405"/>
      <path id="Trazado_212361" data-name="Trazado 212361" d="M10.392,129.943q4.321,5.424,8.745,10.764c.634.765,1.721-.332,1.091-1.091q-4.424-5.34-8.745-10.764a.777.777,0,0,0-1.091,0,.789.789,0,0,0,0,1.091" transform="translate(-7.586 -95.924)" fill="#040405"/>
    </g>
  </g>
</svg>
